<?xml version="1.0" encoding="utf-8"?>
<!-- Generator: Adobe Illustrator 15.1.0, SVG Export Plug-In . SVG Version: 6.00 Build 0)  -->
<!DOCTYPE svg PUBLIC "-//W3C//DTD SVG 1.1//EN" "http://www.w3.org/Graphics/SVG/1.1/DTD/svg11.dtd">
<svg version="1.1" id="Layer_1" xmlns="http://www.w3.org/2000/svg" xmlns:xlink="http://www.w3.org/1999/xlink" x="0px" y="0px"
	 width="43px" height="43px" viewBox="0 0 43 43" enable-background="new 0 0 43 43" xml:space="preserve">
<path fill="#0083C6" d="M43,21.5C43,33.375,33.375,43,21.5,43S0,33.375,0,21.5S9.625,0,21.5,0S43,9.625,43,21.5z M21.5,2.293
	c-10.607,0-19.207,8.6-19.207,19.207c0,10.609,8.6,19.207,19.207,19.207c10.607,0,19.207-8.598,19.207-19.207
	C40.707,10.893,32.109,2.293,21.5,2.293z"/>
<path fill="#FFFFFF" d="M21.525,28.792v-7.545h3.495l0.314-2.541h-3.81v-1.271c0-0.701,0.566-1.271,1.271-1.271h2.538v-2.542h-2.538
	c-2.106,0-3.812,1.707-3.812,3.812v1.271h-1.907v2.541h1.907v7.545L21.525,28.792L21.525,28.792z"/>
</svg>
