<?xml version="1.0" encoding="utf-8"?>
<!-- Generator: Adobe Illustrator 15.1.0, SVG Export Plug-In . SVG Version: 6.00 Build 0)  -->
<!DOCTYPE svg PUBLIC "-//W3C//DTD SVG 1.1//EN" "http://www.w3.org/Graphics/SVG/1.1/DTD/svg11.dtd">
<svg version="1.1" id="Layer_1" xmlns="http://www.w3.org/2000/svg" xmlns:xlink="http://www.w3.org/1999/xlink" x="0px" y="0px"
	 width="43px" height="43px" viewBox="0 0 43 43" enable-background="new 0 0 43 43" xml:space="preserve">
<path fill="#0083C6" d="M43,21.5C43,33.375,33.375,43,21.5,43S0,33.375,0,21.5S9.625,0,21.5,0S43,9.625,43,21.5z M21.5,2.293
	c-10.607,0-19.207,8.6-19.207,19.207c0,10.607,8.6,19.206,19.207,19.206c10.607,0,19.206-8.599,19.206-19.206
	C40.706,10.893,32.107,2.293,21.5,2.293z"/>
<path fill="#FFFFFF" d="M19.725,22.666c0-0.884,1.945-1.141,1.945-3.221c0-1.245-0.115-1.997-1.097-2.44
	c0-0.312,1.733-0.106,1.733-0.685c-0.301,0-3.798,0-3.798,0s-3.845,0.095-3.845,3.35s3.36,2.878,3.36,2.878s0,0.493,0,0.826
	s0.451,0.222,0.508,0.896c-0.227,0-4.67-0.117-4.67,2.832c0,2.947,3.914,2.807,3.914,2.807s4.527,0.207,4.527-3.454
	C22.307,24.258,19.725,23.55,19.725,22.666z M16.443,19.859c-0.354-1.309,0.113-2.572,1.047-2.827
	c0.933-0.253,1.979,0.6,2.334,1.905c0.355,1.31-0.114,2.576-1.047,2.83C17.843,22.021,16.799,21.166,16.443,19.859z M18.389,28.966
	c-1.568,0.106-2.9-0.735-2.979-1.88c-0.077-1.143,1.13-2.154,2.697-2.262c1.567-0.105,2.902,0.734,2.979,1.879
	C21.164,27.846,19.955,28.857,18.389,28.966z"/>
<polygon fill="#FFFFFF" points="29.432,18.963 29.432,19.742 26.787,19.742 26.787,22.381 26.009,22.381 26.009,19.742 
	23.367,19.742 23.367,18.963 26.009,18.963 26.009,16.32 26.787,16.32 26.787,18.963 "/>
</svg>
