<?xml version="1.0" encoding="utf-8"?>
<!-- Generator: Adobe Illustrator 15.1.0, SVG Export Plug-In . SVG Version: 6.00 Build 0)  -->
<!DOCTYPE svg PUBLIC "-//W3C//DTD SVG 1.1//EN" "http://www.w3.org/Graphics/SVG/1.1/DTD/svg11.dtd">
<svg version="1.1" id="Layer_1" xmlns="http://www.w3.org/2000/svg" xmlns:xlink="http://www.w3.org/1999/xlink" x="0px" y="0px"
	 width="43px" height="43px" viewBox="0 0 43 43" enable-background="new 0 0 43 43" xml:space="preserve">
<path fill="#0083C6" d="M43,21.5C43,33.375,33.375,43,21.5,43S0,33.375,0,21.5S9.625,0,21.5,0S43,9.625,43,21.5z M21.5,2.293
	c-10.607,0-19.207,8.6-19.207,19.207c0,10.609,8.6,19.205,19.207,19.205c10.607,0,19.205-8.596,19.205-19.205
	C40.705,10.893,32.109,2.293,21.5,2.293z"/>
<path fill="#FFFFFF" d="M14.479,17.846h2.883v9.282h-2.883V17.846z M15.919,13.23c0.923,0,1.673,0.75,1.673,1.672
	c0,0.924-0.75,1.674-1.673,1.674c-0.924,0-1.672-0.749-1.672-1.674C14.247,13.98,14.995,13.23,15.919,13.23"/>
<path fill="#FFFFFF" d="M19.17,17.846h2.768v1.268h0.039c0.384-0.729,1.326-1.499,2.729-1.499c2.923,0,3.463,1.921,3.463,4.42v5.093
	h-2.883v-4.517c0-1.074-0.021-2.46-1.501-2.46c-1.5,0-1.73,1.175-1.73,2.384v4.593h-2.883L19.17,17.846L19.17,17.846z"/>
</svg>
