<?xml version="1.0" encoding="utf-8"?>
<!-- Generator: Adobe Illustrator 15.1.0, SVG Export Plug-In . SVG Version: 6.00 Build 0)  -->
<!DOCTYPE svg PUBLIC "-//W3C//DTD SVG 1.1//EN" "http://www.w3.org/Graphics/SVG/1.1/DTD/svg11.dtd">
<svg version="1.1" id="Layer_1" xmlns="http://www.w3.org/2000/svg" xmlns:xlink="http://www.w3.org/1999/xlink" x="0px" y="0px"
	 width="43px" height="43px" viewBox="0 0 43 43" enable-background="new 0 0 43 43" xml:space="preserve">
<path fill="#0083C6" d="M43,21.5C43,33.374,33.374,43,21.5,43S0,33.374,0,21.5S9.626,0,21.5,0S43,9.626,43,21.5z M21.5,2.293
	c-10.607,0-19.207,8.6-19.207,19.207c0,10.607,8.6,19.206,19.207,19.206c10.607,0,19.206-8.599,19.206-19.206
	C40.706,10.893,32.107,2.293,21.5,2.293z"/>
<path fill="#FFFFFF" d="M21.586,13.714c-4.41,0-6.634,3.163-6.634,5.798c0,1.596,0.606,3.015,1.901,3.544
	c0.213,0.086,0.402,0.004,0.465-0.229c0.043-0.163,0.144-0.574,0.188-0.745c0.062-0.231,0.039-0.313-0.134-0.517
	c-0.373-0.44-0.611-1.012-0.611-1.819c0-2.347,1.754-4.446,4.568-4.446c2.493,0,3.86,1.521,3.86,3.557
	c0,2.677-1.186,4.935-2.94,4.935c-0.973,0-1.698-0.804-1.465-1.788c0.279-1.177,0.818-2.443,0.818-3.292
	c0-0.76-0.408-1.394-1.252-1.394c-0.992,0-1.789,1.026-1.789,2.402c0,0.875,0.295,1.469,0.295,1.469s-1.017,4.304-1.195,5.056
	c-0.354,1.503-0.053,3.342-0.025,3.526c0.014,0.109,0.156,0.139,0.219,0.055c0.093-0.119,1.274-1.578,1.678-3.036
	c0.113-0.412,0.652-2.554,0.652-2.554c0.321,0.617,1.265,1.158,2.267,1.158c2.985,0,5.009-2.723,5.009-6.36
	C27.462,16.279,25.13,13.714,21.586,13.714z"/>
</svg>
