<?xml version="1.0" encoding="utf-8"?>
<!-- Generator: Adobe Illustrator 15.1.0, SVG Export Plug-In . SVG Version: 6.00 Build 0)  -->
<!DOCTYPE svg PUBLIC "-//W3C//DTD SVG 1.1//EN" "http://www.w3.org/Graphics/SVG/1.1/DTD/svg11.dtd">
<svg version="1.1" id="Layer_1" xmlns="http://www.w3.org/2000/svg" xmlns:xlink="http://www.w3.org/1999/xlink" x="0px" y="0px"
	 width="43px" height="43px" viewBox="0 0 43 43" enable-background="new 0 0 43 43" xml:space="preserve">
<path fill="#0083C6" d="M43,21.5C43,33.374,33.374,43,21.5,43S0,33.374,0,21.5S9.626,0,21.5,0S43,9.626,43,21.5z M21.5,2.294
	c-10.607,0-19.207,8.599-19.207,19.206c0,10.607,8.6,19.207,19.207,19.207c10.607,0,19.206-8.6,19.206-19.207
	C40.706,10.893,32.107,2.294,21.5,2.294z"/>
<path fill="#FFFFFF" d="M29.615,17.402c-0.607,0.271-1.262,0.453-1.946,0.535c0.7-0.42,1.237-1.084,1.489-1.877
	c-0.654,0.39-1.381,0.67-2.153,0.822c-0.616-0.658-1.499-1.068-2.476-1.068c-1.87,0-3.389,1.518-3.389,3.391
	c0,0.266,0.029,0.523,0.088,0.773c-2.817-0.144-5.314-1.494-6.986-3.543c-0.293,0.5-0.46,1.082-0.46,1.703
	c0,1.176,0.598,2.215,1.508,2.822c-0.558-0.02-1.079-0.171-1.535-0.423c0,0.012,0,0.028,0,0.042c0,1.646,1.169,3.016,2.72,3.323
	c-0.283,0.076-0.584,0.119-0.894,0.119c-0.22,0-0.431-0.021-0.638-0.062c0.432,1.347,1.684,2.326,3.168,2.354
	c-1.161,0.908-2.623,1.451-4.211,1.451c-0.272,0-0.543-0.019-0.809-0.048c1.5,0.962,3.282,1.521,5.195,1.521
	c6.235,0,9.646-5.166,9.646-9.646c0-0.146-0.002-0.293-0.011-0.438C28.586,18.68,29.161,18.083,29.615,17.402z"/>
</svg>
