<?xml version="1.0" encoding="utf-8"?>
<!-- Generator: Adobe Illustrator 15.1.0, SVG Export Plug-In . SVG Version: 6.00 Build 0)  -->
<!DOCTYPE svg PUBLIC "-//W3C//DTD SVG 1.1//EN" "http://www.w3.org/Graphics/SVG/1.1/DTD/svg11.dtd">
<svg version="1.1" id="Layer_1" xmlns="http://www.w3.org/2000/svg" xmlns:xlink="http://www.w3.org/1999/xlink" x="0px" y="0px"
	 width="43px" height="43px" viewBox="0 0 43 43" enable-background="new 0 0 43 43" xml:space="preserve">
<path fill="#0083C6" d="M43,21.5C43,33.375,33.375,43,21.5,43C9.626,43,0,33.375,0,21.5C0,9.626,9.626,0,21.5,0
	C33.375,0,43,9.626,43,21.5z M21.5,2.294c-10.607,0-19.207,8.599-19.207,19.207c0,10.608,8.6,19.208,19.207,19.208
	c10.607,0,19.208-8.602,19.208-19.208C40.708,10.893,32.109,2.294,21.5,2.294z"/>
<path fill="#FFFFFF" d="M14.337,12.975h1.455l0.938,2.883h0.088l0.896-2.883h1.466l-1.681,4.219v2.994h-1.442v-2.859L14.337,12.975z
	"/>
<path fill="#FFFFFF" d="M19.333,16.081c0-0.422,0.173-0.761,0.521-1.011c0.349-0.252,0.814-0.379,1.402-0.379
	c0.536,0,0.973,0.135,1.314,0.398c0.341,0.266,0.513,0.604,0.513,1.021v2.824c0,0.469-0.168,0.834-0.503,1.101
	c-0.334,0.269-0.794,0.399-1.382,0.399c-0.565,0-1.019-0.137-1.357-0.412c-0.338-0.275-0.508-0.645-0.508-1.109V16.081
	L19.333,16.081z M20.663,19.018c0,0.149,0.046,0.265,0.138,0.349c0.092,0.081,0.225,0.123,0.395,0.123
	c0.176,0,0.313-0.044,0.418-0.126c0.102-0.084,0.154-0.2,0.154-0.346v-2.979c0-0.119-0.054-0.215-0.158-0.29
	c-0.105-0.074-0.244-0.108-0.416-0.108c-0.155,0-0.284,0.035-0.383,0.108c-0.099,0.075-0.148,0.171-0.148,0.29V19.018L20.663,19.018
	z"/>
<path fill="#FFFFFF" d="M27.811,14.779v5.468h-1.295v-0.604c-0.238,0.225-0.486,0.393-0.746,0.508
	c-0.258,0.117-0.508,0.175-0.75,0.175c-0.299,0-0.523-0.081-0.678-0.243c-0.15-0.164-0.227-0.408-0.227-0.732v-4.57h1.294v4.188
	c0,0.131,0.026,0.225,0.083,0.283c0.053,0.059,0.142,0.086,0.264,0.086c0.096,0,0.217-0.04,0.361-0.115
	c0.145-0.076,0.277-0.176,0.398-0.295v-4.148h1.295V14.779z"/>
<path fill="#FFFFFF" d="M28.775,22.852c0-0.946-0.976-1.716-2.174-1.716c-1.711-0.058-3.463-0.083-5.249-0.079
	c-1.787-0.004-3.537,0.021-5.25,0.079c-1.199,0-2.172,0.77-2.172,1.716c-0.072,0.75-0.104,1.5-0.102,2.248
	c-0.002,0.75,0.029,1.504,0.102,2.252c0,0.948,0.973,1.715,2.172,1.715c1.711,0.059,3.463,0.084,5.25,0.08
	c1.786,0.004,3.538-0.021,5.249-0.08c1.198,0,2.174-0.767,2.174-1.715c0.07-0.748,0.103-1.502,0.099-2.252
	C28.878,24.352,28.848,23.602,28.775,22.852z"/>
<path d="M18.15,22.311h-3.153v0.771h1.063v4.545h1.027V23.08h1.062L18.15,22.311L18.15,22.311z M19.832,26.682
	c-0.086,0.086-0.18,0.157-0.283,0.211c-0.104,0.057-0.188,0.082-0.254,0.082c-0.085,0-0.146-0.02-0.186-0.062
	c-0.039-0.04-0.058-0.108-0.058-0.202v-3.007h-0.913v3.278c0,0.231,0.055,0.408,0.161,0.524c0.107,0.117,0.267,0.177,0.478,0.177
	c0.171,0,0.349-0.043,0.529-0.127c0.182-0.084,0.356-0.205,0.525-0.363v0.435h0.913v-3.924h-0.913L19.832,26.682L19.832,26.682z
	 M23.368,23.654c-0.144,0-0.28,0.031-0.421,0.094c-0.139,0.062-0.271,0.152-0.393,0.273v-1.711h-0.921v5.315h0.921v-0.303
	c0.119,0.118,0.25,0.209,0.391,0.266c0.141,0.058,0.298,0.086,0.478,0.086c0.271,0,0.478-0.073,0.621-0.221s0.213-0.363,0.213-0.644
	v-2.176c0-0.32-0.073-0.562-0.228-0.729C23.877,23.738,23.657,23.654,23.368,23.654z M23.318,26.706c0,0.127-0.025,0.218-0.08,0.271
	c-0.053,0.059-0.133,0.084-0.245,0.084c-0.077,0-0.15-0.014-0.22-0.043c-0.07-0.025-0.146-0.072-0.219-0.139v-2.443
	c0.062-0.054,0.125-0.095,0.188-0.119c0.062-0.022,0.129-0.039,0.189-0.039c0.127,0,0.221,0.035,0.284,0.104
	c0.065,0.066,0.099,0.168,0.099,0.3v2.024H23.318z M27.63,25.758v-0.999c0-0.37-0.11-0.655-0.335-0.856
	c-0.225-0.195-0.545-0.297-0.963-0.297c-0.406,0-0.741,0.107-0.998,0.32c-0.258,0.217-0.389,0.493-0.389,0.833v1.763
	c0,0.375,0.117,0.672,0.354,0.889c0.234,0.217,0.557,0.322,0.965,0.322c0.455,0,0.797-0.102,1.025-0.305
	c0.227-0.205,0.341-0.506,0.341-0.906v-0.295h-0.938v0.271c0,0.229-0.028,0.38-0.088,0.447c-0.062,0.066-0.166,0.103-0.316,0.103
	c-0.146,0-0.249-0.041-0.309-0.118c-0.062-0.08-0.094-0.227-0.094-0.432v-0.739L27.63,25.758L27.63,25.758z M25.885,24.751
	c0-0.162,0.033-0.28,0.096-0.353c0.063-0.071,0.166-0.106,0.312-0.106c0.141,0,0.24,0.035,0.305,0.106
	c0.062,0.069,0.094,0.188,0.094,0.353v0.399h-0.807V24.751L25.885,24.751z"/>
<path d="M18.15,22.368h-3.153v0.771h1.063v4.545h1.027v-4.545h1.062L18.15,22.368L18.15,22.368z M19.832,26.736
	c-0.086,0.087-0.18,0.158-0.283,0.213s-0.188,0.082-0.254,0.082c-0.085,0-0.146-0.021-0.186-0.062
	c-0.039-0.04-0.058-0.112-0.058-0.206V23.76h-0.913v3.279c0,0.234,0.055,0.408,0.161,0.525c0.107,0.117,0.267,0.176,0.478,0.176
	c0.171,0,0.349-0.043,0.529-0.127c0.182-0.084,0.356-0.205,0.525-0.363v0.434h0.913V23.76h-0.913L19.832,26.736L19.832,26.736z
	 M23.368,23.711c-0.144,0-0.28,0.031-0.421,0.096c-0.139,0.062-0.271,0.151-0.393,0.272v-1.711h-0.921v5.315h0.921v-0.303
	c0.119,0.117,0.25,0.207,0.391,0.266c0.141,0.057,0.298,0.086,0.478,0.086c0.271,0,0.478-0.074,0.621-0.223s0.213-0.361,0.213-0.642
	v-2.177c0-0.317-0.073-0.562-0.228-0.729C23.877,23.795,23.657,23.711,23.368,23.711z M23.318,26.764
	c0,0.125-0.025,0.217-0.08,0.271c-0.053,0.053-0.133,0.08-0.245,0.08c-0.077,0-0.15-0.012-0.22-0.041
	c-0.07-0.027-0.146-0.074-0.219-0.137v-2.446c0.062-0.054,0.125-0.095,0.188-0.119s0.129-0.039,0.189-0.039
	c0.127,0,0.221,0.035,0.284,0.104c0.065,0.067,0.099,0.168,0.099,0.299v2.027H23.318L23.318,26.764z M27.63,25.814v-1.002
	c0-0.369-0.11-0.653-0.335-0.854s-0.545-0.298-0.963-0.298c-0.406,0-0.741,0.105-0.998,0.32c-0.258,0.215-0.389,0.492-0.389,0.83
	v1.763c0,0.378,0.117,0.675,0.354,0.89c0.234,0.219,0.557,0.324,0.965,0.324c0.455,0,0.797-0.104,1.025-0.307
	c0.227-0.203,0.341-0.508,0.341-0.907v-0.294h-0.938v0.271c0,0.23-0.028,0.381-0.088,0.446c-0.062,0.069-0.166,0.104-0.316,0.104
	c-0.146,0-0.249-0.041-0.309-0.121c-0.062-0.08-0.094-0.225-0.094-0.43v-0.74h1.745V25.814z M25.885,24.809
	c0-0.164,0.033-0.281,0.096-0.354c0.063-0.07,0.166-0.104,0.312-0.104c0.141,0,0.24,0.033,0.305,0.104
	c0.062,0.07,0.094,0.188,0.094,0.354v0.396h-0.807V24.809L25.885,24.809z"/>
</svg>
