<?xml version="1.0" encoding="utf-8"?>
<!-- Generator: Adobe Illustrator 15.1.0, SVG Export Plug-In . SVG Version: 6.00 Build 0)  -->
<!DOCTYPE svg PUBLIC "-//W3C//DTD SVG 1.1//EN" "http://www.w3.org/Graphics/SVG/1.1/DTD/svg11.dtd">
<svg version="1.1" id="Layer_1" xmlns="http://www.w3.org/2000/svg" xmlns:xlink="http://www.w3.org/1999/xlink" x="0px" y="0px"
	 width="252px" height="37.596px" viewBox="0 0 252 37.596" enable-background="new 0 0 252 37.596" xml:space="preserve">
<g>
	<path fill="#FFFFFF" d="M0,0.361h17.812v3.436h-6.962V21.55H7.083V3.797H0V0.361z"/>
	<path fill="#FFFFFF" d="M38.008,13.201H27.669v8.349h-3.737V0.361h3.737v9.524h10.338V0.392h3.737V21.55h-3.737V13.201z"/>
	<path fill="#FFFFFF" d="M50.547,0.361h13.774v3.436H54.285v5.938h9.102v3.316h-9.102v5.063h10.037v3.436H50.547V0.361z"/>
	<path fill="#FFFFFF" d="M84.939,0.361h13.773v3.436H88.646v6.179h8.921v3.315h-8.921v8.259h-3.707V0.361z"/>
	<path fill="#FFFFFF" d="M115.683,0c6.57,0,11.333,4.611,11.333,10.94c0,6.239-4.853,10.94-11.333,10.94S104.38,17.21,104.38,10.94
		C104.38,4.822,109.323,0,115.683,0z M115.713,18.597c4.099,0,7.293-3.286,7.293-7.596c0-4.34-3.044-7.625-7.293-7.625
		c-4.189,0-7.294,3.285-7.294,7.625C108.418,15.251,111.614,18.597,115.713,18.597z"/>
	<path fill="#FFFFFF" d="M134.189,0.361h3.739v12.418c0,4.039,1.837,5.727,5.032,5.727c3.194,0,5.153-1.688,5.153-5.757V0.361h3.738
		v12.418c0,6.329-3.586,9.162-8.892,9.162c-5.305,0-8.771-2.833-8.771-9.162V0.361z"/>
	<path fill="#FFFFFF" d="M160.383,0.241h1.177l13.109,13.654V0.361h3.738V21.7h-0.995L164.121,8.409V21.55h-3.738V0.241z"/>
	<path fill="#FFFFFF" d="M187.21,0.361h7.985c6.571,0,11.334,4.431,11.334,10.579c0,6.059-4.854,10.609-11.334,10.609h-7.985V0.361z
		 M190.977,3.797v14.317h4.25c4.1,0,7.293-2.985,7.293-7.113c0-4.159-3.044-7.204-7.293-7.204H190.977z"/>
	<path fill="#FFFFFF" d="M213.165,0.361h6.782c5.636,0,8.469,3.104,8.469,7.535c0,2.2-1.116,5.305-3.948,6.69
		c1.597,1.387,2.05,3.587,4.581,3.587h0.845v3.315c0,0-0.785,0.181-2.02,0.181c-5.275,0-4.974-4.852-7.536-6.298
		c-0.361,0.029-0.723,0.029-1.115,0.029h-2.319v6.148h-3.738V0.361z M216.903,3.797v8.288h2.772c3.496,0,4.701-1.868,4.701-4.188
		s-1.176-4.099-4.701-4.099H216.903z"/>
	<path fill="#FFFFFF" d="M252.003,0.361l-7.776,12.81v8.379h-3.767v-8.409l-7.776-12.779h4.31l5.395,9.374l5.396-9.374H252.003z"/>
</g>
<g>
	<path fill="#FFFFFF" d="M63.149,28.937h1.522v3.612h4.131v-3.612h1.521v8.659h-1.521v-3.649h-4.131v3.649h-1.522V28.937z"/>
	<path fill="#FFFFFF" d="M77.003,28.937h6.42v1.36h-4.898v2.252h4.342v1.36h-4.342v2.326h4.96v1.36h-6.482V28.937z"/>
	<path fill="#FFFFFF" d="M92.813,28.875h1.411l3.809,8.721h-1.607l-0.878-2.092h-4.095l-0.891,2.092h-1.559L92.813,28.875z
		 M94.99,34.144l-1.497-3.463l-1.484,3.463H94.99z"/>
	<path fill="#FFFFFF" d="M103.971,28.937h1.521v7.261h4.552v1.398h-6.074V28.937z"/>
	<path fill="#FFFFFF" d="M116.971,30.334h-2.746v-1.397h7.014v1.397h-2.747v7.262h-1.521V30.334z"/>
	<path fill="#FFFFFF" d="M127.312,28.937h1.521v3.612h4.133v-3.612h1.521v8.659h-1.521v-3.649h-4.133v3.649h-1.521V28.937z"/>
	<path fill="#FFFFFF" d="M145.188,37.744c-0.627,0-1.21-0.116-1.75-0.347s-1.007-0.546-1.398-0.946
		c-0.392-0.399-0.698-0.872-0.921-1.416s-0.335-1.126-0.335-1.745v-0.024c0-0.617,0.109-1.197,0.329-1.737
		c0.218-0.54,0.524-1.015,0.921-1.423c0.396-0.408,0.868-0.729,1.416-0.966c0.548-0.234,1.149-0.352,1.8-0.352
		c0.396,0,0.756,0.032,1.083,0.099c0.326,0.066,0.625,0.159,0.896,0.279c0.273,0.119,0.523,0.262,0.755,0.426
		c0.229,0.166,0.448,0.347,0.655,0.545l-0.978,1.126c-0.347-0.323-0.713-0.582-1.102-0.78c-0.387-0.198-0.828-0.296-1.323-0.296
		c-0.411,0-0.794,0.079-1.144,0.24c-0.352,0.161-0.651,0.379-0.903,0.656c-0.251,0.276-0.449,0.6-0.594,0.971
		c-0.144,0.371-0.217,0.768-0.217,1.188v0.024c0,0.422,0.073,0.819,0.217,1.193c0.145,0.376,0.343,0.703,0.594,0.984
		c0.252,0.279,0.552,0.501,0.903,0.662c0.35,0.16,0.732,0.24,1.144,0.24c0.264,0,0.508-0.025,0.73-0.08
		c0.222-0.054,0.434-0.127,0.63-0.223c0.199-0.095,0.391-0.212,0.576-0.352c0.186-0.141,0.369-0.298,0.55-0.471l0.978,0.989
		c-0.223,0.231-0.456,0.441-0.698,0.631c-0.244,0.189-0.506,0.353-0.786,0.488c-0.28,0.137-0.588,0.24-0.921,0.31
		C145.961,37.709,145.592,37.744,145.188,37.744z"/>
	<path fill="#FFFFFF" d="M157.818,28.875h1.41l3.81,8.721h-1.608l-0.879-2.092h-4.093l-0.892,2.092h-1.56L157.818,28.875z
		 M159.994,34.144l-1.496-3.463l-1.484,3.463H159.994z"/>
	<path fill="#FFFFFF" d="M168.976,28.937h3.859c0.545,0,1.026,0.076,1.446,0.229c0.42,0.151,0.771,0.364,1.052,0.636
		c0.231,0.239,0.408,0.516,0.532,0.829c0.123,0.312,0.186,0.659,0.186,1.039v0.023c0,0.71-0.192,1.28-0.575,1.713
		s-0.881,0.735-1.491,0.908l2.338,3.281h-1.793l-2.128-3.019h-0.025h-1.88v3.019h-1.521V28.937z M172.723,33.216
		c0.545,0,0.978-0.128,1.299-0.385c0.321-0.258,0.483-0.608,0.483-1.05v-0.024c0-0.466-0.156-0.82-0.47-1.061
		c-0.315-0.241-0.755-0.362-1.324-0.362h-2.215v2.882H172.723z"/>
	<path fill="#FFFFFF" d="M182.371,28.937h6.421v1.36h-4.898v2.252h4.342v1.36h-4.342v2.326h4.96v1.36h-6.482V28.937z"/>
</g>
</svg>
