<?xml version="1.0" encoding="utf-8"?>
<!-- Generator: Adobe Illustrator 15.1.0, SVG Export Plug-In . SVG Version: 6.00 Build 0)  -->
<!DOCTYPE svg PUBLIC "-//W3C//DTD SVG 1.1//EN" "http://www.w3.org/Graphics/SVG/1.1/DTD/svg11.dtd">
<svg version="1.1" id="Layer_1" xmlns="http://www.w3.org/2000/svg" xmlns:xlink="http://www.w3.org/1999/xlink" x="0px" y="0px"
	 width="12.508px" height="39px" viewBox="13.246 0 12.508 39" enable-background="new 13.246 0 12.508 39" xml:space="preserve">
<path d="M22.473,37.184c-0.119-0.813-0.559-1.428-1.084-1.428H17.61c-0.523,0-0.962,0.609-1.083,1.428c-0.011,0-0.023,0-0.037,0
	v0.449V39h6.018l0.002-1.367l-0.002-0.449C22.497,37.184,22.484,37.184,22.473,37.184z"/>
<path d="M21.771,24.562l-4.542-0.002c-0.742,0.002-1.346,0.687-1.346,1.529v7.404c0,0.846,0.603,1.529,1.346,1.529l4.542-0.002
	c0.742,0.002,1.346-0.685,1.346-1.527V26.09C23.116,25.246,22.514,24.561,21.771,24.562z M17.013,32.889
	c0,0.076-0.116,0.139-0.259,0.139c-0.146,0-0.264-0.062-0.263-0.139l-0.001-6.373c0-0.076,0.119-0.141,0.264-0.141
	c0.143,0,0.259,0.064,0.259,0.141V32.889z M18.319,32.889c0,0.076-0.117,0.139-0.261,0.139c-0.145,0-0.261-0.062-0.262-0.139
	l0.001-6.373c0-0.078,0.117-0.141,0.261-0.141c0.145,0,0.261,0.064,0.261,0.141V32.889z M19.714,32.889
	c0,0.076-0.117,0.139-0.262,0.139c-0.146,0-0.262-0.062-0.262-0.139v-6.373c0-0.076,0.117-0.141,0.262-0.141
	s0.262,0.064,0.262,0.141V32.889z M21.105,32.889c0,0.076-0.117,0.139-0.262,0.139c-0.146,0-0.262-0.062-0.262-0.139v-6.373
	c0-0.076,0.116-0.141,0.262-0.141c0.145,0,0.262,0.064,0.262,0.141V32.889z M22.499,32.889c0,0.076-0.118,0.139-0.261,0.139
	c-0.146,0-0.264-0.062-0.264-0.139l0.002-6.373c0-0.076,0.116-0.141,0.262-0.141c0.145,0,0.261,0.064,0.261,0.141V32.889z"/>
<path d="M19.475,0c-1.671,9.061-10.88,10.336-3.234,24.002c0.364-0.326,0.821-0.518,1.286-0.518h4.542
	c0.887,0.07,1.346,0.436,1.461,0.762C29.559,9.248,21.66,8.745,19.475,0z M17.123,6.805c-2.249,5.298-3.249,8.799-0.581,15.023
	C14.125,18.058,12.285,13.924,17.123,6.805z M18.052,22.012c1.615-6.025-1.93-7.039-1.076-12.8
	C16.583,14.161,20.293,17.141,18.052,22.012z M19.503,21.977c2.526-5.681-4.134-12.818,0.332-18.648
	C17.491,8.723,23.628,15.922,19.503,21.977z M22.339,18.298c1.616-6.026-2.255-8.056-1.399-13.82
	C20.544,9.429,24.58,13.426,22.339,18.298z M23.123,21.828c1.369-4.442,2.479-9.738-1.501-16.428
	C26.872,13.16,25.062,18.391,23.123,21.828z"/>
</svg>
