<?xml version="1.0" encoding="utf-8"?>
<!-- Generator: Adobe Illustrator 15.1.0, SVG Export Plug-In . SVG Version: 6.00 Build 0)  -->
<!DOCTYPE svg PUBLIC "-//W3C//DTD SVG 1.1//EN" "http://www.w3.org/Graphics/SVG/1.1/DTD/svg11.dtd">
<svg version="1.1" id="Layer_1" xmlns="http://www.w3.org/2000/svg" xmlns:xlink="http://www.w3.org/1999/xlink" x="0px" y="0px"
	 width="39px" height="39px" viewBox="0 0 39 39" enable-background="new 0 0 39 39" xml:space="preserve">
<path d="M7.63,31.797c2.24-0.004,4.054-2.316,4.054-5.17c0-2.854-0.437-5.168-4.054-5.172c-3.615,0.004-4.053,2.317-4.053,5.172
	C3.577,29.479,5.392,31.793,7.63,31.797L7.63,31.797z M31.372,31.797c2.237-0.004,4.053-2.316,4.053-5.17
	c0-2.854-0.438-5.172-4.053-5.172c-3.617,0-4.056,2.317-4.056,5.172C27.316,29.479,29.131,31.793,31.372,31.797L31.372,31.797z
	 M19.5,27.217c1.527,0,2.766,1.309,2.766,2.922s-1.238,2.92-2.766,2.92c-1.527,0-2.764-1.307-2.764-2.92S17.973,27.217,19.5,27.217
	L19.5,27.217z M18.208,26.604V23.56h-5.824c-0.521-0.028-0.633-0.535-0.391-1.317c0.776-2.942,2.211-5.333,4.009-6.704
	c1.914,2.362,5.084,2.362,6.996,0c1.799,1.37,3.234,3.761,4.012,6.704c0.24,0.782,0.127,1.289-0.394,1.317h-5.825v3.045
	c-0.398-0.166-0.835-0.254-1.291-0.254S18.609,26.438,18.208,26.604L18.208,26.604z M17.246,33.082l-3.083,1.881
	c0.39,0.836,0.719,1.748,0.976,2.721c0.241,0.783,0.127,1.289-0.393,1.316H0.512c-0.519-0.027-0.633-0.533-0.391-1.316
	c0.778-2.943,2.212-5.334,4.01-6.705c1.913,2.363,5.083,2.363,6.995,0c0.597,0.455,1.154,1.023,1.661,1.686l3.171-1.936
	C16.098,31.676,16.572,32.506,17.246,33.082L17.246,33.082z M23.041,30.728l3.113,1.899c0.521-0.696,1.099-1.291,1.719-1.764
	c1.913,2.36,5.083,2.36,6.994,0c1.799,1.368,3.234,3.762,4.012,6.702c0.241,0.783,0.128,1.289-0.393,1.318H24.253
	c-0.521-0.029-0.635-0.535-0.392-1.318c0.248-0.938,0.562-1.817,0.935-2.631l-3.042-1.854C22.427,32.506,22.9,31.676,23.041,30.728
	L23.041,30.728z M19.5,16.355c2.24-0.002,4.053-2.316,4.053-5.17s-0.437-5.167-4.053-5.17c-3.616,0.004-4.054,2.317-4.054,5.17
	C15.446,14.04,17.26,16.354,19.5,16.355L19.5,16.355z"/>
</svg>
