<?xml version="1.0" encoding="utf-8"?>
<!-- Generator: Adobe Illustrator 15.1.0, SVG Export Plug-In . SVG Version: 6.00 Build 0)  -->
<!DOCTYPE svg PUBLIC "-//W3C//DTD SVG 1.1//EN" "http://www.w3.org/Graphics/SVG/1.1/DTD/svg11.dtd">
<svg version="1.1" id="Layer_1" xmlns="http://www.w3.org/2000/svg" xmlns:xlink="http://www.w3.org/1999/xlink" x="0px" y="0px"
	 width="39px" height="39px" viewBox="0 0 39 39" enable-background="new 0 0 39 39" xml:space="preserve">
<g>
	<path d="M23.617,31.561c0-3.006,5.241-6.533,5.241-12.671c0-4.76-4.368-8.502-9.883-8.618v-0.005c-0.044,0-0.087,0.002-0.13,0.002
		c-0.044,0-0.087-0.002-0.131-0.002v0.005c-5.516,0.116-9.885,3.858-9.885,8.618c0,6.138,5.241,9.667,5.241,12.671
		c-0.004,0.002,0,1.371,0,1.371h0.004v3.061c0,0,1.036,1.045,2.087,1.896C17.212,38.736,18.088,39,18.816,39h0.061
		c0.729,0,1.604-0.266,2.655-1.115c1.049-0.85,2.085-1.895,2.085-1.895v-3.381h-0.001C23.614,32.204,23.612,31.561,23.617,31.561z
		 M10.484,18.821c0-5.945,6.35-7.072,8.425-7.118c0.022,0,0.045,0,0.066,0s0.044,0,0.067,0c2.075,0.046,8.422,1.173,8.422,7.119
		c0,6.01-5.105,8.492-5.105,12.672h-2.029l1.502-7.592c1.021-0.018,2.085-0.502,2.085-1.547c0-0.441-0.291-1.101-1.089-1.101
		c-1.025,0-1.446,1.078-1.555,1.822c-0.506-0.138-1.213-0.452-1.91-0.979c0.177-0.168,0.425-0.35,0.604-0.541
		c0.646-0.783,0.464-1.723,0.298-2.021c-0.263-0.47-0.884-0.798-1.397-0.798c-0.515,0-1.136,0.328-1.397,0.798
		c-0.166,0.3-0.349,1.238,0.31,2.035c0.175,0.188,0.418,0.365,0.589,0.527c-0.698,0.529-1.403,0.846-1.908,0.98
		c-0.112-0.764-0.535-1.823-1.554-1.823c-0.798,0-1.088,0.657-1.088,1.101c0,1.045,1.064,1.529,2.084,1.547l1.504,7.592h-1.946
		C15.458,27.836,10.484,25.158,10.484,18.821z M17.747,31.494l-1.197-7.67c0.642-0.158,1.495-0.646,2.315-1.293
		c0.818,0.646,1.673,1.135,2.317,1.293l-1.198,7.67H17.747z M18.379,21.172c-0.287-0.379-0.36-0.734-0.212-1.025
		c0.147-0.289,0.47-0.441,0.698-0.441c0.229,0,0.552,0.154,0.699,0.441c0.147,0.291,0.074,0.646-0.2,1.013
		c-0.161,0.188-0.328,0.36-0.5,0.521C18.698,21.523,18.536,21.355,18.379,21.172z M21.927,23.156
		c0.068-0.393,0.288-1.256,0.898-1.256c0.384,0,0.432,0.318,0.436,0.455C23.261,23.01,22.379,23.135,21.927,23.156z M15.804,23.156
		c-0.454-0.021-1.334-0.146-1.334-0.801c0-0.075,0.021-0.455,0.435-0.455C15.511,21.9,15.733,22.748,15.804,23.156z M19.273,37.707
		v0.006c-0.03,0-0.83,0-0.86,0v-0.006c-0.63-0.078-1.689-1.035-1.689-1.035h4.24C20.963,36.672,19.903,37.629,19.273,37.707z
		 M22.063,35.663h-6.408v-0.925h6.408V35.663z M22.063,33.773h-6.408V32.85h6.408V33.773z"/>
	<path d="M4.699,16.926c-0.074,0-0.148-0.01-0.224-0.031l-3.876-1.074c-0.438-0.121-0.692-0.569-0.569-1
		c0.123-0.431,0.579-0.683,1.016-0.56l3.876,1.075c0.438,0.121,0.692,0.568,0.569,1C5.389,16.692,5.058,16.926,4.699,16.926z"/>
	<path d="M33.726,15.252c-0.406,0-0.761-0.297-0.813-0.705c-0.06-0.444,0.259-0.851,0.71-0.909l4.447-0.575
		c0.445-0.055,0.863,0.254,0.924,0.699c0.061,0.444-0.26,0.851-0.709,0.909l-4.448,0.575C33.798,15.25,33.763,15.252,33.726,15.252z
		"/>
	<path d="M35.675,26.451c-0.099,0-0.197-0.018-0.296-0.055l-3.466-1.312c-0.426-0.161-0.637-0.631-0.473-1.049
		c0.162-0.416,0.641-0.625,1.062-0.465l3.468,1.312c0.424,0.16,0.637,0.631,0.473,1.049C36.317,26.254,36.006,26.451,35.675,26.451z
		"/>
	<path d="M2.268,27.35c-0.345,0-0.665-0.214-0.781-0.553c-0.144-0.424,0.088-0.884,0.52-1.025l3.59-1.187
		c0.432-0.142,0.897,0.086,1.043,0.511c0.144,0.424-0.088,0.885-0.52,1.026l-3.59,1.187C2.443,27.336,2.355,27.35,2.268,27.35z"/>
	<path d="M19.391,5.994c-0.448,0-0.815-0.354-0.822-0.797l-0.073-4.373C18.489,0.376,18.851,0.007,19.305,0
		c0.455-0.007,0.829,0.35,0.836,0.797l0.072,4.373c0.008,0.447-0.355,0.816-0.81,0.824C19.401,5.994,19.396,5.994,19.391,5.994z"/>
	<path d="M28.687,8.892c-0.188,0-0.377-0.062-0.529-0.191c-0.35-0.289-0.393-0.8-0.1-1.142l2.705-3.157
		c0.293-0.341,0.812-0.385,1.159-0.096c0.347,0.289,0.392,0.8,0.099,1.142l-2.705,3.156C29.153,8.794,28.92,8.892,28.687,8.892z"/>
	<path d="M9.59,8.685c-0.236,0-0.472-0.101-0.635-0.294L6.362,5.296c-0.29-0.345-0.24-0.856,0.11-1.141
		C6.824,3.87,7.341,3.92,7.63,4.264l2.595,3.094c0.289,0.345,0.24,0.855-0.11,1.141C9.961,8.624,9.775,8.685,9.59,8.685z"/>
</g>
</svg>
