<?xml version="1.0" encoding="utf-8"?>
<!-- Generator: Adobe Illustrator 15.1.0, SVG Export Plug-In . SVG Version: 6.00 Build 0)  -->
<!DOCTYPE svg PUBLIC "-//W3C//DTD SVG 1.1//EN" "http://www.w3.org/Graphics/SVG/1.1/DTD/svg11.dtd">
<svg version="1.1" id="Layer_1" xmlns="http://www.w3.org/2000/svg" xmlns:xlink="http://www.w3.org/1999/xlink" x="0px" y="0px"
	 width="31.767px" height="39px" viewBox="3.618 0 31.767 39" enable-background="new 3.618 0 31.767 39" xml:space="preserve">
<path d="M21.075,0C13.62,0,7.5,5.701,6.829,12.98l-3.07,5.925c-0.293,0.567-0.132,1.264,0.381,1.644l2.625,1.941v6.201
	c0,0.613,0.497,1.104,1.109,1.104h6.255v8.451c0,0.528,0.536,0.896,1.029,0.692l12.412,0.014c0.619-0.25,1.027-0.854,1.027-1.521
	V26.482c4.072-2.522,6.787-7.031,6.787-12.173C35.387,6.406,28.979,0,21.075,0z M29.259,16.558c-0.457,0.643-1.043,1.229-1.767,1.78
	c-1.948,0.953-3.229-1.295-3.229-1.295l1.739,4.542c0.049,0.127,0.043,0.269-0.015,0.39c-0.059,0.12-0.16,0.211-0.282,0.243
	l-0.298,0.08c-0.332,0.088-0.682-0.073-0.85-0.396l-1.937-3.728c-1.12-0.359-1.681-1.263-1.886-2.385
	c-0.004-0.019-0.008-0.038-0.012-0.058c-0.007,0.02-0.016,0.039-0.022,0.058c-0.563,1.491-3.322,1.472-4.209,0
	c-0.208-0.343-0.313-0.767-0.264-1.267c-0.011,0-0.024-0.006-0.033,0c-2.964,1.953-5.783-2.256-3.312-5.958
	c1.664-2.496,4.866-4.241,8.373-4.241c5.077,0,9.191,3.68,9.191,8.218C30.451,14.137,30.057,15.435,29.259,16.558z"/>
</svg>
