<?xml version="1.0" encoding="utf-8"?>
<!-- Generator: Adobe Illustrator 15.1.0, SVG Export Plug-In . SVG Version: 6.00 Build 0)  -->
<!DOCTYPE svg PUBLIC "-//W3C//DTD SVG 1.1//EN" "http://www.w3.org/Graphics/SVG/1.1/DTD/svg11.dtd">
<svg version="1.1" id="Layer_1" xmlns="http://www.w3.org/2000/svg" xmlns:xlink="http://www.w3.org/1999/xlink" x="0px" y="0px"
	 width="38.52px" height="39px" viewBox="0 0 38.52 39" enable-background="new 0 0 38.52 39" xml:space="preserve">
<path d="M12.091,26.782c-1.05-1.05-1.91-2.212-2.585-3.454l-8.591,8.594c-1.154,1.151-1.226,2.945-0.158,4.01l2.311,2.315
	c1.067,1.062,2.863,0.993,4.012-0.161l8.625-8.625C14.403,28.771,13.185,27.877,12.091,26.782z"/>
<path d="M34.084,4.438c-5.916-5.918-15.502-5.918-21.417,0c-5.918,5.916-5.918,15.504,0,21.419c5.914,5.916,15.5,5.916,21.417,0
	C39.997,19.944,39.997,10.353,34.084,4.438z M30.45,22.227c-3.899,3.901-10.253,3.901-14.155,0c-3.903-3.904-3.903-10.255,0-14.159
	c3.905-3.903,10.255-3.903,14.158,0C34.354,11.971,34.354,18.322,30.45,22.227z"/>
</svg>
