<?xml version="1.0" encoding="utf-8"?>
<!-- Generator: Adobe Illustrator 15.1.0, SVG Export Plug-In . SVG Version: 6.00 Build 0)  -->
<!DOCTYPE svg PUBLIC "-//W3C//DTD SVG 1.1//EN" "http://www.w3.org/Graphics/SVG/1.1/DTD/svg11.dtd">
<svg version="1.1" id="Layer_1" xmlns="http://www.w3.org/2000/svg" xmlns:xlink="http://www.w3.org/1999/xlink" x="0px" y="0px"
	 width="18.571px" height="39px" viewBox="10.215 0 18.571 39" enable-background="new 10.215 0 18.571 39" xml:space="preserve">
<path d="M19.5,0c-4.473,0-9.285,3.803-9.285,12.154v6.931c0,3.269,2.658,5.926,5.925,5.926h2.133v2.462
	c0,0.194-0.35,0.493-0.876,0.493h-2.1c-1.089,0-2.038,0.502-2.671,1.414c-0.499,0.72-0.773,1.66-0.773,2.649
	c0,2.355,1.449,4.068,3.444,4.068h2.102H17.4c0.273,0,0.531,0.082,0.707,0.228c0.05,0.041,0.167,0.147,0.167,0.266V39h2.451v-2.408
	c0-0.82-0.389-1.607-1.064-2.162c-0.614-0.504-1.418-0.783-2.258-0.783c-0.001,0-0.002,0-0.003,0h-2.102
	c-0.786,0-0.993-1.055-0.993-1.612c0-0.488,0.123-0.945,0.336-1.257c0.222-0.315,0.468-0.356,0.657-0.356h2.101
	c1.834,0,3.327-1.319,3.327-2.942v-2.461h2.135c3.27,0,5.927-2.658,5.927-5.929v-6.931C28.784,3.803,23.973,0,19.5,0z
	 M12.667,19.085v-3.052h5.606v2.092c0,0.001,0,0.001,0,0.001v2.338c0,0.001,0,0.001,0,0.001v2.094H16.14
	C14.224,22.561,12.667,21.002,12.667,19.085z M22.857,22.561h-2.135v-2.095v-2.338v-2.094h5.609v3.052
	C26.334,21.002,24.773,22.561,22.857,22.561z"/>
</svg>
