<?xml version="1.0" encoding="utf-8"?>
<!-- Generator: Adobe Illustrator 15.1.0, SVG Export Plug-In . SVG Version: 6.00 Build 0)  -->
<!DOCTYPE svg PUBLIC "-//W3C//DTD SVG 1.1//EN" "http://www.w3.org/Graphics/SVG/1.1/DTD/svg11.dtd">
<svg version="1.1" id="Layer_1" xmlns="http://www.w3.org/2000/svg" xmlns:xlink="http://www.w3.org/1999/xlink" x="0px" y="0px"
	 width="17.511px" height="39px" viewBox="10.745 0 17.511 39" enable-background="new 10.745 0 17.511 39" xml:space="preserve">
<g>
	<path d="M19.477,0c-0.707,0.012-1.104,0.845-1.104,0.845l-1.862,3.574h5.977L20.62,0.834C20.617,0.834,20.244-0.013,19.477,0z"/>
	<path d="M24.091,15.25c-0.685,0.518-0.958,1.335-0.958,1.335s-1.006-2.295-3.535-2.276c-2.646,0.019-3.689,2.431-3.689,2.431
		s-0.293-1.056-1.233-1.666c-0.938-0.608-2.022-0.63-2.022-0.63l4.201-7.759h5.389l3.988,7.74
		C26.23,14.426,25.188,14.422,24.091,15.25z M28.256,39V15.471L22.893,5.193h-6.787l-5.361,10.278V39h2.521L13.19,20.98
		c-0.008-1.263,0.664-2.281,1.492-2.288c0.828-0.005,1.511,1.014,1.513,2.27L16.271,39h1.735L17.93,20.958
		c-0.012-1.256,0.664-2.276,1.492-2.282c0.828-0.004,1.508,1.013,1.516,2.27L21.016,39h1.729l-0.08-18.062
		c-0.004-1.26,0.664-2.276,1.492-2.284c0.831-0.004,1.51,1.014,1.514,2.271L25.748,39H28.256z"/>
</g>
</svg>
