<?xml version="1.0" encoding="utf-8"?>
<!-- Generator: Adobe Illustrator 15.1.0, SVG Export Plug-In . SVG Version: 6.00 Build 0)  -->
<!DOCTYPE svg PUBLIC "-//W3C//DTD SVG 1.1//EN" "http://www.w3.org/Graphics/SVG/1.1/DTD/svg11.dtd">
<svg version="1.1" id="Layer_1" xmlns="http://www.w3.org/2000/svg" xmlns:xlink="http://www.w3.org/1999/xlink" x="0px" y="0px"
	 width="595px" height="350px" viewBox="-5928 0 595 350" enable-background="new -5928 0 595 350" xml:space="preserve">
<g>
	<path fill="#7F7D7E" d="M-5754.285,216.709c-1.145-2.767,2.364-7.5,3.212-8.39c1.165-1.212,1.542-1.481,2.572-2.087
		c0.802-0.443,2.061-0.977,3.083-0.532c0.815,0.458,0.835,1.61,0.648,2.554c-0.297,1.171-0.371,1.406-0.795,2.712
		c-0.545,1.69-0.64,2.345-0.128,2.923c0.807,0.768,3.603,1.212,5.763,1.581c2.229,0.371,2.491,0.411,3.779,0.695
		c0.969,0.222,1.763,0.39,1.763,1.515c0,1.131-1.333,1.307-2.416,1.487c-1.348,0.196-2.338,0.216-4.573,0.196
		C-5744.346,219.343-5753.355,218.964-5754.285,216.709"/>
	<path fill="#7F7D7E" d="M-5736.831,226.198c-0.384,0.079-0.754,0.094-1.179,0.106c-1.17,0.015-1.804-0.027-4.391-0.121
		c-0.174-0.008-0.363-0.013-0.532-0.021v16.699h7.657v-17.487C-5735.6,225.834-5736.272,226.097-5736.831,226.198"/>
	<path fill="#7F7D7E" d="M-5775.636,209.499c0.526-0.148,1.239-0.142,1.826-0.148c0.997,0.014,1.642,0.047,3.851,0.176
		c0.674,0.012,1.34,0.026,1.986,0.032v-5.932h-7.663v5.885V209.499"/>
	<path fill="#7F7D7E" d="M-5742.933,213.767c0.983,0.21,2.055,0.392,3.01,0.546c2.228,0.378,2.538,0.431,3.825,0.715
		c0.302,0.067,0.579,0.135,0.821,0.229v-4.761l5.964-0.006c5.906,0,8.046,1.951,8.046,5.654c0,3.482-2.43,5.273-8.046,5.273h-2.032
		v6.221l9.858,15.225h8.853l-9.904-15.251c6.308-1.792,8.974-6.714,8.974-12.222c0-9.089-7.238-11.763-13.667-11.763h-15.703
		C-5742.933,203.627-5742.933,211.977-5742.933,213.767"/>
	<path fill="#7F7D7E" d="M-5767.973,222.015c-0.869-0.127-1.892-0.242-2.983-0.377c-2.006-0.235-3.636-0.443-4.68-0.619v21.844
		h24.449v-7.011h-16.786V222.015"/>
	<path fill="#7F7D7E" d="M-5758.304,218.285c1.171,1.826,0.364,4.687-1.476,7.777c-0.753,1.238-1.434,2.108-2.303,3.011
		c-1.016,0.954-2.402,1.918-3.669,1.299c-0.842-0.547-0.39-2.182-0.073-3.381c0.181-0.653,0.329-1.07,0.505-1.765
		c0.396-1.697,0.781-3.056-0.29-3.757c-0.72-0.464-2.861-0.674-5.346-0.977c-2.147-0.248-3.845-0.479-4.875-0.657
		c-1.212-0.225-2.235-0.466-2.343-1.464c-0.114-1.312,1.758-1.582,2.707-1.748c1.522-0.243,2.586-0.305,4.188-0.379
		C-5765.839,216.139-5759.645,216.198-5758.304,218.285"/>
	<path fill="#7F7D7E" d="M-5754.13,220.252c2.127-0.889,9.427,0.209,12.605,0.841c2.289,0.498,2.465,0.6,3.851,1.058
		c0.991,0.412,2.082,0.97,1.879,1.912c-0.229,0.943-1.151,1.062-2.215,1.098c-1.17,0.013-1.804-0.027-4.391-0.122
		c-3.063-0.134-5.944-0.242-7.446,0.553c-1.205,0.64-1.636,1.542-2.33,3.138c-0.492,1.348-0.694,1.946-1.111,3.017
		c-0.236,0.58-0.64,1.777-1.792,2.007c-1.077,0.135-1.946-0.687-2.417-1.853c-0.444-1.076-0.641-1.979-0.667-3.951
		C-5758.109,224.783-5756.809,221.361-5754.13,220.252"/>
	<path fill="#7F7D7E" d="M-5774.867,213.459c-0.91-0.35-1.832-0.871-1.549-1.94c0.289-1.011,1.616-1.011,2.606-1.023
		c0.997,0.013,1.642,0.047,3.851,0.176c3.306,0.072,6.363,0.214,7.946-1.375c0.928-1.002,1.096-2.396,1.346-3.587
		c0.141-0.763,0.189-1.023,0.343-1.792c0.122-0.572,0.283-2.02,1.421-2.163c1.077-0.152,2.121,0.647,2.963,1.982
		c0.639,1.165,0.963,1.937,1.226,3.271c0.356,2.14,0.545,5.418-1.475,7.029c-2.229,1.717-10.174,1.278-14.719,0.431
		C-5773.522,213.982-5774.107,213.741-5774.867,213.459"/>
	<path fill="#7F7D7E" d="M-5818.123,235.118v-2.168c0-1.339-0.25-2.269-0.755-2.781c-0.686-0.699-1.595-1.051-2.747-1.051
		c-1.548,0-2.322,0.654-2.322,1.955c0,0.384,0.074,0.826,0.229,1.331c0.067,0.21,0.107,0.392,0.121,0.553
		c0.014,0.208-0.102,0.317-0.351,0.317c-0.544,0-1.044-0.114-1.487-0.357c-0.452-0.229-0.674-0.485-0.674-0.768
		c0-0.727,0.391-1.508,1.178-2.352c1.05-1.129,2.458-1.694,4.201-1.694c1.596,0,2.835,0.35,3.717,1.062
		c0.875,0.709,1.312,1.705,1.312,2.998v6.888c0,1.084,0.134,1.864,0.397,2.323c0.27,0.465,0.708,0.7,1.327,0.7
		c0.182,0,0.323-0.014,0.425-0.034c0.215-0.047,0.357-0.074,0.423-0.074c0.203-0.015,0.296,0.074,0.283,0.243
		c-0.014,0.216-0.29,0.431-0.834,0.646c-0.54,0.216-1.064,0.322-1.583,0.322c-0.962,0-1.837-0.6-2.611-1.791
		c-1.704,1.286-3.274,1.933-4.727,1.933c-1.098,0-1.972-0.295-2.626-0.888c-0.647-0.593-0.977-1.388-0.977-2.384
		c0-1.354,0.62-2.397,1.844-3.146C-5823.126,236.162-5821.052,235.569-5818.123,235.118 M-5818.123,235.826
		c-1.818,0.161-3.226,0.573-4.214,1.23c-0.99,0.661-1.488,1.502-1.488,2.532c0,0.803,0.235,1.442,0.714,1.913
		c0.47,0.472,1.103,0.707,1.912,0.707c0.977,0,1.805-0.317,2.464-0.964c0.411-0.404,0.612-1.049,0.612-1.938V235.826z"/>
	<path fill="#7F7D7E" d="M-5806.312,230.897c1.57-1.866,3.199-2.794,4.889-2.794c1.878,0,3.359,0.767,4.449,2.309
		c0.755,1.051,1.131,2.659,1.131,4.822v4.216l-0.019,0.523l0.054,0.848c0.127,0.775,0.62,1.227,1.474,1.36l0.741,0.102
		c0.316,0.047,0.485,0.161,0.493,0.342c0.012,0.258-0.182,0.379-0.581,0.379c-0.127,0-0.356-0.021-0.68-0.062
		c-0.391-0.047-1.105-0.08-2.142-0.08l-1.737,0.053h-0.673l-0.505,0.033l-0.249-0.053c-0.08-0.047-0.122-0.134-0.122-0.271
		c0-0.181,0.108-0.295,0.317-0.342l0.532-0.142c0.465-0.114,0.7-0.54,0.7-1.259v-6.067c0-1.628-0.377-2.888-1.131-3.77
		c-0.748-0.883-1.817-1.328-3.205-1.328c-0.977,0-1.844,0.29-2.599,0.862c-0.761,0.58-1.138,1.232-1.138,1.973v6.714l0.013,0.533
		l0.02,0.88c0.055,0.983,0.876,1.529,2.445,1.616c0.392,0.041,0.58,0.168,0.58,0.384s-0.135,0.324-0.404,0.324
		c-0.197,0-0.499-0.034-0.895-0.102c-0.223-0.027-0.775-0.04-1.658-0.04c-1.865,0-2.975,0.033-3.339,0.08
		c-0.363,0.04-0.6,0.062-0.708,0.062c-0.222,0-0.33-0.094-0.315-0.29c0.012-0.148,0.127-0.257,0.336-0.344
		c0.6-0.208,0.995-0.464,1.206-0.769c0.201-0.308,0.31-0.801,0.31-1.479v-7.938c0-0.835-0.101-1.4-0.303-1.697
		c-0.202-0.303-0.573-0.451-1.125-0.451l-0.754,0.02c-0.107,0-0.202-0.027-0.283-0.074c-0.108-0.047-0.162-0.134-0.162-0.248
		c0-0.169,0.155-0.29,0.458-0.345c0.789-0.141,1.542-0.384,2.27-0.719l0.937-0.466c0.362-0.176,0.592-0.282,0.686-0.329
		c0.162-0.095,0.304-0.142,0.418-0.142c0.216,0,0.309,0.168,0.282,0.513c-0.006,0.188-0.013,0.402-0.013,0.667V230.897"/>
	<path fill="#7F7D7E" d="M-5679.188,220.885l0.565,4.229l0.047,0.437l-0.047,0.177c-0.061,0.107-0.147,0.161-0.262,0.174
		c-0.142,0.013-0.357-0.235-0.64-0.74c-2.195-3.832-5.17-5.75-8.928-5.75c-2.996,0-5.353,0.922-7.077,2.753
		c-1.724,1.839-2.593,4.357-2.593,7.542c0,3.663,0.963,6.657,2.882,8.982c1.918,2.329,4.39,3.494,7.405,3.494
		c1.765,0,3.495-0.479,5.199-1.415c1.697-0.94,2.881-2.087,3.534-3.426c0.303-0.619,0.54-0.941,0.708-0.951
		c0.188-0.013,0.275,0.102,0.275,0.337l-0.012,0.19l-0.069,0.39l-0.411,2.161l-0.067,0.317c-0.047,0.302-0.324,0.619-0.829,0.949
		c-2.707,1.723-5.696,2.592-8.955,2.592c-3.777,0-6.821-1.123-9.13-3.365c-2.309-2.236-3.467-5.186-3.467-8.843
		c0-3.655,1.198-6.699,3.589-9.116c2.39-2.424,5.393-3.63,9.009-3.63c2.471,0,4.747,0.553,6.827,1.67l0.701,0.371l0.283,0.12
		l0.303,0.108c0.053,0,0.142-0.047,0.254-0.141c0.264-0.188,0.438-0.283,0.533-0.283
		C-5679.369,220.218-5679.248,220.44-5679.188,220.885"/>
	<path fill="#7F7D7E" d="M-5667.789,228.104c2.115,0,3.926,0.739,5.44,2.222c1.509,1.481,2.269,3.244,2.269,5.299
		c0,2.221-0.747,4.06-2.235,5.514c-1.487,1.455-3.374,2.182-5.649,2.182c-2.228,0-4.06-0.707-5.493-2.121
		c-1.441-1.406-2.155-3.218-2.155-5.419c0-2.136,0.761-3.945,2.283-5.441C-5671.802,228.851-5669.958,228.104-5667.789,228.104
		 M-5668.233,228.803c-1.467,0-2.646,0.54-3.542,1.629c-0.895,1.085-1.347,2.506-1.347,4.27c0,2.236,0.565,4.107,1.684,5.622
		c1.118,1.503,2.505,2.255,4.168,2.255c1.455,0,2.599-0.53,3.434-1.604c0.835-1.062,1.259-2.511,1.259-4.342
		c0-2.308-0.526-4.194-1.583-5.648C-5665.216,229.529-5666.569,228.803-5668.233,228.803z"/>
	<path fill="#7F7D7E" d="M-5652.619,230.472c1.314-1.582,2.862-2.368,4.646-2.368c1.03,0,1.873,0.194,2.532,0.593
		c0.653,0.404,1.267,1.076,1.844,2.038c1.347-1.756,2.957-2.631,4.822-2.631c1.597,0,2.835,0.504,3.724,1.515
		c0.889,1.015,1.327,2.437,1.327,4.256v5.661c0,0.909,0.181,1.576,0.532,2.007c0.349,0.432,0.929,0.694,1.744,0.773
		c0.275,0.027,0.417,0.156,0.417,0.379c0,0.208-0.134,0.31-0.417,0.31c-0.128,0-0.31-0.021-0.546-0.056
		c-0.37-0.053-0.956-0.086-1.757-0.086c-1.554,0-2.524,0.025-2.909,0.08c-0.255,0.04-0.431,0.062-0.525,0.062
		c-0.31,0-0.464-0.116-0.477-0.344c-0.007-0.135,0.087-0.243,0.303-0.323c0.511-0.202,0.854-0.398,1.01-0.587
		c0.154-0.188,0.234-0.49,0.234-0.914l0.021-0.595v-5.755c0-1.584-0.337-2.815-1.011-3.698c-0.673-0.882-1.616-1.318-2.821-1.318
		c-0.794,0-1.555,0.248-2.283,0.741c-0.72,0.498-1.084,1.016-1.084,1.568c0,0.114,0.021,0.261,0.055,0.437
		c0.068,0.426,0.108,0.83,0.108,1.22v6.364c0,0.888,0.147,1.514,0.444,1.863c0.303,0.357,0.868,0.567,1.703,0.64
		c0.384,0.034,0.578,0.161,0.578,0.385c0,0.215-0.174,0.316-0.51,0.316c-0.122,0-0.31-0.015-0.566-0.034
		c-0.647-0.067-1.199-0.107-1.657-0.107c-1.617,0-2.633,0.033-3.057,0.086c-0.222,0.034-0.404,0.056-0.545,0.056
		c-0.283,0-0.424-0.102-0.424-0.31c0-0.136,0.108-0.23,0.316-0.303c0.62-0.223,0.99-0.445,1.112-0.661
		c0.114-0.223,0.174-0.788,0.174-1.716v-6.52c0-1.232-0.316-2.201-0.956-2.907c-0.64-0.709-1.515-1.065-2.64-1.065
		c-1.03,0-1.865,0.27-2.504,0.795c-0.64,0.533-0.957,1.232-0.957,2.095v7.549c0,0.766,0.169,1.316,0.499,1.668
		c0.336,0.35,0.901,0.58,1.703,0.674c0.364,0.034,0.546,0.169,0.546,0.392c0,0.216-0.142,0.315-0.425,0.31
		c-0.168-0.015-0.444-0.04-0.848-0.089c-0.25-0.032-0.735-0.053-1.462-0.053h-1.184l-1.199,0.021c-0.168,0-0.37,0.013-0.62,0.04
		c-0.303,0.041-0.525,0.066-0.652,0.081c-0.297,0.006-0.438-0.094-0.438-0.31c0-0.183,0.129-0.312,0.384-0.392
		c0.544-0.168,0.889-0.377,1.037-0.64c0.155-0.257,0.229-0.753,0.229-1.507v-7.873c0-0.841-0.088-1.421-0.27-1.735
		c-0.181-0.319-0.517-0.48-1.009-0.48h-0.782c-0.114,0-0.214-0.027-0.295-0.087c-0.068-0.04-0.102-0.102-0.102-0.183
		c0-0.161,0.141-0.275,0.423-0.362c1.212-0.317,2.337-0.767,3.367-1.354c0.458-0.257,0.741-0.382,0.835-0.382
		c0.175,0,0.262,0.213,0.262,0.645V230.472"/>
	<path fill="#7F7D7E" d="M-5625.309,230.701c1.737-1.729,3.46-2.598,5.171-2.598c1.758,0,3.225,0.658,4.403,1.979
		c1.186,1.326,1.771,2.977,1.771,4.956c0,2.288-0.713,4.234-2.148,5.857c-1.427,1.616-3.158,2.424-5.184,2.424
		c-1.139,0-2.479-0.35-4.014-1.036v3.534c0,1.294,0.183,2.148,0.546,2.58c0.363,0.424,1.083,0.64,2.161,0.64
		c0.364,0,0.545,0.126,0.545,0.376c0,0.209-0.162,0.311-0.49,0.311l-0.897-0.021l-1.676-0.034h-1.844l-0.741,0.015l-0.688,0.04
		l-0.82,0.02l-0.237-0.04c-0.1-0.047-0.154-0.142-0.154-0.29c0-0.188,0.154-0.316,0.458-0.376c0.539-0.102,0.909-0.359,1.118-0.749
		c0.202-0.391,0.31-1.036,0.31-1.938l-0.021-0.666v-13.138l-0.033-0.739c0-0.669-0.135-1.125-0.398-1.388
		c-0.262-0.256-0.747-0.384-1.454-0.384h-0.296c-0.107,0-0.188-0.013-0.249-0.035c-0.081-0.047-0.121-0.126-0.121-0.235
		c0-0.193,0.146-0.329,0.437-0.403c1.959-0.511,3.306-1.078,4.033-1.684c0.142-0.121,0.243-0.181,0.317-0.181
		c0.188,0,0.283,0.166,0.283,0.498l-0.021,0.33L-5625.309,230.701 M-5625.309,232.567v6.006c0,1.145,0.411,2.06,1.225,2.746
		c0.822,0.687,1.913,1.03,3.267,1.03c1.501,0,2.679-0.505,3.541-1.509c0.862-1.009,1.293-2.382,1.293-4.127
		c0-2.072-0.506-3.77-1.517-5.076c-1.001-1.308-2.301-1.952-3.897-1.952c-1.064,0-1.986,0.282-2.754,0.854
		C-5624.925,231.105-5625.309,231.779-5625.309,232.567z"/>
	<path fill="#7F7D7E" d="M-5603.089,235.118v-2.168c0-1.339-0.249-2.269-0.754-2.781c-0.687-0.699-1.595-1.051-2.746-1.051
		c-1.549,0-2.324,0.654-2.324,1.955c0,0.384,0.075,0.826,0.229,1.331c0.067,0.21,0.107,0.392,0.121,0.553
		c0.013,0.208-0.101,0.317-0.351,0.317c-0.545,0-1.043-0.114-1.488-0.357c-0.453-0.229-0.674-0.485-0.674-0.768
		c0-0.727,0.392-1.508,1.179-2.352c1.051-1.129,2.457-1.694,4.201-1.694c1.597,0,2.836,0.35,3.718,1.062
		c0.875,0.709,1.312,1.705,1.312,2.998v6.888c0,1.084,0.135,1.864,0.396,2.323c0.27,0.465,0.708,0.7,1.334,0.7
		c0.175,0,0.315-0.014,0.417-0.034c0.216-0.047,0.357-0.074,0.424-0.074c0.202-0.015,0.297,0.074,0.283,0.243
		c-0.013,0.216-0.288,0.431-0.835,0.646c-0.531,0.216-1.063,0.322-1.582,0.322c-0.963,0-1.838-0.6-2.612-1.791
		c-1.703,1.286-3.272,1.933-4.727,1.933c-1.098,0-1.973-0.295-2.626-0.888c-0.646-0.593-0.977-1.388-0.977-2.384
		c0-1.354,0.619-2.397,1.845-3.146C-5608.092,236.162-5606.018,235.569-5603.089,235.118 M-5603.089,235.826
		c-1.817,0.161-3.225,0.573-4.214,1.23c-0.99,0.661-1.488,1.502-1.488,2.532c0,0.803,0.234,1.442,0.714,1.913
		c0.471,0.472,1.104,0.707,1.913,0.707c0.975,0,1.803-0.317,2.463-0.964c0.41-0.404,0.612-1.049,0.612-1.938V235.826z"/>
	<path fill="#7F7D7E" d="M-5591.278,230.897c1.568-1.866,3.197-2.794,4.888-2.794c1.878,0,3.359,0.767,4.45,2.309
		c0.754,1.051,1.131,2.659,1.131,4.822v4.216l-0.02,0.523l0.053,0.848c0.128,0.775,0.62,1.227,1.475,1.36l0.741,0.102
		c0.316,0.047,0.478,0.161,0.491,0.342c0.014,0.258-0.182,0.379-0.579,0.379c-0.128,0-0.358-0.021-0.688-0.062
		c-0.383-0.047-1.097-0.08-2.14-0.08l-1.737,0.053h-0.667l-0.505,0.033l-0.25-0.053c-0.081-0.047-0.12-0.134-0.12-0.271
		c0-0.181,0.107-0.295,0.316-0.342l0.525-0.142c0.471-0.114,0.708-0.54,0.708-1.259v-6.067c0-1.628-0.378-2.888-1.131-3.77
		c-0.749-0.883-1.819-1.328-3.207-1.328c-0.976,0-1.844,0.29-2.598,0.862c-0.761,0.58-1.138,1.232-1.138,1.973v6.714l0.013,0.533
		l0.02,0.88c0.055,0.983,0.868,1.529,2.445,1.616c0.391,0.041,0.579,0.168,0.579,0.384s-0.135,0.324-0.404,0.324
		c-0.195,0-0.499-0.034-0.895-0.102c-0.222-0.027-0.775-0.04-1.657-0.04c-1.865,0-2.976,0.033-3.341,0.08
		c-0.363,0.04-0.598,0.062-0.707,0.062c-0.222,0-0.331-0.094-0.316-0.29c0.014-0.148,0.128-0.257,0.336-0.344
		c0.6-0.208,0.997-0.464,1.205-0.769c0.203-0.308,0.31-0.801,0.31-1.479v-7.938c0-0.835-0.1-1.4-0.302-1.697
		c-0.202-0.303-0.573-0.451-1.124-0.451l-0.754,0.02c-0.108,0-0.202-0.027-0.283-0.074c-0.109-0.047-0.162-0.134-0.162-0.248
		c0-0.169,0.155-0.29,0.457-0.345c0.789-0.141,1.542-0.384,2.276-0.719l0.93-0.466c0.364-0.176,0.586-0.282,0.687-0.329
		c0.162-0.095,0.302-0.142,0.424-0.142c0.209,0,0.303,0.168,0.276,0.513c-0.013,0.188-0.013,0.402-0.013,0.667V230.897"/>
	<path fill="#7F7D7E" d="M-5570.344,240.364l2.659-7.273c0.283-0.78,0.425-1.473,0.425-2.072c0-0.56-0.136-0.969-0.391-1.227
		c-0.256-0.248-0.754-0.464-1.495-0.64c-0.282-0.052-0.417-0.181-0.417-0.377c0-0.215,0.114-0.316,0.343-0.31
		c0.154,0.015,0.391,0.033,0.707,0.055c0.255,0.027,0.781,0.04,1.575,0.04c0.876,0,1.496-0.013,1.846-0.04
		c0.396-0.021,0.659-0.034,0.788-0.034c0.242,0,0.37,0.102,0.37,0.302c0,0.163-0.128,0.292-0.378,0.399
		c-0.451,0.174-0.78,0.376-0.969,0.6c-0.196,0.221-0.397,0.625-0.612,1.197l-6.228,17.56l-0.168,0.565
		c-0.101,0.304-0.21,0.479-0.337,0.527c-0.128,0.047-0.538,0.066-1.231,0.066c-0.802,0-1.199-0.081-1.199-0.25
		c0-0.092,0.068-0.216,0.209-0.344c0.814-0.809,1.527-1.775,2.139-2.9c0.613-1.133,0.924-2.033,0.924-2.716
		c0-0.35-0.223-1.049-0.667-2.093l-4.417-10.255c-0.296-0.68-0.551-1.15-0.78-1.408c-0.229-0.262-0.553-0.443-0.964-0.55
		c-0.255-0.069-0.384-0.176-0.384-0.325c0-0.248,0.168-0.376,0.504-0.376c0.25,0,0.559,0.013,0.929,0.054
		c0.283,0.035,0.876,0.055,1.778,0.055c1.098,0,1.872-0.02,2.316-0.055c0.29-0.02,0.498-0.041,0.633-0.041
		c0.309-0.006,0.471,0.108,0.471,0.352c0,0.2-0.317,0.35-0.949,0.443c-0.707,0.108-1.057,0.404-1.057,0.882
		c0,0.425,0.189,1.078,0.565,1.961L-5570.344,240.364"/>
	<polyline fill="#FFFFFF" points="-5577.253,85.653 -5495.808,85.653 -5536.314,183.476 -5577.253,85.653 	"/>
	<polygon fill="none" stroke="#231F20" stroke-width="0.8619" points="-5577.253,85.653 -5495.808,85.653 -5536.314,183.476 	"/>
	<path fill="#7F7D7E" d="M-5452.223,96.137c-2.922,0-5.246-2.316-5.246-5.226c0-2.915,2.323-5.238,5.246-5.238
		c2.902,0,5.218,2.323,5.218,5.238C-5447.005,93.821-5449.321,96.137-5452.223,96.137 M-5452.223,97.335
		c3.542,0,6.417-2.875,6.417-6.424c0-3.555-2.874-6.437-6.417-6.437c-3.575,0-6.437,2.881-6.437,6.437
		C-5458.66,94.46-5455.798,97.335-5452.223,97.335z M-5450.701,91.492c1.231-0.089,1.892-0.613,1.892-1.907
		c0-0.727-0.188-1.401-0.808-1.811c-0.525-0.303-1.299-0.318-1.892-0.318h-3.379v6.949h1.366v-2.914h1.367l1.555,2.914h1.582
		L-5450.701,91.492z M-5453.522,90.441v-1.994h1.69c0.673,0,1.676,0,1.676,0.936c0,0.888-0.545,1.07-1.32,1.058H-5453.522z"/>
	<path fill-rule="evenodd" clip-rule="evenodd" fill="#7F7D7E" d="M-5786.044,87.256l37.78,81.015h-8.699l-12.726-26.657h-34.912
		l-12.672,26.657h-9.03l38.279-81.015H-5786.044 M-5787.036,104.439l-13.938,29.357h27.708L-5787.036,104.439z"/>
	<path fill="#7F7D7E" d="M-5660.254,102.291l-6.39,4.902c-3.521-4.592-7.764-8.061-12.725-10.411
		c-4.916-2.389-10.33-3.574-16.242-3.581c-6.463,0-12.449,1.562-17.958,4.679c-5.508,3.084-9.783,7.259-12.833,12.503
		c-3.01,5.212-4.511,11.09-4.511,17.627c0,9.879,3.373,18.119,10.133,24.727c6.786,6.612,15.345,9.911,25.661,9.911
		c11.345,0,20.838-4.438,28.474-13.326l6.39,4.848c-4.04,5.138-9.09,9.125-15.143,11.951c-6.025,2.788-12.766,4.183-20.213,4.183
		c-14.173,0-25.357-4.714-33.545-14.153c-6.868-7.966-10.294-17.587-10.294-28.859c0-11.857,4.148-21.822,12.443-29.902
		c8.335-8.121,18.766-12.174,31.289-12.174c7.555,0,14.39,1.502,20.483,4.518C-5669.143,92.703-5664.146,96.891-5660.254,102.291"/>
	<polyline fill="#7F7D7E" points="-5652.046,95.127 -5652.046,87.256 -5607.606,87.256 -5607.606,95.127 -5625.673,95.127 
		-5625.673,168.271 -5633.927,168.271 -5633.927,95.127 -5652.046,95.127 	"/>
	<rect x="-5597.137" y="87.256" fill="#7F7D7E" width="8.093" height="81.015"/>
	<path fill-rule="evenodd" clip-rule="evenodd" fill="#7F7D7E" d="M-5471.945,87.256l37.78,81.015h-8.7l-12.726-26.657h-34.918
		l-12.665,26.657h-9.036l38.279-81.015H-5471.945 M-5472.934,104.439l-13.938,29.357h27.7L-5472.934,104.439z"/>
	<path fill="#7F7D7E" d="M-5582.094,83.257h91.385l-45.74,109.308L-5582.094,83.257 M-5571.955,87.256l35.505,83.627l36.259-83.627
		h-8.814l-27.317,62.62l-26.819-62.62H-5571.955z"/>
	<polyline fill="#7F7D7E" points="-5821.933,182.302 -5821.933,178.828 -5820.217,178.828 -5820.217,187.649 -5821.933,187.649 
		-5821.933,183.709 -5825.119,183.709 -5825.119,187.649 -5826.835,187.649 -5826.835,178.828 -5825.119,178.828 -5825.119,182.302 
		-5821.933,182.302 	"/>
	<polyline fill="#7F7D7E" points="-5795.478,180.328 -5795.478,182.269 -5792.738,182.269 -5792.738,183.764 -5795.478,183.764 
		-5795.478,186.154 -5792.637,186.154 -5792.637,187.649 -5797.196,187.649 -5797.196,178.836 -5792.637,178.836 -5792.637,180.328 
		-5795.478,180.328 	"/>
	<path fill="#7F7D7E" d="M-5767.926,185.79l-0.727,1.859h-1.812l3.44-9.057h1.326l3.353,9.057h-1.837l-0.681-1.859H-5767.926
		 M-5766.445,181.18h-0.02l-0.969,3.203h2.094L-5766.445,181.18z"/>
	<polyline fill="#7F7D7E" points="-5738.346,186.154 -5735.909,186.154 -5735.909,187.649 -5740.064,187.649 -5740.064,178.828 
		-5738.346,178.828 -5738.346,186.154 	"/>
	<polyline fill="#7F7D7E" points="-5711.084,187.649 -5712.808,187.649 -5712.808,180.328 -5714.585,180.328 -5714.585,178.836 
		-5709.313,178.836 -5709.313,180.328 -5711.084,180.328 -5711.084,187.649 	"/>
	<polyline fill="#7F7D7E" points="-5682.023,182.302 -5682.023,178.828 -5680.299,178.828 -5680.299,187.649 -5682.023,187.649 
		-5682.023,183.709 -5685.201,183.709 -5685.201,187.649 -5686.918,187.649 -5686.918,178.828 -5685.201,178.828 -5685.201,182.302 
		-5682.023,182.302 	"/>
	<path fill="#7F7D7E" d="M-5651.386,181.171c-0.479-0.585-1.207-0.935-1.947-0.935c-1.649,0-2.592,1.515-2.592,3.041
		c0,1.482,0.976,2.964,2.586,2.964c0.733,0,1.474-0.384,1.953-0.929v2.047c-0.64,0.305-1.287,0.525-2,0.525
		c-2.478,0-4.323-2.142-4.323-4.57c0-2.506,1.77-4.714,4.355-4.714c0.688,0,1.367,0.181,1.968,0.511V181.171"/>
	<path fill="#7F7D7E" d="M-5626.695,185.79l-0.721,1.859h-1.817l3.439-9.057h1.334l3.346,9.057h-1.837l-0.681-1.859H-5626.695
		 M-5625.208,181.18h-0.027l-0.964,3.203h2.089L-5625.208,181.18z"/>
	<path fill="#7F7D7E" d="M-5592.861,187.649h-2.087l-2.141-3.555h-0.021v3.555h-1.724v-8.821h2.33c1.744,0,2.949,0.774,2.949,2.66
		c0,1.117-0.619,2.242-1.804,2.443L-5592.861,187.649 M-5597.109,182.889h0.222c0.943,0,1.617-0.283,1.617-1.361
		c0-1.083-0.694-1.3-1.604-1.3h-0.235V182.889z"/>
	<polyline fill="#7F7D7E" points="-5568.83,180.328 -5568.83,182.269 -5566.089,182.269 -5566.089,183.764 -5568.83,183.764 
		-5568.83,186.154 -5565.982,186.154 -5565.982,187.649 -5570.546,187.649 -5570.546,178.836 -5565.982,178.836 -5565.982,180.328 
		-5568.83,180.328 	"/>
</g>
<rect id="_x3C_Slice_x3E_" x="-5928" y="11" fill="none" width="595" height="350"/>
</svg>
