<?xml version="1.0" encoding="utf-8"?>
<!-- Generator: Adobe Illustrator 15.1.0, SVG Export Plug-In . SVG Version: 6.00 Build 0)  -->
<!DOCTYPE svg PUBLIC "-//W3C//DTD SVG 1.1//EN" "http://www.w3.org/Graphics/SVG/1.1/DTD/svg11.dtd">
<svg version="1.1" id="Layer_1" xmlns="http://www.w3.org/2000/svg" xmlns:xlink="http://www.w3.org/1999/xlink" x="0px" y="0px"
	 width="595px" height="350px" viewBox="-5152 0 595 350" enable-background="new -5152 0 595 350" xml:space="preserve">
<g>
	<g>
		<g>
			<rect x="-5118.22" y="102.222" fill="none" stroke="#FFFFFF" stroke-width="1.8554" width="157.082" height="141.559"/>
			<rect x="-5118.229" y="102.232" fill="#FFFFFF" width="156.325" height="141.489"/>
			<path fill="#7F7D7E" d="M-5058.557,158.504c0-6.732-5.423-9.907-11.593-9.907h-22.44v2.059c1.872,0.369,3.926,0.18,3.926,2.986
				v37.969c0,2.24-1.685,2.799-3.926,2.986v2.248h12.526v-44.884h5.052c4.111,0,7.852,2.806,7.852,6.731
				c0,4.305-2.805,7.111-7.476,7.111v2.984c8.225,0.189,12.153,5.424,12.153,12.91c0,6.723-4.487,12.152-11.409,12.152h-3.555v2.994
				h5.425c7.106,0,11.408-2.248,14.774-5.799c1.683-1.869,4.3-6.175,4.3-6.175c4.114-5.79,8.601-14.77,11.783-20.003v34.783
				l20.759-34.227v26.186c0,2.422-1.125,2.799-4.117,2.986v2.248h37.962v-2.248c-2.433-0.188-4.115-1.125-4.115-2.986v-37.969
				c0-2.986,1.683-2.617,3.924-2.986v-2.059h-16.452v2.059c2.431,0.369,3.925,0,3.925,2.986v37.969c0,3.176-3.925,2.986-6.169,2.986
				c-2.433,0-6.358,0.189-6.358-2.986V149.72c0-0.932-0.561-2.058-1.685-2.058c-0.747,0-1.495,0.378-1.68,0.935l-17.208,28.983
				v-27.86c0-1.311-0.745-2.058-1.867-2.058c-0.563,0-1.498,0.188-1.869,0.935l-17.768,29.729
				c-0.75-6.167-5.611-10.097-11.592-11.407C-5061.364,165.614-5058.557,163.187-5058.557,158.504 M-4961.13,243.78h-157.083V102.22
				h157.083V243.78z"/>
			<rect x="-5118.234" y="102.22" fill="none" stroke="#FFFFFF" stroke-width="1.8554" width="157.081" height="141.561"/>
		</g>
	</g>
	<path fill="#7F7D7E" d="M-4598.644,172.876c0-4.502-0.943-9.757-6.387-9.757c-3.936,0-6.935,3.569-7.877,9.757H-4598.644z
		 M-4604.465,160.868c9.199,0,13.699,5.82,13.699,14.64h-22.33c0,7.878,1.876,17.067,11.631,17.067c3.004,0,5.818-0.754,8.443-2.623
		l0.567,2.062c-3.938,3.57-7.881,5.256-12.384,5.256c-9.568,0-16.508-7.887-16.508-18.385
		C-4621.347,168.374-4614.406,160.868-4604.465,160.868 M-4636.172,167.243c1.687-3.18,5.064-7.123,9.198-7.123
		c0.745,0,1.688,0.188,2.435,0.377l-1.872,11.064l-1.883-0.373c0-2.067-0.558-3.561-2.813-3.561c-4.314,0-4.876,6.379-4.876,9.379
		v12.566c0,3.945,1.123,5.066,4.876,5.254v1.693h-17.264v-1.693c4.506,0,4.883-3.564,4.883-7.123v-13.892
		c0-4.315-0.185-5.438-4.883-6.002v-1.688c4.133-0.371,9.389-3.748,12.387-6.378
		C-4635.984,162.374-4636.357,164.243-4636.172,167.243 M-4671.823,193.142c1.88,0,4.691-1.504,7.508-4.127v-13.893
		c-2.817,1.131-5.822,2.443-8.254,4.32c-2.256,1.501-3.568,4.32-3.568,7.318C-4676.137,190.696-4674.446,193.142-4671.823,193.142
		 M-4650.995,192.952c-2.068,2.82-4.691,4.318-7.504,4.318c-3.005,0-4.883-1.887-5.44-5.633c-4.127,3.568-8.257,5.633-11.632,5.633
		c-4.882,0-8.445-3.564-8.445-8.441c0-4.689,2.997-8.254,8.818-11.076c3.566-1.688,7.506-3.377,10.884-5.443v-2.812
		c0-4.499-1.313-6.378-4.692-6.378c-3.19,0-5.818,2.632-5.818,5.815c0,0.94,0.563,1.688,1.311,2.072l-0.368,1.303l-7.884-1.688
		c1.312-6.559,5.819-9.754,13.319-9.754c5.442,0,9.011,1.506,10.509,4.883c0.943,1.492,1.125,2.812,1.125,6.559v14.641
		c0,4.312,0.563,5.625,2.631,5.625c0.752,0,1.499-0.369,2.62-1.312L-4650.995,192.952z M-4698.651,160.868
		c3.005,0,7.127,0.564,10.883,1.688l-1.692,9.387l-1.313-0.381c-0.564-4.496-3.376-8.442-8.629-8.442
		c-6.007,0-10.321,6.002-10.321,14.446c0,9.758,4.878,15.576,13.132,15.576c2.068,0,4.32-0.566,6.943-2.254l0.568,2.064
		c-3.942,2.82-8.262,4.318-12.202,4.318c-9.753,0-16.696-7.318-16.696-17.64C-4717.978,168.752-4709.724,160.868-4698.651,160.868
		 M-4748.935,143.413c-0.562,2.443-0.75,5.074-0.75,7.518v15.191c3.19-3.379,7.126-5.625,11.633-5.625
		c3.377,0,6.756,1.123,9.005,3.746c2.438,2.822,2.438,6.379,2.438,10.133v14.822c0,3.943,0.749,5.441,4.881,5.629v1.693h-17.265
		v-1.693c4.317-0.562,4.878-3.006,4.878-6.941v-13.51c0-5.066-0.94-9.378-7.128-9.378c-2.628,0-5.067,0.936-6.571,2.999
		c-1.683,1.878-1.872,3.379-1.872,5.815v15.761c0,3.568,1.122,5.066,4.876,5.254v1.693h-17.26v-1.693
		c4.5-0.934,4.874-2.812,4.874-7.123v-31.338c0-3.189,0-6.002-4.124-6.002v-1.697
		C-4757.005,148.298-4752.128,146.233-4748.935,143.413 M-4765.635,192.763c-3.004,3.01-6.006,4.508-9.382,4.508
		c-4.878,0-8.065-3.188-8.065-7.697v-8.065v-17.265h-3.945v-2.058c5.445-0.943,7.886-5.075,9.197-9.95l2.25-1.125v10.132h9.384
		v3.001h-9.384v21.583c0,3.372,0.379,7.126,4.317,7.126c1.69,0,3.379-0.746,4.88-2.256L-4765.635,192.763z M-4795.094,144.167
		c-0.751,2.256-0.935,5.445-0.935,7.881v35.838c0,4.508-0.19,6.379,4.874,6.941v1.693h-17.258v-1.693
		c5.065-0.562,4.877-3.189,4.877-6.941v-32.271c0-3.566-0.376-5.066-4.127-5.25v-1.697
		C-4803.536,148.487-4798.281,146.611-4795.094,144.167 M-4831.867,193.142c1.877,0,4.688-1.504,7.506-4.127v-13.893
		c-2.818,1.131-5.817,2.443-8.26,4.32c-2.25,1.501-3.566,4.32-3.566,7.318C-4836.188,190.696-4834.493,193.142-4831.867,193.142
		 M-4810.85,192.952c-2.254,2.82-4.883,4.318-7.509,4.318c-3.188,0-5.067-1.887-5.631-5.633c-4.124,3.568-8.251,5.633-11.631,5.633
		c-4.88,0-8.446-3.564-8.446-8.441c0-4.689,3.005-8.254,9.01-11.076c3.562-1.688,7.501-3.377,10.695-5.443v-2.812
		c0-4.499-1.317-6.378-4.692-6.378c-3.187,0-5.818,2.632-5.818,5.815c0,0.94,0.566,1.688,1.316,2.072l-0.188,1.303l-8.065-1.688
		c1.31-6.559,5.816-9.754,13.318-9.754c5.437,0,9.003,1.506,10.691,4.883c0.756,1.492,0.943,2.812,0.943,6.559v14.641
		c0,4.312,0.564,5.625,2.624,5.625c0.755,0,1.688-0.369,2.631-1.312L-4810.85,192.952z M-4856.449,172.876
		c0-4.502-0.935-9.757-6.565-9.757c-3.939,0-6.942,3.569-7.69,9.757H-4856.449z M-4862.454,160.868c9.382,0,13.7,5.82,13.7,14.64
		h-22.327c0,7.878,1.875,17.067,11.82,17.067c3.002,0,5.628-0.754,8.257-2.623l0.561,2.062c-3.938,3.57-7.881,5.256-12.384,5.256
		c-9.382,0-16.32-7.887-16.32-18.385C-4879.147,168.374-4872.209,160.868-4862.454,160.868 M-4884.029,194.827v1.693h-18.386v-1.693
		c4.5-0.188,4.877-2.621,4.877-6.375v-16.323h-21.391v16.323c0,3.941,0.376,6.375,4.879,6.375v1.693h-18.576v-1.693
		c3.942-0.375,4.881-1.875,4.881-6.564v-31.896c0-4.689-0.939-6.191-4.881-6.754v-1.503h18.576v1.503
		c-4.314,0.562-4.879,2.623-4.879,6.564v12.944h21.391v-12.944c0-3.941-0.376-6.187-4.877-6.564v-1.503h18.386v1.503
		c-3.753,0.562-4.878,2.064-4.878,6.754v31.896C-4888.907,192.952-4887.783,194.452-4884.029,194.827"/>
</g>
</svg>
