<?xml version="1.0" encoding="utf-8"?>
<!-- Generator: Adobe Illustrator 15.1.0, SVG Export Plug-In . SVG Version: 6.00 Build 0)  -->
<!DOCTYPE svg PUBLIC "-//W3C//DTD SVG 1.1//EN" "http://www.w3.org/Graphics/SVG/1.1/DTD/svg11.dtd">
<svg version="1.1" id="Layer_1" xmlns="http://www.w3.org/2000/svg" xmlns:xlink="http://www.w3.org/1999/xlink" x="0px" y="0px"
	 width="595px" height="350px" viewBox="-4392 0 595 350" enable-background="new -4392 0 595 350" xml:space="preserve">
<g>
	<circle fill="#7F7D7E" cx="-4305.903" cy="132.016" r="6.388"/>
	<circle fill="#7F7D7E" cx="-4262.373" cy="140.64" r="6.389"/>
	<g>
		<g>
			<path fill="#7F7D7E" d="M-4156.997,141.036c-2.429,2.193-6.199,2.354-9.171,2.354h-9.674v-29.481h9.758
				c2.471,0,4.479,0.199,6.407,0.997c2.261,0.957,4.062,2.993,4.062,6.224c0,1.914-0.461,3.351-1.216,4.428
				c-0.837,1.196-2.429,1.995-3.936,2.474c1.507,0.239,3.057,0.679,4.271,1.755c1.509,1.277,2.011,3.032,2.011,4.708
				C-4154.484,136.727-4154.986,139.16-4156.997,141.036z M-4162.483,118.734c-0.963-0.836-2.974-0.836-3.685-0.836h-4.607v8.377
				h4.607c1.047,0,5.234-0.08,5.234-4.229C-4160.934,120.451-4161.436,119.492-4162.483,118.734z M-4160.934,131.42
				c-1.215-1.235-3.308-1.315-5.402-1.315h-4.439v9.056h4.439c1.633,0,3.895,0.04,5.318-1.236c0.754-0.718,1.215-1.756,1.215-3.351
				C-4159.802,133.176-4160.222,132.179-4160.934,131.42z"/>
			<path fill="#7F7D7E" d="M-4140.327,124.759c-1.842,0-3.098,0.878-3.769,2.074c-0.795,1.396-0.753,3.032-0.753,4.149v12.407
				h-4.481v-21.822h4.481v2.952c0.125-0.359,0.586-1.437,1.633-2.354c0.921-0.838,1.927-0.958,3.058-0.958
				c0.461,0,0.753,0.04,1.257,0.16c0.585,0.16,0.837,0.278,1.507,0.678l0.628,3.989
				C-4137.73,125.277-4138.819,124.759-4140.327,124.759z"/>
			<path fill="#7F7D7E" d="M-4130.777,118.216c-1.716,0-2.597-0.957-2.597-2.233c0-1.077,1.089-2.114,2.597-2.114
				s2.638,0.838,2.638,2.114S-4129.228,118.216-4130.777,118.216z M-4132.955,143.39v-21.822h4.439v21.822H-4132.955z"/>
			<path fill="#7F7D7E" d="M-4112.141,142.87c0,0-1.55,0.759-3.56,0.759c-3.602,0-5.862-2.234-5.862-6.065v-12.885h-3.31
				l0.712-3.111h2.681l0.251-4.469l4.105-0.558v5.026h5.067l-0.712,3.111h-4.271v12.885c0,1.597,1.172,2.514,2.638,2.514
				c1.382,0,2.723-0.598,2.723-0.598L-4112.141,142.87z"/>
			<path fill="#7F7D7E" d="M-4106.15,118.216c-1.717,0-2.596-0.957-2.596-2.233c0-1.077,1.088-2.114,2.596-2.114
				s2.639,0.838,2.639,2.114S-4104.6,118.216-4106.15,118.216z M-4108.328,143.39v-21.822h4.44v21.822H-4108.328z"/>
			<path fill="#7F7D7E" d="M-4086.55,141.793c-1.592,1.317-3.686,1.955-6.03,1.995c-3.686,0.04-5.654-0.918-6.534-1.396
				l-0.628-4.149c0,0,3.225,1.996,6.408,1.996c2.681,0,3.978-0.919,3.978-2.913c0-4.269-9.925-3.072-9.925-10.094
				c0-3.868,3.225-5.903,7.204-5.944c4.313-0.079,5.863,1.397,5.863,1.397l0.629,3.591c0,0-1.844-1.716-5.486-1.677
				c-2.262,0.041-3.602,0.998-3.602,2.754c0,1.994,2.597,2.911,4.606,3.71c3.099,1.276,5.528,2.952,5.528,6.144
				C-4084.54,139.24-4085.335,140.796-4086.55,141.793z"/>
			<path fill="#7F7D7E" d="M-4066.655,143.39v-13.804c0-2.593-0.168-5.227-4.104-5.227c-1.382,0-2.22,0.36-3.057,1.077
				c-1.466,1.237-1.592,3.152-1.592,4.508v13.445h-4.439v-29.602h4.439v10.652c0.293-0.839,2.094-3.352,6.03-3.352
				c2.639,0,4.439,0.678,5.696,2.194c1.298,1.555,1.466,3.47,1.466,5.466v14.641H-4066.655z"/>
			<path fill="#7F7D7E" d="M-4147.906,195.223c-3.258,2.803-7.182,4.148-12.675,4.148h-14.061v-39.816h14.061
				c5.614,0,10.019,1.294,13.217,4.257c2.717,2.531,5.493,7.059,5.493,15.624C-4141.871,187.787-4145.13,192.744-4147.906,195.223z
				 M-4160.581,164.942h-6.699v28.718h6.699c1.389,0,10.864,0.324,10.924-14.225
				C-4149.596,165.589-4157.864,164.942-4160.581,164.942z"/>
			<path fill="#7F7D7E" d="M-4129.984,186.225c0,0,0,0.215,0,0.699c0,1.564,0.724,7.762,10.079,7.977
				c6.276,0.107,9.174-2.264,9.535-2.48l-0.904,5.174c-0.363,0.217-3.501,2.209-9.656,2.209c-14.244,0-15.873-10.076-15.873-14.924
				c0-5.174,1.809-15.571,14.121-15.626c12.072-0.055,13.037,10.776,13.037,15.3c0,0.756,0,1.672,0,1.672H-4129.984z
				 M-4122.682,173.67c-7.604-0.215-7.302,8.406-7.302,8.621h13.941C-4116.043,182.076-4115.802,173.887-4122.682,173.67z"/>
			<path fill="#7F7D7E" d="M-4084.541,199.371v-18.643c0-3.502-0.241-7.059-6.035-7.059c-1.992,0-3.259,0.539-4.406,1.455
				c-1.992,1.67-2.233,4.258-2.233,6.088v18.158h-6.457V169.9h6.457v3.877c0.484-1.131,3.138-4.524,8.812-4.524
				c3.621,0,6.337,0.97,8.026,2.962c1.812,2.156,2.173,4.688,2.173,7.383v19.773H-4084.541z"/>
			<path fill="#7F7D7E" d="M-4055.272,198.672c0,0-2.232,1.023-5.129,1.023c-5.19,0-8.45-3.018-8.45-8.191v-17.402h-4.767
				l1.026-4.201h3.862l0.362-6.035l5.915-0.755v6.79h7.302l-1.026,4.201h-6.156v17.402c0,2.156,1.689,3.396,3.802,3.396
				c1.992,0,3.924-0.809,3.924-0.809L-4055.272,198.672z"/>
			<path fill="#7F7D7E" d="M-4030.951,199.371c-0.302,0-1.569,0.055-2.112-0.484c-0.483-0.432-0.483-1.076-0.483-1.617v-1.725
				c-1.931,2.588-5.189,4.365-10.079,4.258c-7.664-0.215-9.354-5.711-9.354-8.729c0-1.078,0.241-3.34,1.931-5.496
				c2.776-3.502,8.268-4.635,13.278-4.635c2.172,0,3.802,0.27,3.802,0.27v-1.508c0-1.076,0.182-2.803-1.146-4.256
				c-0.966-1.133-3.018-1.939-6.519-1.887c-5.553,0.055-8.449,2.695-8.449,2.695l1.147-5.174c0,0,3.017-1.938,8.691-1.938
				c4.767,0,8.026,1.186,9.957,2.962c2.233,2.102,2.777,4.043,2.777,7.922v19.342H-4030.951z M-4033.969,185.201
				c0,0-1.629-0.322-3.621-0.322c-4.406,0-7.665,1.129-8.57,3.824c-0.181,0.486-0.242,1.24-0.242,1.777
				c0,3.395,2.596,4.85,5.794,4.85c0.604,0,1.629-0.16,2.475-0.43c2.293-0.809,4.164-2.156,4.164-4.311V185.201z"/>
			<path fill="#7F7D7E" d="M-4019.968,199.371v-39.978h6.276v39.978H-4019.968z"/>
			<path fill="#7F7D7E" d="M-3963.48,199.371V181.16h-16.657v18.211h-7.363v-39.816h7.363v15.732h16.657v-15.732h7.483v39.816
				H-3963.48z"/>
			<path fill="#7F7D7E" d="M-3944.13,186.225c0,0,0,0.215,0,0.699c0,1.564,0.725,7.762,10.079,7.977
				c6.278,0.107,9.174-2.264,9.537-2.48l-0.905,5.174c-0.362,0.217-3.5,2.209-9.657,2.209c-14.243,0-15.873-10.076-15.873-14.924
				c0-5.174,1.811-15.571,14.123-15.626c12.07-0.055,13.035,10.776,13.035,15.3c0,0.756,0,1.672,0,1.672H-3944.13z
				 M-3936.827,173.67c-7.605-0.215-7.303,8.406-7.303,8.621h13.941C-3930.188,182.076-3929.947,173.887-3936.827,173.67z"/>
			<path fill="#7F7D7E" d="M-3897.117,199.371c-0.302,0-1.569,0.055-2.112-0.484c-0.483-0.432-0.483-1.076-0.483-1.617v-1.725
				c-1.931,2.588-5.19,4.365-10.079,4.258c-7.664-0.215-9.355-5.711-9.355-8.729c0-1.078,0.242-3.34,1.932-5.496
				c2.775-3.502,8.268-4.635,13.277-4.635c2.173,0,3.802,0.27,3.802,0.27v-1.508c0-1.076,0.181-2.803-1.146-4.256
				c-0.966-1.133-3.018-1.939-6.518-1.887c-5.553,0.055-8.45,2.695-8.45,2.695l1.147-5.174c0,0,3.017-1.938,8.69-1.938
				c4.768,0,8.026,1.186,9.958,2.962c2.233,2.102,2.776,4.043,2.776,7.922v19.342H-3897.117z M-3900.135,185.201
				c0,0-1.629-0.322-3.622-0.322c-4.405,0-7.664,1.129-8.57,3.824c-0.181,0.486-0.241,1.24-0.241,1.777
				c0,3.395,2.594,4.85,5.793,4.85c0.604,0,1.629-0.16,2.475-0.43c2.294-0.809,4.164-2.156,4.164-4.311V185.201z"/>
			<path fill="#7F7D7E" d="M-3886.134,199.371v-39.978h6.276v39.978H-3886.134z"/>
			<path fill="#7F7D7E" d="M-3855.959,198.672c0,0-2.233,1.023-5.13,1.023c-5.19,0-8.449-3.018-8.449-8.191v-17.402h-4.768
				l1.026-4.201h3.863l0.362-6.035l5.915-0.755v6.79h7.303l-1.026,4.201h-6.156v17.402c0,2.156,1.689,3.396,3.802,3.396
				c1.992,0,3.924-0.809,3.924-0.809L-3855.959,198.672z"/>
			<path fill="#7F7D7E" d="M-3831.076,199.371v-18.643c0-3.502-0.241-7.059-5.914-7.059c-1.992,0-3.199,0.484-4.406,1.455
				c-2.112,1.67-2.293,4.258-2.293,6.088v18.158h-6.397v-39.978h6.397v14.384c0.423-1.131,3.018-4.524,8.691-4.524
				c3.802,0,6.397,0.916,8.207,2.962c1.872,2.102,2.113,4.688,2.113,7.383v19.773H-3831.076z"/>
			<path fill="#7F7D7E" d="M-4170.566,216.807v8.219h10.721v4.309h-10.721v12.725h-5.276v-29.48h16.5l1.047,4.229H-4170.566z"/>
			<path fill="#7F7D7E" d="M-4145.688,242.379c-7.329-0.041-9.968-4.467-9.968-11.131c0-6.064,2.639-11.529,9.968-11.488
				c7.412,0.039,9.674,5.506,9.674,11.488C-4136.015,237.393-4139.574,242.418-4145.688,242.379z M-4145.605,223.029
				c-4.522-0.039-5.318,3.99-5.318,8.299c0,5.346,1.55,7.74,5.318,7.74c3.309,0,4.857-3.152,4.857-7.74
				C-4140.748,227.578-4141.166,223.07-4145.605,223.029z"/>
			<path fill="#7F7D7E" d="M-4116.12,242.059c-0.168,0-1.09,0.041-1.509-0.357c-0.335-0.32-0.335-0.92-0.335-1.197v-1.277
				c-1.214,1.914-3.393,3.152-6.366,3.152c-2.344,0-3.936-0.52-5.318-1.996c-1.466-1.596-1.844-3.549-1.844-6.223v-13.922h4.482
				v13.842c0,1.557,0,2.834,1.172,4.07c0.543,0.52,1.591,0.918,2.805,0.918c2.304,0,4.817-1.516,4.817-3.83v-15h4.438v21.82
				H-4116.12z"/>
			<path fill="#7F7D7E" d="M-4094.97,242.059v-13.803c0-2.592-0.168-5.227-4.188-5.227c-1.381,0-2.261,0.398-3.057,1.078
				c-1.383,1.236-1.55,3.152-1.55,4.508v13.443h-4.481v-21.82h4.481v2.873c0.335-0.84,2.178-3.352,6.114-3.352
				c2.513,0,4.398,0.717,5.571,2.193c1.256,1.596,1.507,3.473,1.507,5.465v14.641H-4094.97z"/>
			<path fill="#7F7D7E" d="M-4071.182,242.059v-2.152c-1.674,1.475-3.308,2.432-5.778,2.473c-6.449,0.08-8.711-5.227-8.711-11.131
				c0-4.389,1.717-11.488,8.836-11.488c4.272,0,5.444,2.512,5.444,2.512v-9.812h4.481v29.6H-4071.182z M-4071.391,228.018
				c0-1.236-0.167-2.752-1.172-3.75c-0.712-0.758-1.843-1.238-3.435-1.238c-4.522,0-4.9,5.227-4.858,8.219
				c0.043,4.311,1.299,7.66,4.942,7.66c0.963,0,1.759-0.16,2.723-0.598c0.795-0.359,1.381-0.879,1.8-1.396V228.018z"/>
			<path fill="#7F7D7E" d="M-4046.722,242.059c-0.209,0-1.089,0.041-1.465-0.357c-0.335-0.32-0.335-0.799-0.335-1.197v-1.277
				c-1.34,1.914-3.602,3.232-6.994,3.152c-5.319-0.16-6.492-4.229-6.492-6.463c0-0.799,0.167-2.473,1.34-4.068
				c1.926-2.594,5.738-3.432,9.213-3.432c1.507,0,2.639,0.199,2.639,0.199v-1.117c0-0.797,0.125-2.072-0.796-3.152
				c-0.67-0.836-2.094-1.434-4.522-1.395c-3.854,0.039-5.863,1.994-5.863,1.994l0.795-3.83c0,0,2.094-1.436,6.03-1.436
				c3.309,0,5.571,0.879,6.911,2.193c1.549,1.555,1.926,2.992,1.926,5.865v14.32H-4046.722z M-4048.815,231.566
				c0,0-1.131-0.238-2.512-0.238c-3.059,0-5.319,0.838-5.948,2.832c-0.125,0.359-0.167,0.918-0.167,1.316
				c0,2.514,1.8,3.592,4.02,3.592c0.419,0,1.131-0.121,1.717-0.32c1.591-0.598,2.89-1.596,2.89-3.189V231.566z"/>
			<path fill="#7F7D7E" d="M-4028.041,241.541c0,0-1.55,0.758-3.561,0.758c-3.601,0-5.863-2.234-5.863-6.064V223.35h-3.308
				l0.712-3.111h2.68l0.252-4.469l4.104-0.559v5.027h5.068l-0.712,3.111h-4.272v12.885c0,1.596,1.173,2.514,2.638,2.514
				c1.383,0,2.724-0.598,2.724-0.598L-4028.041,241.541z"/>
			<path fill="#7F7D7E" d="M-4021.884,216.887c-1.717,0-2.597-0.957-2.597-2.234c0-1.076,1.09-2.113,2.597-2.113
				c1.508,0,2.638,0.838,2.638,2.113C-4019.246,215.93-4020.335,216.887-4021.884,216.887z M-4024.062,242.059v-21.82h4.439v21.82
				H-4024.062z"/>
			<path fill="#7F7D7E" d="M-4004.88,242.379c-7.329-0.041-9.967-4.467-9.967-11.131c0-6.064,2.639-11.529,9.967-11.488
				c7.413,0.039,9.673,5.506,9.673,11.488C-3995.207,237.393-3998.766,242.418-4004.88,242.379z M-4004.797,223.029
				c-4.522-0.039-5.319,3.99-5.319,8.299c0,5.346,1.551,7.74,5.319,7.74c3.309,0,4.858-3.152,4.858-7.74
				C-3999.938,227.578-4000.357,223.07-4004.797,223.029z"/>
			<path fill="#7F7D7E" d="M-3977.28,242.059v-13.803c0-2.592-0.168-5.227-4.188-5.227c-1.382,0-2.262,0.398-3.057,1.078
				c-1.382,1.236-1.55,3.152-1.55,4.508v13.443h-4.481v-21.82h4.481v2.873c0.335-0.84,2.178-3.352,6.114-3.352
				c2.513,0,4.397,0.717,5.57,2.193c1.256,1.596,1.507,3.473,1.507,5.465v14.641H-3977.28z"/>
		</g>
		<path fill="#7F7D7E" d="M-4257.128,156.517c-19.9,5.381-45.64,5.348-69.896-11.488c-0.764-0.528-2.56,0.131-2.675,1.241
			c-1.506,14.585,0.456,53.51,42.276,57.609c36.566,3.586,56.671-27.17,56.671-50.919c0-28.34-15.798-54.29-62.755-54.343
			c-39.046-0.042-72.97,32.432-70.708,72.686c2.055,36.568,30.79,67.354,80.488,68.713c84.937,2.324,101.04-64.475,80.383-103.541
			c-0.766-1.449-2.212-1.23-2.212-1.23c6.167,39.094-16.229,100.635-76.528,98.203c-59.467-2.398-68.58-49.279-68.99-66.526
			c-0.411-17.246,13.188-64.463,58.207-63.182c50.506,1.436,50.063,38.539,49.794,50.453c-0.319,14.266-11.313,44.39-43.939,40.821
			c-41.609-4.549-36.137-33.841-36.548-42.465c7.401,5.403,25.84,18.261,61.581,13.05c2.183-0.318,2.023-0.479,2.897-2.085
			c1.296-2.38,2.531-4.758,3.391-6.196C-4255.148,156.407-4256.342,156.304-4257.128,156.517z"/>
	</g>
</g>
</svg>
