<?xml version="1.0" encoding="utf-8"?>
<!-- Generator: Adobe Illustrator 15.1.0, SVG Export Plug-In . SVG Version: 6.00 Build 0)  -->
<!DOCTYPE svg PUBLIC "-//W3C//DTD SVG 1.1//EN" "http://www.w3.org/Graphics/SVG/1.1/DTD/svg11.dtd">
<svg version="1.1" id="Layer_1" xmlns="http://www.w3.org/2000/svg" xmlns:xlink="http://www.w3.org/1999/xlink" x="0px" y="0px"
	 width="595px" height="350px" viewBox="-3656 0 595 350" enable-background="new -3656 0 595 350" xml:space="preserve">
<g>
	<path fill="#7F7D7E" d="M-3500.129,220.646c-3.704,20.406-21.564,35.938-43.024,35.938c-21.458,0-39.319-15.531-43.022-35.938
		h-10.539c3.812,26.178,26.342,46.371,53.562,46.371c27.219,0,49.755-20.193,53.562-46.371H-3500.129z"/>
	<path fill="#7F7D7E" d="M-3586.828,210.218c1.831-28.588,32.649-67.875,43.677-81.082c11.027,13.199,41.844,52.469,43.669,81.082
		h10.423c-2.05-38.463-48.208-90.344-50.214-92.582c-1.976-2.203-5.785-2.203-7.761,0c-2.012,2.238-48.162,54.119-50.214,92.582
		H-3586.828z"/>
	<path fill="#7F7D7E" d="M-3430.594,203.536c-4.351,5.221-10.054,7.734-16.436,7.734c-13.725,0-23.487-9.859-23.487-23.488
		c0-13.631,9.763-23.492,23.487-23.492c6.479,0,12.279,2.805,16.631,7.734l-4.641,3.48c-3.385-3.674-7.349-5.994-11.99-5.994
		c-10.922,0-17.686,8.217-17.686,18.271c0,10.051,6.764,18.268,17.686,18.268c4.836,0,8.992-2.514,11.99-6.186L-3430.594,203.536z"
		/>
	<path fill="#7F7D7E" d="M-3422.464,178.019c0-3.287-0.484-10.248-0.484-12.566h5.801c0.098,3.285,0.196,6.961,0.387,7.832
		c2.9-5.223,7.541-8.99,14.21-8.99c1.161,0,2.225,0.189,3.382,0.48l-0.676,5.703c-0.869-0.291-1.643-0.389-2.225-0.389
		c-10.051,0-14.594,6.963-14.594,15.66v24.363h-5.802V178.019z"/>
	<path fill="#7F7D7E" d="M-3356.952,191.358c0,8.697,0.191,13.629,0.871,18.754h-5.414c-0.387-2.225-0.582-4.738-0.582-7.252h-0.191
		c-3.287,5.703-8.119,8.41-15.661,8.41c-7.636,0-15.755-3.77-15.755-13.242c0-13.631,15.95-14.984,24.746-14.984h6.768v-2.705
		c0-7.732-5.414-10.828-12.569-10.828c-5.219,0-9.664,1.645-13.628,5.027l-3.385-3.961c4.254-4.061,11.216-6.287,17.013-6.287
		c10.829,0,17.788,4.836,17.788,16.145V191.358z M-3368.551,187.685c-9.667,0-19.332,2.418-19.332,10.053
		c0,5.51,5.314,8.312,10.149,8.312c12.372,0,15.563-7.924,15.563-15.367v-2.998H-3368.551z"/>
	<polygon fill="#7F7D7E" points="-3350.471,165.452 -3344.092,165.452 -3333.266,202.86 -3333.073,202.86 -3320.604,165.452 
		-3315.093,165.452 -3301.851,202.86 -3301.656,202.86 -3291.123,165.452 -3285.319,165.452 -3298.468,210.112 -3304.459,210.112 
		-3317.8,173.571 -3317.993,173.571 -3330.461,210.112 -3336.456,210.112 	"/>
	<path fill="#7F7D7E" d="M-3270.781,170.673h-9.276v-5.221h9.276v-14.598c0-11.502,7.64-14.984,13.346-14.984
		c2.802,0,4.93,0.389,6.667,1.162l-1.162,5.027c-1.352-0.676-2.996-0.967-5.217-0.967c-5.316,0-7.83,3.867-7.83,11.889v12.471
		h10.441v5.221h-10.441v39.439h-5.804V170.673z"/>
	<path fill="#7F7D7E" d="M-3227.663,164.29c13.725,0,23.487,9.861,23.487,23.492c0,13.629-9.762,23.488-23.487,23.488
		c-13.729,0-23.491-9.859-23.491-23.488C-3251.154,174.151-3241.391,164.29-3227.663,164.29 M-3227.663,206.05
		c10.921,0,17.688-8.215,17.688-18.268c0-10.055-6.768-18.271-17.688-18.271c-10.922,0-17.693,8.217-17.693,18.271
		C-3245.355,197.835-3238.584,206.05-3227.663,206.05"/>
	<path fill="#7F7D7E" d="M-3193.45,178.019c0-3.287-0.485-10.248-0.485-12.566h5.802c0.092,3.285,0.189,6.961,0.385,7.832
		c2.899-5.223,7.539-8.99,14.212-8.99c1.159,0,2.221,0.189,3.38,0.48l-0.674,5.703c-0.868-0.291-1.645-0.389-2.226-0.389
		c-10.05,0-14.595,6.963-14.595,15.66v24.363h-5.799V178.019z"/>
	<path fill="#7F7D7E" d="M-3125.551,202.282h-0.195c-3.578,6.184-11.212,8.988-17.882,8.988c-13.728,0-23.49-9.859-23.49-23.49
		c0-13.627,9.762-23.486,23.49-23.486c6.67,0,14.304,2.801,17.882,8.988h0.195v-36.25h5.799v73.076h-5.799V202.282z
		 M-3143.628,169.511c-10.921,0-17.691,8.217-17.691,18.27c0,10.055,6.771,18.27,17.691,18.27c10.538,0,18.658-8.215,18.658-18.27
		C-3124.97,177.728-3133.09,169.511-3143.628,169.511"/>
	<polygon fill="#7F7D7E" points="-3470.584,220.753 -3466.743,220.753 -3466.743,229.356 -3456.646,229.356 -3456.646,220.753 
		-3452.801,220.753 -3452.801,242.353 -3456.646,242.353 -3456.646,232.837 -3466.743,232.837 -3466.743,242.353 -3470.584,242.353 
			"/>
	<polygon fill="#7F7D7E" points="-3437.833,220.753 -3423.53,220.753 -3423.53,224.231 -3433.991,224.231 -3433.991,229.542 
		-3424.077,229.542 -3424.077,233.017 -3433.991,233.017 -3433.991,238.874 -3422.979,238.874 -3422.979,242.353 -3437.833,242.353 
			"/>
	<path fill="#7F7D7E" d="M-3401.434,220.753h3.328l9.302,21.6h-4.392l-2.013-4.941h-9.365l-1.953,4.941h-4.3L-3401.434,220.753z
		 M-3396.551,234.116l-3.324-8.785l-3.387,8.785H-3396.551z"/>
	<polygon fill="#7F7D7E" points="-3376.135,220.753 -3372.289,220.753 -3372.289,238.874 -3363.109,238.874 -3363.109,242.353 
		-3376.135,242.353 	"/>
	<polygon fill="#7F7D7E" points="-3348.148,224.231 -3354.77,224.231 -3354.77,220.755 -3337.688,220.755 -3337.688,224.231 
		-3344.305,224.231 -3344.305,242.353 -3348.148,242.353 	"/>
	<polygon fill="#7F7D7E" points="-3324.927,220.753 -3321.084,220.753 -3321.084,229.356 -3310.989,229.356 -3310.989,220.753 
		-3307.143,220.753 -3307.143,242.353 -3310.989,242.353 -3310.989,232.837 -3321.084,232.837 -3321.084,242.353 -3324.927,242.353 
			"/>
	<path fill="#7F7D7E" d="M-3277.322,225.817c-1.586-1.68-3.052-2.135-4.547-2.135c-4.452,0-7.413,3.416-7.413,7.717
		c0,4.605,2.961,8.025,7.413,8.025c1.742,0,3.418-0.795,4.853-2.625l3.172,2.256c-1.953,2.684-4.881,3.844-8.056,3.844
		c-6.652,0-11.407-4.512-11.407-11.256c0-6.924,4.755-11.438,11.407-11.438c2.931,0,5.431,0.945,7.567,3.416L-3277.322,225.817z"/>
	<path fill="#7F7D7E" d="M-3253.487,220.753h3.323l9.305,21.6h-4.394l-2.015-4.941h-9.361l-1.953,4.941h-4.303L-3253.487,220.753z
		 M-3248.609,234.116l-3.323-8.785l-3.385,8.785H-3248.609z"/>
	<path fill="#7F7D7E" d="M-3228.19,220.755h7.506c4.148,0,8.05,1.342,8.05,6.189c0,3.111-1.799,5.4-4.999,5.859l5.731,9.549h-4.634
		l-5.005-9.154h-2.804v9.154h-3.846V220.755z M-3221.356,229.905c2.167,0,4.697-0.184,4.697-2.988c0-2.566-2.38-2.869-4.362-2.869
		h-3.323v5.857H-3221.356z"/>
	<polygon fill="#7F7D7E" points="-3198.754,220.753 -3184.451,220.753 -3184.451,224.231 -3194.909,224.231 -3194.909,229.542 
		-3184.998,229.542 -3184.998,233.017 -3194.909,233.017 -3194.909,238.874 -3183.898,238.874 -3183.898,242.353 -3198.754,242.353 
			"/>
</g>
</svg>
