<?xml version="1.0" encoding="utf-8"?>
<!-- Generator: Adobe Illustrator 15.1.0, SVG Export Plug-In . SVG Version: 6.00 Build 0)  -->
<!DOCTYPE svg PUBLIC "-//W3C//DTD SVG 1.1//EN" "http://www.w3.org/Graphics/SVG/1.1/DTD/svg11.dtd">
<svg version="1.1" id="Layer_1" xmlns="http://www.w3.org/2000/svg" xmlns:xlink="http://www.w3.org/1999/xlink" x="0px" y="0px"
	 width="595px" height="350px" viewBox="-2920 0 595 350" enable-background="new -2920 0 595 350" xml:space="preserve">
<g>
	<path fill="#7F7D7E" d="M-2646.076,70.212l14.958-25.89h27.2c34.357,0,62.314,27.937,62.314,62.29
		c0,34.351-27.957,62.298-62.314,62.298h-99.214l14.946-25.896h84.268c20.086,0,36.407-16.325,36.407-36.402
		c0-20.062-16.321-36.4-36.407-36.4H-2646.076z"/>
	<path fill="#7F7D7E" d="M-2749.054,187.467h23.353c14.031,0,24.571,8.793,24.571,26.766c0,15.691-8.033,27.379-24.571,27.379
		h-23.353V187.467z M-2737.147,231.594h10.619c6.897,0,13.5-4.24,13.5-16.221c0-10.926-3.792-17.904-15.624-17.904h-8.495V231.594z"
		/>
	<path fill="#7F7D7E" d="M-2685.135,224.623c0.312,6.818,3.646,9.934,9.632,9.934c4.32,0,7.812-2.654,8.498-5.082h9.475
		c-3.031,9.242-9.475,13.188-18.343,13.188c-12.365,0-20.02-8.484-20.02-20.621c0-11.746,8.108-20.697,20.02-20.697
		c13.341,0,19.781,11.223,19.021,23.279H-2685.135z M-2667.608,217.797c-0.989-5.461-3.346-8.338-8.577-8.338
		c-6.822,0-8.797,5.305-8.95,8.338H-2667.608z"/>
	<path fill="#7F7D7E" d="M-2623.792,216.199c-0.673-4.395-3.48-6.74-7.957-6.74c-6.901,0-9.176,6.965-9.176,12.734
		c0,5.613,2.195,12.363,8.951,12.363c5.001,0,7.883-3.189,8.568-7.963h10.378c-1.36,10.385-8.568,16.068-18.872,16.068
		c-11.833,0-19.798-8.336-19.798-20.09c0-12.207,7.288-21.229,20.023-21.229c9.25,0,17.744,4.854,18.426,14.855H-2623.792z"/>
	<path fill="#7F7D7E" d="M-2606.96,187.467h10.771v20.396h0.229c2.728-4.395,7.43-6.52,11.454-6.52
		c11.438,0,14.331,6.443,14.331,16.141v24.127h-10.776v-22.152c0-6.445-1.892-9.625-6.897-9.625c-5.841,0-8.34,3.26-8.34,11.223
		v20.555h-10.771V187.467z"/>
	<path fill="#7F7D7E" d="M-2561.993,202.404h10.236v7.285h0.152c1.972-4.932,7.277-8.346,12.512-8.346
		c0.753,0,1.667,0.15,2.353,0.379v10.008c-0.99-0.225-2.582-0.379-3.867-0.379c-7.891,0-10.618,5.693-10.618,12.59v17.67h-10.768
		V202.404z"/>
	<path fill="#7F7D7E" d="M-2532.952,214.453c0.606-10.072,9.624-13.109,18.426-13.109c7.803,0,17.208,1.742,17.208,11.15v20.387
		c0,3.568,0.382,7.129,1.372,8.73h-10.933c-0.375-1.215-0.671-2.512-0.753-3.801c-3.414,3.57-8.412,4.852-13.181,4.852
		c-7.437,0-13.353-3.717-13.353-11.748c0-8.873,6.668-10.994,13.353-11.904c6.59-0.984,12.727-0.76,12.727-5.16
		c0-4.621-3.184-5.305-6.973-5.305c-4.094,0-6.747,1.668-7.122,5.908H-2532.952z M-2508.086,222.418
		c-1.812,1.59-5.604,1.672-8.938,2.275c-3.343,0.682-6.373,1.818-6.373,5.768c0,4.012,3.102,5,6.593,5
		c8.419,0,8.718-6.668,8.718-9.025V222.418z"/>
	<g>
		<polygon fill="#7F7D7E" points="-2721.482,273.469 -2724.202,273.469 -2730.536,255.502 -2727.949,255.502 -2722.813,271.078 
			-2722.766,271.078 -2717.576,255.502 -2715.086,255.502 		"/>
		<path fill="#7F7D7E" d="M-2703.813,269.348c-0.581,2.863-2.642,4.422-5.557,4.422c-4.158,0-6.118-2.869-6.246-6.836
			c0-3.908,2.565-6.779,6.117-6.779c4.606,0,6.011,4.303,5.892,7.455h-9.747c-0.068,2.266,1.213,4.275,4.064,4.275
			c1.755,0,2.989-0.854,3.368-2.537H-2703.813z M-2705.879,265.717c-0.094-2.031-1.631-3.68-3.749-3.68
			c-2.236,0-3.573,1.691-3.727,3.68H-2705.879z"/>
		<path fill="#7F7D7E" d="M-2698.421,260.453h2.587v1.896h-2.587v8.08c0,0.975,0.269,1.15,1.609,1.15h0.978v1.889h-1.635
			c-2.211,0-3.096-0.447-3.096-2.846v-8.273h-2.211v-1.896h2.211v-3.902h2.144V260.453z"/>
		<path fill="#7F7D7E" d="M-2682.366,269.348c-0.581,2.863-2.634,4.422-5.567,4.422c-4.149,0-6.112-2.869-6.241-6.836
			c0-3.908,2.57-6.779,6.113-6.779c4.611,0,6.019,4.303,5.9,7.455h-9.742c-0.086,2.266,1.204,4.275,4.051,4.275
			c1.768,0,2.997-0.854,3.373-2.537H-2682.366z M-2684.438,265.717c-0.097-2.031-1.626-3.68-3.743-3.68
			c-2.241,0-3.578,1.691-3.722,3.68H-2684.438z"/>
		<path fill="#7F7D7E" d="M-2680.031,260.453h2.023v2.754h0.046c1.034-2.092,2.463-3.129,4.777-3.053v2.26
			c-3.449,0-4.704,1.971-4.704,5.262v5.793h-2.143V260.453z"/>
		<path fill="#7F7D7E" d="M-2669.304,255.494h-2.142v2.617h2.142V255.494z M-2669.304,273.467 M-2669.304,260.453h-2.142v13.014
			h2.142V260.453z"/>
		<path fill="#7F7D7E" d="M-2665.987,260.453h2.011v2.068h0.056c0.909-1.607,2.373-2.367,4.234-2.367
			c3.419,0,4.478,1.965,4.478,4.766v8.549h-2.147v-8.807c0-1.588-1.002-2.625-2.638-2.625c-2.586,0-3.85,1.738-3.85,4.084v7.348
			h-2.143V260.453z"/>
		<path fill="#7F7D7E" d="M-2640.459,273.418c-0.376,0.223-0.849,0.352-1.536,0.352c-1.106,0-1.81-0.604-1.81-2.008
			c-1.183,1.389-2.775,2.008-4.585,2.008c-2.365,0-4.308-1.051-4.308-3.646c0-2.949,2.19-3.582,4.411-4.002
			c2.36-0.449,4.375-0.301,4.375-1.916c0-1.855-1.528-2.168-2.894-2.168c-1.81,0-3.142,0.564-3.249,2.469h-2.135
			c0.124-3.217,2.622-4.352,5.511-4.352c2.344,0,4.884,0.52,4.884,3.574v6.701c0,1,0,1.455,0.679,1.455
			c0.175,0,0.381-0.025,0.657-0.123V273.418z M-2643.938,266.754c-0.827,0.6-2.442,0.633-3.867,0.881
			c-1.414,0.242-2.617,0.756-2.617,2.34c0,1.416,1.204,1.91,2.51,1.91c2.821,0,3.974-1.762,3.974-2.945V266.754z"/>
		<path fill="#7F7D7E" d="M-2638.542,260.453h2.011v2.754h0.047c1.045-2.092,2.472-3.129,4.786-3.053v2.26
			c-3.454,0-4.713,1.971-4.713,5.262v5.793h-2.13V260.453z"/>
		<path fill="#7F7D7E" d="M-2624.981,275.207c-0.985,2.545-1.868,3.471-3.777,3.471c-0.503,0-0.999-0.047-1.481-0.219v-1.975
			c0.401,0.137,0.828,0.307,1.254,0.307c0.884,0,1.362-0.432,1.768-1.178l0.876-2.211l-5.166-12.949h2.425l3.795,10.646h0.051
			l3.645-10.646h2.276L-2624.981,275.207z"/>
		<path fill="#7F7D7E" d="M-2610.164,255.502h7.89c3.564,0,5.507,1.984,5.507,5.311c0,3.316-1.942,5.33-5.507,5.309h-5.49v7.348
			h-2.4V255.502z M-2607.764,264.107h4.679c2.694,0.021,3.927-1.156,3.927-3.295s-1.233-3.301-3.927-3.301h-4.679V264.107z"/>
		<path fill="#7F7D7E" d="M-2594.278,260.453h2.014v2.754h0.056c1.029-2.092,2.463-3.129,4.776-3.053v2.26
			c-3.444,0-4.708,1.971-4.708,5.262v5.793h-2.138V260.453z"/>
		<path fill="#7F7D7E" d="M-2580.653,260.154c4.125,0,6.318,3.002,6.318,6.822c0,3.805-2.194,6.793-6.318,6.793
			c-4.124,0-6.317-2.988-6.317-6.793C-2586.97,263.156-2584.777,260.154-2580.653,260.154 M-2580.653,271.885
			c2.242,0,4.056-1.762,4.056-4.908c0-3.172-1.813-4.939-4.056-4.939c-2.241,0-4.055,1.768-4.055,4.939
			C-2584.708,270.123-2582.894,271.885-2580.653,271.885"/>
		<path fill="#7F7D7E" d="M-2560.197,273.469h-2.137v-1.762h-0.047c-0.697,1.443-2.366,2.062-4.155,2.062
			c-4,0-5.989-3.164-5.989-6.836c0-3.678,1.969-6.779,5.943-6.779c1.332,0,3.249,0.504,4.201,2.035h0.047v-6.688h2.137V273.469z
			 M-2566.228,271.885c2.865,0,3.975-2.463,3.975-4.908c0-2.564-1.157-4.939-4.107-4.939c-2.917,0-3.901,2.502-3.901,5.039
			C-2570.261,269.518-2568.999,271.885-2566.228,271.885"/>
		<path fill="#7F7D7E" d="M-2546.122,273.469h-2.011v-2.064h-0.056c-0.904,1.617-2.355,2.365-4.221,2.365
			c-3.424,0-4.482-1.969-4.482-4.748v-8.568h2.14v8.816c0,1.582,1.002,2.615,2.638,2.615c2.595,0,3.854-1.736,3.854-4.08v-7.352
			h2.139V273.469z"/>
		<path fill="#7F7D7E" d="M-2534.066,264.639c-0.329-1.637-1.457-2.602-3.22-2.602c-3.095,0-4.059,2.451-4.059,5.094
			c0,2.387,1.088,4.754,3.808,4.754c2.057,0,3.296-1.211,3.577-3.17h2.186c-0.479,3.17-2.467,5.055-5.738,5.055
			c-3.978,0-6.1-2.762-6.1-6.639c0-3.902,2.019-6.977,6.151-6.977c2.946,0,5.311,1.387,5.614,4.484H-2534.066z"/>
		<path fill="#7F7D7E" d="M-2526.408,260.453h2.591v1.896h-2.591v8.08c0,0.975,0.277,1.15,1.605,1.15h0.986v1.889h-1.639
			c-2.215,0-3.1-0.447-3.1-2.846v-8.273h-2.21v-1.896h2.21v-3.902h2.148V260.453z"/>
		<path fill="#7F7D7E" d="M-2520.15,269.363c0.077,1.922,1.737,2.521,3.508,2.521c1.329,0,3.134-0.305,3.134-1.938
			c0-1.67-2.105-1.934-4.256-2.416c-2.1-0.477-4.246-1.188-4.246-3.676c0-2.619,2.6-3.701,4.856-3.701
			c2.869,0,5.161,0.91,5.336,4.082h-2.138c-0.154-1.66-1.609-2.199-3.022-2.199c-1.281,0-2.767,0.359-2.767,1.674
			c0,1.525,2.267,1.781,4.256,2.258c2.134,0.482,4.261,1.188,4.261,3.701c0,3.1-2.907,4.1-5.55,4.1
			c-2.915,0-5.383-1.176-5.506-4.406H-2520.15z"/>
	</g>
</g>
</svg>
