<?xml version="1.0" encoding="utf-8"?>
<!-- Generator: Adobe Illustrator 15.1.0, SVG Export Plug-In . SVG Version: 6.00 Build 0)  -->
<!DOCTYPE svg PUBLIC "-//W3C//DTD SVG 1.1//EN" "http://www.w3.org/Graphics/SVG/1.1/DTD/svg11.dtd">
<svg version="1.1" id="Layer_1" xmlns="http://www.w3.org/2000/svg" xmlns:xlink="http://www.w3.org/1999/xlink" x="0px" y="0px"
	 width="595px" height="350px" viewBox="-2160 0 595 350" enable-background="new -2160 0 595 350" xml:space="preserve">
<g>
	<path fill="#7F7D7E" d="M-2109.593,135.426h2.118v10.924h-2.118c-1.324-4.966-5.362-7.746-11.256-7.746
		c-9.07,0-14.366,6.687-14.366,18.074c0,10.726,6.422,18.207,15.758,18.207c5.627,0,7.812-1.391,7.812-4.9v-9.334h-5.495v-2.516
		h15.095v2.516h-5.031v14.83c-2.383,0.927-8.475,1.854-12.646,1.854c-12.05,0-20.788-8.607-20.788-20.392
		c0-12.447,8.474-20.987,20.854-20.987c2.98,0,6.622,0.729,9.469,1.92L-2109.593,135.426z"/>
	<path fill="#7F7D7E" d="M-2072.709,174.223h4.767v2.119h-9.004v-3.245c-3.641,2.517-6.686,3.708-9.731,3.708
		c-4.237,0-7.414-2.648-7.944-6.422c-0.133-1.06-0.133-2.45-0.133-4.437v-14.499h-5.098v-2.118h9.401v17.28
		c0,5.296,1.986,7.944,6.024,7.944c2.186,0,4.502-1.06,7.48-3.245v-19.861h-5.097v-2.118h9.334V174.223z"/>
	<path fill="#7F7D7E" d="M-2052.973,174.42l-8.673-22.973h-3.642v-2.185h11.652v2.185h-3.575l7.217,18.936l7.547-18.936h-3.243
		v-2.185h8.938v2.185h-3.442l-16.618,40.982h-3.84L-2052.973,174.42z"/>
	<path fill="#7F7D7E" d="M-2032.112,134.035c0-1.92,1.257-3.311,3.045-3.311c2.317,0,4.105,2.252,4.105,5.098
		c0,2.848-1.59,5.826-3.907,7.35c-0.795,0.529-2.185,1.059-2.78,1.059s-0.927-0.264-0.927-0.662c0-0.198,0.132-0.396,0.397-0.596
		c0.132-0.132,0.396-0.331,0.859-0.729c1.59-1.324,2.45-2.582,2.45-3.574c0-0.199,0-0.463-0.066-0.729
		C-2031.253,136.617-2032.112,135.625-2032.112,134.035z"/>
	<path fill="#7F7D7E" d="M-2024.432,176.871h-1.522v-8.012h0.927l0.198,0.529c1.589,3.973,3.84,5.76,7.349,5.76
		c2.847,0,5.429-2.052,5.429-4.303s-1.257-3.442-5.825-5.893c-4.568-2.383-5.165-2.78-6.621-4.568
		c-0.927-1.191-1.456-2.714-1.456-4.303c0-4.37,3.243-7.416,7.812-7.416c1.986,0,3.707,0.465,6.157,1.656l0.332-1.59h1.323v6.887
		h-1.059c-1.259-3.51-3.245-5.165-6.29-5.165c-2.648,0-4.7,1.788-4.7,4.105c0,2.383,1.323,3.642,6.818,6.487
		c4.237,2.186,5.628,3.244,6.687,5.23c0.397,0.86,0.662,1.92,0.662,3.178c0,4.37-3.641,7.547-8.672,7.547
		c-2.252,0-4.039-0.528-7.085-2.051L-2024.432,176.871z"/>
	<path fill="#7F7D7E" d="M-1957.82,175.215c-1.92,1.192-3.377,1.787-4.502,1.787c-2.186,0-3.244-0.794-4.7-3.376
		c-0.066-0.066-0.133-0.265-0.265-0.463l-0.729,0.53c-4.039,2.714-5.429,3.309-7.35,3.309c-3.244,0-6.156-3.376-6.156-7.018
		c0-2.847,1.191-5.031,3.376-6.09c1.258-0.53,2.913-1.127,4.966-1.59l4.502-1.125l0.729-0.198v-3.642
		c0-3.973-1.391-5.562-4.966-5.562c-2.119,0-3.84,0.597-6.819,2.451l-0.464,0.264l-0.463-1.521c3.31-3.113,5.958-4.305,9.269-4.305
		c2.979,0,5.429,1.258,6.62,3.443c0.993,1.787,1.259,2.979,1.259,6.753v8.739c0,4.37,1.191,6.555,3.575,6.555
		c0.529,0,0.794-0.066,2.118-0.662V175.215z M-1967.949,163.43c-6.422,0.928-9.336,2.781-9.336,5.959
		c0,2.317,1.854,4.039,4.37,4.039c1.324,0,2.582-0.529,4.502-1.92l0.464-0.331V163.43z"/>
	<path fill="#7F7D7E" d="M-1950.864,151.514h-5.099v-2.119h9.467v3.046c4.238-2.847,6.688-3.708,9.997-3.708
		c2.318,0,4.635,0.928,6.025,2.385c1.391,1.521,1.854,3.177,1.854,6.355v16.815h4.899v2.119h-14.234v-2.119h4.966v-15.69
		c0-4.966-1.92-7.48-5.693-7.48c-2.517,0-5.231,1.125-7.813,3.243v19.928h4.966v2.119h-14.366v-2.119h5.032V151.514z"/>
	<path fill="#7F7D7E" d="M-1899.086,135.094h-5.031v-2.117h9.401v41.246h5.03v2.119h-10.525l-3.245,0.065
		c-6.224,0.132-9.07-0.794-11.917-3.112c-3.045-2.516-4.898-6.488-4.898-10.46c0-7.812,5.892-14.169,13.108-14.169
		c2.847,0,4.899,0.795,8.077,3.178V135.094z M-1899.086,155.619c-1.986-2.914-4.833-4.568-7.812-4.568
		c-4.899,0-8.54,4.634-8.54,11.056c0,3.178,1.059,6.224,2.912,8.474c2.185,2.648,4.502,3.576,9.335,3.576h4.105V155.619z"/>
	<path fill="#7F7D7E" d="M-1864.45,165.748h2.647v4.767c1.787,2.648,4.635,4.104,7.944,4.104c4.437,0,7.813-3.111,7.813-7.281
		c0-2.648-1.457-4.702-4.568-6.754c-1.259-0.795-2.582-1.59-4.172-2.449c-5.362-3.047-7.15-4.503-8.474-6.952
		c-0.795-1.391-1.191-3.046-1.191-4.7c0-6.092,4.435-10.263,10.791-10.263c3.046,0,5.296,0.662,7.283,2.054v-2.782h2.581v10.396
		h-2.581v-3.973c-1.655-2.252-3.774-3.244-6.952-3.244c-4.237,0-6.952,2.516-6.952,6.422c0,2.648,1.854,5.098,5.363,7.15
		c1.059,0.662,2.383,1.39,3.972,2.25c4.768,2.582,6.754,4.502,8.012,7.482c0.529,1.39,0.794,2.847,0.794,4.303
		c0,6.289-4.7,10.725-11.387,10.725c-3.179,0-5.893-0.926-8.276-2.779v3.111h-2.647V165.748z"/>
	<path fill="#7F7D7E" d="M-1823.001,149.329v1.722h-7.68v16.551c0,4.038,1.457,6.555,3.905,6.555c1.192,0,1.986-0.331,3.642-1.391
		c0.265-0.199,0.53-0.331,0.662-0.331c0.397,0,0.597,0.198,0.597,0.53c0,0.264-0.133,0.529-0.464,0.926
		c-2.118,2.385-3.443,3.111-5.826,3.111c-2.582,0-4.833-1.323-5.826-3.376c-0.861-1.788-0.993-2.78-0.993-7.282v-15.293h-3.31
		l7.613-8.475v6.753H-1823.001z"/>
	<path fill="#7F7D7E" d="M-1783.8,140.259h-11.123v4.568h-2.649v-9.997h2.649v1.854h26.679v-1.854h2.648v9.997h-2.648v-4.568
		h-11.254v33.566h5.627v2.517h-15.49v-2.517h5.562V140.259z"/>
	<path fill="#7F7D7E" d="M-1757.712,135.16h-5.096v-2.117h9.332v19.529c4.041-2.78,6.886-3.906,9.799-3.906
		c5.169,0,8.146,3.311,8.146,9.005v16.552h5.095v2.119h-14.497v-2.119h5.032v-16.155c0-4.767-1.986-6.95-6.355-6.95
		c-2.251,0-4.169,0.926-7.22,3.309v19.797h5.102v2.119h-14.434v-2.119h5.096V135.16z"/>
	<path fill="#7F7D7E" d="M-1712.421,148.666c8.277,0,14.499,6.025,14.499,14.102c0,8.078-6.154,14.234-14.234,14.234
		c-8.738,0-15.026-5.957-15.026-14.234C-1727.183,154.625-1720.895,148.666-1712.421,148.666z M-1712.421,175.017
		c2.914,0,5.896-1.522,7.614-3.905c1.391-1.986,2.056-4.701,2.056-8.145c0-7.547-3.907-12.578-9.865-12.578
		c-5.827,0-9.732,4.898-9.732,12.182C-1722.349,170.25-1718.511,175.017-1712.421,175.017z"/>
	<path fill="#7F7D7E" d="M-1689.837,151.447h-4.767v-2.118h9.137v3.839c3.311-2.779,7.214-4.502,10.528-4.502
		c3.179,0,6.092,1.788,7.214,4.502c4.237-3.178,7.616-4.502,11.123-4.502c2.849,0,5.164,1.126,6.488,3.245
		c1.191,1.92,1.393,3.243,1.393,7.745v14.566h4.434v2.119h-13.438v-2.119h4.698v-14.434c0-6.224-1.657-8.672-6.021-8.672
		c-2.384,0-4.042,0.66-7.484,3.111l-0.598,0.463l-0.064,0.331l0.064,1.191v18.009h4.903v2.119h-14.036v-2.119h4.831v-15.229
		c0-5.561-1.652-7.745-5.826-7.745c-2.447,0-4.438,0.86-8.209,3.708v19.266h4.634v2.119h-13.771v-2.119h4.767V151.447z"/>
	<path fill="#7F7D7E" d="M-1616.542,175.215c-1.915,1.192-3.374,1.787-4.502,1.787c-2.18,0-3.239-0.794-4.698-3.376
		c-0.068-0.066-0.13-0.265-0.265-0.463l-0.729,0.53c-4.038,2.714-5.431,3.309-7.347,3.309c-3.247,0-6.159-3.376-6.159-7.018
		c0-2.847,1.189-5.031,3.376-6.09c1.256-0.53,2.913-1.127,4.964-1.59l4.502-1.125l0.732-0.198v-3.642
		c0-3.973-1.393-5.562-4.971-5.562c-2.118,0-3.837,0.597-6.816,2.451l-0.463,0.264l-0.461-1.521
		c3.308-3.113,5.956-4.305,9.269-4.305c2.975,0,5.426,1.258,6.62,3.443c0.991,1.787,1.256,2.979,1.256,6.753v8.739
		c0,4.37,1.189,6.555,3.572,6.555c0.53,0,0.796-0.066,2.119-0.662V175.215z M-1626.667,163.43c-6.425,0.928-9.337,2.781-9.337,5.959
		c0,2.317,1.854,4.039,4.366,4.039c1.325,0,2.587-0.529,4.503-1.92l0.468-0.331V163.43z"/>
	<path fill="#7F7D7E" d="M-1611.438,176.871h-1.526v-8.012h0.932l0.195,0.529c1.589,3.973,3.843,5.76,7.347,5.76
		c2.852,0,5.432-2.052,5.432-4.303s-1.257-3.442-5.826-5.893c-4.568-2.383-5.166-2.78-6.619-4.568
		c-0.931-1.191-1.46-2.714-1.46-4.303c0-4.37,3.246-7.416,7.814-7.416c1.983,0,3.707,0.465,6.159,1.656l0.326-1.59h1.324v6.887
		h-1.059c-1.256-3.51-3.24-5.165-6.288-5.165c-2.648,0-4.698,1.788-4.698,4.105c0,2.383,1.324,3.642,6.817,6.487
		c4.236,2.186,5.627,3.244,6.687,5.23c0.395,0.86,0.659,1.92,0.659,3.178c0,4.37-3.639,7.547-8.67,7.547
		c-2.249,0-4.041-0.528-7.082-2.051L-1611.438,176.871z"/>
	<path fill="#7F7D7E" d="M-1591.242,134.035c0-1.92,1.256-3.311,3.041-3.311c2.317,0,4.109,2.252,4.109,5.098
		c0,2.848-1.589,5.826-3.91,7.35c-0.795,0.529-2.181,1.059-2.779,1.059c-0.598,0-0.929-0.264-0.929-0.662
		c0-0.198,0.135-0.396,0.399-0.596c0.13-0.132,0.395-0.331,0.863-0.729c1.589-1.324,2.445-2.582,2.445-3.574
		c0-0.199,0-0.463-0.062-0.729C-1590.386,136.617-1591.242,135.625-1591.242,134.035z"/>
	<path fill="#7F7D7E" d="M-2135.546,204.473h-5.362v-2.518h12.314c5.958,0,8.077,0.396,10.658,1.854
		c3.377,1.986,5.297,5.363,5.297,9.467c0,6.887-4.568,11.721-11.321,11.721c-2.251,0-3.509-0.199-7.018-1.193v15.295h5.562v2.518
		h-15.492v-2.518h5.362V204.473z M-2130.978,221.09c2.582,0.727,3.575,0.926,5.362,0.926c4.833,0,7.945-3.111,7.945-7.812
		c0-2.646-0.86-4.965-2.45-6.688c-2.052-2.25-4.436-3.109-8.607-3.109c-0.528,0-0.926,0-2.25,0.066V221.09z"/>
	<path fill="#7F7D7E" d="M-2105.282,216.652l-5.032-0.066v-2.117h9.401v5.031h0.133l0.198-0.396c3.509-4.172,4.767-5.164,6.62-5.164
		c1.589,0,2.517,0.463,4.172,2.184c0.065,0.199,0.065,0.396,0.065,0.463c0,0.465-0.265,1.457-0.529,2.318
		c-0.464,1.521-0.529,1.789-0.992,2.648c-1.655-2.516-2.716-3.377-4.304-3.377c-1.722,0-3.907,1.854-5.363,4.502v16.818h5.297v2.119
		h-14.565v-2.119h4.899V216.652z"/>
	<path fill="#7F7D7E" d="M-2077.274,239.496h5.031v2.119h-14.632v-2.119h5.098v-22.777h-5.098V214.6h9.601V239.496z
		 M-2077.208,205.465c0,1.521-1.259,2.848-2.848,2.848c-1.522,0-2.848-1.326-2.848-2.848c0-1.59,1.325-2.846,2.848-2.846
		C-2078.467,202.619-2077.208,203.875-2077.208,205.465z"/>
	<path fill="#7F7D7E" d="M-2047.878,216.719h-3.905V214.6h10.13v2.119h-4.039l-9.202,25.426h-0.861l-10.526-25.426h-3.774V214.6
		h12.249v2.119h-3.841l7.35,17.877L-2047.878,216.719z"/>
	<path fill="#7F7D7E" d="M-2014.901,240.488c-1.92,1.191-3.377,1.787-4.503,1.787c-2.184,0-3.243-0.793-4.7-3.377
		c-0.066-0.066-0.132-0.264-0.265-0.463l-0.729,0.529c-4.039,2.715-5.429,3.311-7.349,3.311c-3.244,0-6.157-3.377-6.157-7.018
		c0-2.846,1.191-5.031,3.377-6.09c1.258-0.529,2.913-1.127,4.965-1.592l4.502-1.125l0.729-0.197v-3.641
		c0-3.975-1.391-5.562-4.965-5.562c-2.119,0-3.841,0.596-6.819,2.449l-0.464,0.266l-0.464-1.523c3.311-3.111,5.959-4.303,9.27-4.303
		c2.979,0,5.429,1.258,6.62,3.443c0.994,1.787,1.258,2.977,1.258,6.75v8.742c0,4.369,1.191,6.555,3.575,6.555
		c0.529,0,0.794-0.066,2.119-0.662V240.488z M-2025.031,228.705c-6.422,0.926-9.336,2.779-9.336,5.957
		c0,2.316,1.854,4.039,4.371,4.039c1.323,0,2.581-0.529,4.501-1.92l0.464-0.332V228.705z"/>
	<path fill="#7F7D7E" d="M-1997.286,214.6v1.723h-7.68v16.553c0,4.039,1.456,6.555,3.905,6.555c1.192,0,1.987-0.332,3.642-1.391
		c0.266-0.197,0.53-0.33,0.662-0.33c0.397,0,0.597,0.197,0.597,0.529c0,0.264-0.133,0.529-0.464,0.926
		c-2.119,2.385-3.442,3.111-5.826,3.111c-2.582,0-4.833-1.324-5.827-3.377c-0.859-1.787-0.991-2.779-0.991-7.281v-15.295h-3.312
		l7.614-8.473v6.75H-1997.286z"/>
	<path fill="#7F7D7E" d="M-1988.213,225.656c-0.066,0.465-0.066,0.664-0.066,0.994c0,7.615,4.37,12.979,10.593,12.979
		c2.847,0,5.297-0.861,8.805-3.047l-0.463,2.449c-3.311,2.252-6.29,3.244-9.799,3.244c-8.142,0-13.902-6.223-13.902-15.029
		c0-7.746,4.833-13.307,11.652-13.307c6.487,0,11.122,4.5,12.049,11.717H-1988.213z M-1974.178,223.803
		c-0.331-4.436-3.774-7.877-7.744-7.877c-3.443,0-5.959,3.111-6.291,7.877H-1974.178z"/>
	<path fill="#7F7D7E" d="M-1910.611,220.229v-15.756h-5.562v-2.518h15.757v2.518h-5.562v34.625h5.562v2.518h-15.757v-2.518h5.562
		V223.01h-22.643v16.088h5.561v2.518h-15.69v-2.518h5.562v-34.625h-5.562v-2.518h15.69v2.518h-5.561v15.756H-1910.611z"/>
	<path fill="#7F7D7E" d="M-1891.668,225.656c-0.066,0.465-0.066,0.664-0.066,0.994c0,7.615,4.369,12.979,10.592,12.979
		c2.848,0,5.297-0.861,8.806-3.047l-0.464,2.449c-3.31,2.252-6.288,3.244-9.797,3.244c-8.144,0-13.904-6.223-13.904-15.029
		c0-7.746,4.834-13.307,11.652-13.307c6.488,0,11.123,4.5,12.049,11.717H-1891.668z M-1877.633,223.803
		c-0.331-4.436-3.773-7.877-7.746-7.877c-3.442,0-5.959,3.111-6.289,7.877H-1877.633z"/>
	<path fill="#7F7D7E" d="M-1844.591,240.488c-1.92,1.191-3.377,1.787-4.502,1.787c-2.185,0-3.245-0.793-4.701-3.377
		c-0.066-0.066-0.133-0.264-0.266-0.463l-0.728,0.529c-4.039,2.715-5.429,3.311-7.349,3.311c-3.244,0-6.157-3.377-6.157-7.018
		c0-2.846,1.191-5.031,3.376-6.09c1.259-0.529,2.914-1.127,4.966-1.592l4.502-1.125l0.729-0.197v-3.641
		c0-3.975-1.391-5.562-4.966-5.562c-2.118,0-3.84,0.596-6.818,2.449l-0.464,0.266l-0.463-1.523c3.31-3.111,5.958-4.303,9.269-4.303
		c2.979,0,5.429,1.258,6.62,3.443c0.993,1.787,1.258,2.977,1.258,6.75v8.742c0,4.369,1.192,6.555,3.575,6.555
		c0.529,0,0.794-0.066,2.119-0.662V240.488z M-1854.721,228.705c-6.423,0.926-9.336,2.779-9.336,5.957
		c0,2.316,1.855,4.039,4.37,4.039c1.324,0,2.582-0.529,4.502-1.92l0.464-0.332V228.705z"/>
	<path fill="#7F7D7E" d="M-1837.769,200.168h-4.965v-2.119h9.401v41.447h4.768v2.119h-14.169v-2.119h4.965V200.168z"/>
	<path fill="#7F7D7E" d="M-1810.422,214.6v1.723h-7.68v16.553c0,4.039,1.456,6.555,3.906,6.555c1.191,0,1.985-0.332,3.641-1.391
		c0.265-0.197,0.53-0.33,0.663-0.33c0.396,0,0.596,0.197,0.596,0.529c0,0.264-0.133,0.529-0.464,0.926
		c-2.119,2.385-3.443,3.111-5.827,3.111c-2.581,0-4.832-1.324-5.825-3.377c-0.86-1.787-0.993-2.779-0.993-7.281v-15.295h-3.311
		l7.614-8.473v6.75H-1810.422z"/>
	<path fill="#7F7D7E" d="M-1802.342,200.432h-5.099v-2.117h9.335v19.531c4.039-2.783,6.884-3.906,9.796-3.906
		c5.17,0,8.146,3.311,8.146,9.004v16.553h5.095v2.119h-14.496v-2.119h5.031V223.34c0-4.768-1.986-6.951-6.355-6.951
		c-2.251,0-4.169,0.928-7.217,3.311v19.797h5.099v2.119h-14.434v-2.119h5.099V200.432z"/>
	<path fill="#7F7D7E" d="M-1749.834,221.816h-1.127c-1.918-4.303-4.302-6.223-7.681-6.223c-4.963,0-8.474,4.502-8.474,10.793
		c0,7.812,4.106,12.977,10.264,12.977c2.581,0,5.693-1.059,6.819-2.252c0.395-0.463,0.925-0.793,1.125-0.793
		c0.397,0,0.662,0.463,0.662,1.191c0,0.133,0,0.199-0.068,0.396c-2.119,2.715-5.891,4.369-9.798,4.369
		c-8.211,0-13.771-6.156-13.771-15.295c0-7.414,5.561-13.041,12.912-13.041c3.179,0,5.297,0.529,7.283,1.986l0.331-1.986h1.522
		V221.816z"/>
	<path fill="#7F7D7E" d="M-1721.162,240.488c-1.92,1.191-3.379,1.787-4.502,1.787c-2.185,0-3.243-0.793-4.702-3.377
		c-0.064-0.066-0.131-0.264-0.266-0.463l-0.726,0.529c-4.041,2.715-5.429,3.311-7.349,3.311c-3.245,0-6.157-3.377-6.157-7.018
		c0-2.846,1.191-5.031,3.374-6.09c1.26-0.529,2.912-1.127,4.968-1.592l4.502-1.125l0.729-0.197v-3.641
		c0-3.975-1.391-5.562-4.966-5.562c-2.119,0-3.84,0.596-6.822,2.449l-0.46,0.266l-0.464-1.523c3.308-3.111,5.956-4.303,9.269-4.303
		c2.979,0,5.427,1.258,6.62,3.443c0.994,1.787,1.259,2.977,1.259,6.75v8.742c0,4.369,1.191,6.555,3.575,6.555
		c0.529,0,0.795-0.066,2.118-0.662V240.488z M-1731.291,228.705c-6.422,0.926-9.335,2.779-9.335,5.957
		c0,2.316,1.854,4.039,4.369,4.039c1.324,0,2.582-0.529,4.502-1.92l0.464-0.332V228.705z"/>
	<path fill="#7F7D7E" d="M-1714.274,216.652l-5.031-0.066v-2.117h9.404v5.031h0.129l0.201-0.396
		c3.507-4.172,4.765-5.164,6.619-5.164c1.588,0,2.516,0.463,4.173,2.184c0.064,0.199,0.064,0.396,0.064,0.463
		c0,0.465-0.266,1.457-0.53,2.318c-0.464,1.521-0.53,1.789-0.993,2.648c-1.655-2.516-2.714-3.377-4.304-3.377
		c-1.719,0-3.905,1.854-5.359,4.502v16.818h5.296v2.119h-14.565v-2.119h4.896V216.652z"/>
	<path fill="#7F7D7E" d="M-1690.268,225.656c-0.068,0.465-0.068,0.664-0.068,0.994c0,7.615,4.37,12.979,10.594,12.979
		c2.844,0,5.296-0.861,8.808-3.047l-0.466,2.449c-3.311,2.252-6.293,3.244-9.799,3.244c-8.146,0-13.904-6.223-13.904-15.029
		c0-7.746,4.836-13.307,11.653-13.307c6.487,0,11.123,4.5,12.05,11.717H-1690.268z M-1676.231,223.803
		c-0.334-4.436-3.776-7.877-7.748-7.877c-3.443,0-5.959,3.111-6.288,7.877H-1676.231z"/>
</g>
</svg>
