<?xml version="1.0" encoding="utf-8"?>
<!-- Generator: Adobe Illustrator 15.1.0, SVG Export Plug-In . SVG Version: 6.00 Build 0)  -->
<!DOCTYPE svg PUBLIC "-//W3C//DTD SVG 1.1//EN" "http://www.w3.org/Graphics/SVG/1.1/DTD/svg11.dtd">
<svg version="1.1" id="Layer_1" xmlns="http://www.w3.org/2000/svg" xmlns:xlink="http://www.w3.org/1999/xlink" x="0px" y="0px"
	 width="595px" height="350px" viewBox="-1424 0 595 350" enable-background="new -1424 0 595 350" xml:space="preserve">
<g>
	<polygon fill="#7F7D7E" points="-1301.582,122.188 -1301.582,143.17 -1321.591,143.17 -1321.591,122.188 -1331.976,122.188 
		-1331.976,175.326 -1321.591,175.326 -1321.591,152.336 -1301.582,152.336 -1301.582,175.326 -1291.1,175.326 -1291.1,122.188 	"/>
	<g>
		<path fill="#7F7D7E" d="M-1239.228,160.117c-0.738,2.985-1.678,5.359-2.812,7.118c-1.826,2.85-4.196,5.084-7.102,6.702
			c-2.905,1.623-6.269,2.43-10.092,2.43c-4.068,0-7.964-1.02-11.667-3.075c-3.708-2.043-6.516-5.109-8.439-9.183
			c-1.924-4.077-2.884-8.877-2.884-14.411c0-5.768,0.981-10.86,2.935-15.282c1.958-4.425,4.8-7.742,8.524-9.951
			c3.729-2.213,7.658-3.316,11.778-3.316c3.032,0,6.001,0.671,8.91,2.017c2.905,1.338,5.305,3.241,7.203,5.691
			c1.321,1.716,2.371,3.984,3.165,6.809l-9.73,2.778c-0.692-2.871-1.929-5.042-3.695-6.512c-1.771-1.47-3.899-2.204-6.371-2.204
			c-3.708,0-6.592,1.792-8.651,5.382c-2.064,3.588-3.088,8.277-3.088,14.066c0,3.657,0.471,6.863,1.423,9.62
			c0.946,2.757,2.255,4.787,3.92,6.095c1.665,1.309,3.475,1.963,5.42,1.963c2.917,0,5.525-1.054,7.814-3.16
			c1.618-1.461,2.893-3.563,3.818-6.324L-1239.228,160.117z"/>
		<path fill="#7F7D7E" d="M-1218.849,122.188h11.09l17.295,53.143h-10.279l-4.034-12.471h-16.981l-4.025,12.471h-10.279
			L-1218.849,122.188z M-1213.28,136.57l-6.091,18.543h12.088L-1213.28,136.57z"/>
		<polygon fill="#7F7D7E" points="-1182.968,122.809 -1177.896,122.809 -1177.896,145.073 -1149.975,145.073 -1149.975,122.809 
			-1144.869,122.809 -1144.869,175.458 -1149.975,175.458 -1149.975,150.246 -1177.896,150.246 -1177.896,175.458 
			-1182.968,175.458 		"/>
		<path fill="#7F7D7E" d="M-1122.036,176.223c-4.795,0-8.826-1.746-12.088-5.241c-3.266-3.5-4.896-8.197-4.896-14.105
			c0-3.933,0.722-7.424,2.17-10.465c1.448-3.05,3.466-5.317,6.061-6.809c2.596-1.495,5.348-2.243,8.266-2.243
			c2.828,0,5.525,0.77,8.112,2.307c2.578,1.542,4.621,3.874,6.129,6.987c1.503,3.113,2.255,6.592,2.255,10.431
			c0,5.861-1.584,10.513-4.757,13.966C-1113.958,174.502-1117.708,176.223-1122.036,176.223 M-1122.49,171.916
			c3.058,0,5.717-1.321,7.968-3.959c2.264-2.637,3.389-6.426,3.389-11.353c0-4.867-1.1-8.571-3.295-11.119
			c-2.205-2.549-4.855-3.818-7.955-3.818c-3.288,0-6.053,1.3-8.283,3.89c-2.238,2.596-3.351,6.299-3.351,11.111
			c0,4.932,1.121,8.707,3.364,11.328C-1128.403,170.607-1125.685,171.916-1122.49,171.916"/>
		<path fill="#7F7D7E" d="M-1100.319,153.822c-1.826-1.924-2.744-4.064-2.744-6.426c0-2.731,1.126-5.089,3.373-7.067
			c2.242-1.983,5.368-2.97,9.377-2.97c2.659,0,5.178,0.484,7.553,1.453c2.369,0.969,4.396,2.399,6.061,4.298l-3.836,3.245
			c-1.439-1.64-2.926-2.854-4.451-3.627c-1.528-0.781-3.283-1.168-5.249-1.168c-2.527,0-4.442,0.548-5.755,1.635
			c-1.309,1.088-1.967,2.35-1.967,3.785c0,1.227,0.51,2.327,1.529,3.3c0.993,0.973,3.334,1.937,7.016,2.893
			c5.671,1.465,9.489,3.24,11.46,5.326c1.971,2.081,2.952,4.37,2.952,6.867c0,2.981-1.173,5.539-3.521,7.667
			c-2.354,2.128-5.551,3.189-9.604,3.189c-2.969,0-5.699-0.557-8.197-1.669c-2.501-1.117-5.139-2.969-7.917-5.568l4.358-3.041
			c2.081,2.081,4.035,3.567,5.861,4.46c1.826,0.892,3.763,1.342,5.793,1.342c2.595,0,4.6-0.625,6.022-1.864
			c1.423-1.232,2.132-2.685,2.132-4.358c0-1.385-0.53-2.578-1.597-3.571c-1.503-1.415-4.527-2.71-9.063-3.896
			c-2.799-0.738-5.127-1.559-6.979-2.459C-1098.638,155.152-1099.509,154.562-1100.319,153.822"/>
		<path fill="#7F7D7E" d="M-1064.808,142.848c2.038-1.831,4.115-3.198,6.234-4.111c2.119-0.922,4.277-1.377,6.478-1.377
			c2.752,0,5.377,0.786,7.866,2.362c2.488,1.575,4.392,3.898,5.712,6.978c1.321,3.08,1.983,6.465,1.983,10.143
			c0,3.87-0.684,7.314-2.055,10.334c-1.364,3.024-3.292,5.288-5.781,6.791c-2.488,1.504-5.066,2.256-7.726,2.256
			c-2.2,0-4.358-0.472-6.478-1.423s-4.196-2.357-6.234-4.239v19.107h-5.037v-51.544h5.037V142.848z M-1064.808,166.152
			c2.199,1.805,4.328,3.16,6.392,4.061c2.056,0.904,4.061,1.359,6.006,1.359c2.939,0,5.479-1.262,7.624-3.789
			c2.141-2.522,3.215-6.299,3.215-11.323c0-4.812-1.096-8.465-3.283-10.954c-2.188-2.488-4.833-3.737-7.938-3.737
			c-1.826,0-3.746,0.459-5.747,1.376c-2.005,0.913-4.09,2.298-6.269,4.149V166.152z"/>
		<path fill="#7F7D7E" d="M-1030.655,123.297h5.066v6.074h-5.066V123.297z M-1030.655,138.124h5.066v37.339h-5.066V138.124z"/>
		<path fill="#7F7D7E" d="M-1014.524,124.508h4.999v13.616h9.272v4.617h-9.272v23.203c0,1.924,0.51,3.419,1.529,4.498
			c1.015,1.074,2.387,1.613,4.095,1.613c0.926,0,2.145-0.183,3.648-0.556v4.553c-1.737,0.208-3.194,0.311-4.379,0.311
			c-3.564,0-6.1-0.744-7.62-2.222c-1.517-1.482-2.272-3.912-2.272-7.293v-24.107h-6.528v-4.617h6.528V124.508z"/>
		<path fill="#7F7D7E" d="M-998.087,144.585c2.387-2.477,4.969-4.303,7.747-5.476c2.777-1.163,5.495-1.75,8.159-1.75
			c3.079,0,5.703,0.685,7.87,2.048c2.17,1.372,3.665,3.058,4.497,5.071c0.625,1.555,0.939,3.627,0.939,6.218v15.838
			c0,3.147,0.356,6.125,1.074,8.924h-5.173c-0.625-2.195-0.965-4.285-1.011-6.248c-2.311,2.337-4.668,4.091-7.068,5.263
			c-2.395,1.164-4.837,1.75-7.344,1.75c-3.172,0-5.733-0.956-7.674-2.867c-1.945-1.906-2.923-4.311-2.923-7.207
			c0-2.366,0.761-4.579,2.265-6.644c1.503-2.06,3.839-3.682,7.016-4.867c2.311-0.857,7.557-2.175,15.729-3.958v-2.319
			c0-1.967-0.688-3.606-2.064-4.927c-1.381-1.316-3.117-1.979-5.229-1.979c-1.898,0-3.869,0.472-5.921,1.41
			c-2.052,0.935-4.438,2.562-7.174,4.88L-998.087,144.585z M-973.983,166.284v-11.889c-5.628,1.343-9.328,2.332-11.111,2.952
			c-2.85,0.973-4.939,2.229-6.273,3.775c-1.329,1.538-1.996,3.178-1.996,4.919c0,1.644,0.573,3.007,1.725,4.086
			c1.143,1.079,2.676,1.618,4.596,1.618c1.83,0,3.839-0.459,6.014-1.376C-978.855,169.457-976.511,168.094-973.983,166.284"/>
		<rect x="-960.664" y="122.809" fill="#7F7D7E" width="5.066" height="52.654"/>
		<path fill="#7F7D7E" d="M-946.343,153.822c-1.83-1.924-2.743-4.064-2.743-6.426c0-2.731,1.121-5.089,3.368-7.067
			c2.246-1.983,5.368-2.97,9.373-2.97c2.668,0,5.187,0.484,7.557,1.453c2.374,0.969,4.392,2.399,6.061,4.298l-3.84,3.245
			c-1.436-1.64-2.918-2.854-4.446-3.627c-1.529-0.781-3.283-1.168-5.25-1.168c-2.522,0-4.446,0.548-5.755,1.635
			c-1.309,1.088-1.963,2.35-1.963,3.785c0,1.227,0.51,2.327,1.525,3.3c0.998,0.973,3.334,1.937,7.012,2.893
			c5.671,1.465,9.493,3.24,11.464,5.326c1.971,2.081,2.956,4.37,2.956,6.867c0,2.981-1.177,5.539-3.525,7.667
			c-2.353,2.128-5.551,3.189-9.607,3.189c-2.96,0-5.691-0.557-8.197-1.669c-2.497-1.117-5.135-2.969-7.912-5.568l4.357-3.041
			c2.081,2.081,4.039,3.567,5.865,4.46c1.826,0.892,3.755,1.342,5.798,1.342c2.587,0,4.591-0.625,6.019-1.864
			c1.423-1.232,2.132-2.685,2.132-4.358c0-1.385-0.53-2.578-1.597-3.571c-1.504-1.415-4.527-2.71-9.064-3.896
			c-2.807-0.738-5.126-1.559-6.982-2.459C-944.669,155.152-945.535,154.562-946.343,153.822"/>
		<polygon fill="#7F7D7E" points="-1331.976,212.416 -1329.023,212.416 -1322.602,236.979 -1316.124,212.416 -1313.062,212.416 
			-1306.641,236.979 -1300.155,212.416 -1297.267,212.416 -1305.379,243.244 -1307.966,243.244 -1314.612,217.904 
			-1321.294,243.244 -1323.961,243.244 		"/>
		<path fill="#7F7D7E" d="M-1287.753,243.689c-2.807,0-5.164-1.027-7.076-3.07c-1.906-2.049-2.866-4.797-2.866-8.258
			c0-2.301,0.425-4.35,1.27-6.125c0.85-1.783,2.034-3.117,3.551-3.988c1.517-0.875,3.13-1.312,4.838-1.312
			c1.652,0,3.231,0.451,4.748,1.355c1.508,0.9,2.706,2.26,3.589,4.082c0.884,1.822,1.321,3.865,1.321,6.111
			c0,3.432-0.931,6.154-2.786,8.172C-1283.025,242.678-1285.217,243.689-1287.753,243.689 M-1288.017,241.166
			c1.789,0,3.344-0.773,4.664-2.318c1.325-1.543,1.983-3.764,1.983-6.646c0-2.846-0.646-5.018-1.929-6.504
			c-1.291-1.494-2.841-2.242-4.658-2.242c-1.925,0-3.539,0.764-4.851,2.281c-1.309,1.516-1.963,3.686-1.963,6.506
			c0,2.889,0.659,5.098,1.976,6.627C-1291.481,240.402-1289.89,241.166-1288.017,241.166"/>
		<path fill="#7F7D7E" d="M-1271.21,226.326c1.22-1.873,2.494-3.24,3.832-4.107c1.333-0.871,2.857-1.303,4.565-1.303
			c0.187,0,0.463,0.008,0.815,0.02l-0.429,3.275l-1.079-0.059c-0.785-0.043-1.669,0.139-2.642,0.557
			c-0.981,0.416-1.853,1.07-2.616,1.965c-0.765,0.889-1.363,2.006-1.797,3.33c-0.434,1.33-0.65,2.502-0.65,3.518v9.717h-2.969
			v-21.855h2.969V226.326z"/>
		<rect x="-1259.003" y="212.416" fill="#7F7D7E" width="2.969" height="30.828"/>
		<path fill="#7F7D7E" d="M-1235.057,212.416h2.943v24.014c0,1.25,0.081,2.537,0.247,3.871c0.161,1.338,0.344,2.314,0.547,2.938
			h-3.045c-0.327-1.125-0.497-2.131-0.51-3.027c-1.316,1.15-2.616,2.021-3.895,2.604c-1.283,0.582-2.544,0.875-3.793,0.875
			c-2.468,0-4.583-1.002-6.354-3.004c-1.771-2-2.65-4.764-2.65-8.303c0-3.619,0.892-6.43,2.671-8.436
			c1.784-2.008,3.908-3.012,6.376-3.012c1.257,0,2.484,0.268,3.678,0.803c1.193,0.541,2.451,1.385,3.784,2.553V212.416z
			 M-1235.057,226.854c-1.224-1.084-2.421-1.891-3.602-2.426c-1.181-0.539-2.336-0.807-3.475-0.807c-1.86,0-3.401,0.723-4.638,2.166
			c-1.236,1.439-1.848,3.58-1.848,6.414c0,2.969,0.629,5.186,1.886,6.658c1.262,1.471,2.804,2.205,4.621,2.205
			c1.108,0,2.255-0.271,3.437-0.824c1.176-0.547,2.383-1.371,3.618-2.473V226.854z"/>
		<rect x="-1226.608" y="230.799" fill="#7F7D7E" width="5.793" height="3.012"/>
		<path fill="#7F7D7E" d="M-1192.622,234.068c-0.518,1.955-1.21,3.543-2.076,4.758c-1.139,1.613-2.553,2.854-4.248,3.721
			c-1.699,0.871-3.491,1.305-5.39,1.305c-2.289,0-4.379-0.625-6.269-1.883c-1.891-1.252-3.398-3.113-4.523-5.58
			c-1.13-2.469-1.69-5.348-1.69-8.645c0-2.938,0.509-5.686,1.537-8.248c1.02-2.564,2.48-4.48,4.384-5.754
			c1.89-1.275,4.014-1.916,6.362-1.916c2.056,0,3.853,0.395,5.386,1.172c1.528,0.777,2.888,1.988,4.064,3.627
			c0.87,1.211,1.541,2.74,2.013,4.596l-3.211,0.51c-0.649-2.4-1.682-4.188-3.092-5.369c-1.405-1.176-3.046-1.766-4.923-1.766
			c-2.531,0-4.612,0.98-6.234,2.947c-1.971,2.369-2.948,5.734-2.948,10.082c0,4.486,0.994,7.961,2.986,10.41
			c1.651,2.018,3.716,3.033,6.18,3.033c1.508,0,2.862-0.357,4.077-1.062c1.211-0.705,2.222-1.697,3.016-2.988
			c0.519-0.824,0.973-2.014,1.363-3.557L-1192.622,234.068z"/>
		<rect x="-1188.808" y="212.416" fill="#7F7D7E" width="2.965" height="30.828"/>
		<path fill="#7F7D7E" d="M-1180.784,225.166c1.393-1.447,2.904-2.518,4.531-3.201s3.22-1.029,4.778-1.029
			c1.801,0,3.339,0.404,4.604,1.199c1.27,0.803,2.145,1.791,2.633,2.969c0.365,0.908,0.548,2.123,0.548,3.639v9.277
			c0,1.838,0.208,3.58,0.633,5.219h-3.032c-0.365-1.287-0.561-2.506-0.586-3.66c-1.359,1.371-2.74,2.395-4.137,3.084
			c-1.406,0.684-2.842,1.027-4.303,1.027c-1.856,0-3.352-0.561-4.494-1.678c-1.138-1.125-1.707-2.527-1.707-4.227
			c0-1.381,0.438-2.676,1.32-3.881c0.884-1.211,2.252-2.162,4.107-2.855c1.355-0.5,4.426-1.273,9.213-2.318v-1.355
			c0-1.146-0.408-2.111-1.211-2.883c-0.811-0.77-1.826-1.156-3.062-1.156c-1.108,0-2.264,0.271-3.465,0.824
			c-1.203,0.549-2.596,1.5-4.197,2.859L-1180.784,225.166z M-1166.675,237.871v-6.963c-3.296,0.791-5.467,1.365-6.507,1.73
			c-1.669,0.568-2.893,1.307-3.675,2.207c-0.776,0.906-1.163,1.861-1.163,2.881c0,0.963,0.335,1.762,1.007,2.391
			c0.666,0.633,1.562,0.947,2.688,0.947c1.07,0,2.247-0.268,3.521-0.803C-1169.529,239.727-1168.157,238.928-1166.675,237.871"/>
		<path fill="#7F7D7E" d="M-1158.023,230.574c-1.07-1.127-1.605-2.379-1.605-3.764c0-1.594,0.654-2.977,1.971-4.133
			c1.312-1.16,3.144-1.742,5.487-1.742c1.559,0,3.033,0.285,4.422,0.855c1.393,0.568,2.569,1.4,3.551,2.51l-2.251,1.902
			c-0.837-0.959-1.708-1.67-2.604-2.127c-0.896-0.451-1.92-0.68-3.071-0.68c-1.482,0-2.6,0.318-3.368,0.959
			c-0.769,0.633-1.151,1.371-1.151,2.213c0,0.719,0.298,1.359,0.893,1.932c0.586,0.57,1.953,1.135,4.107,1.695
			c3.316,0.857,5.555,1.895,6.711,3.113c1.154,1.219,1.729,2.561,1.729,4.021c0,1.746-0.685,3.242-2.064,4.49
			c-1.376,1.244-3.249,1.865-5.619,1.865c-1.737,0-3.334-0.324-4.8-0.977c-1.465-0.654-3.007-1.742-4.634-3.264l2.553-1.779
			c1.219,1.225,2.361,2.094,3.432,2.617c1.07,0.521,2.2,0.781,3.394,0.781c1.513,0,2.688-0.361,3.521-1.088
			c0.837-0.727,1.249-1.576,1.249-2.553c0-0.814-0.314-1.508-0.936-2.094c-0.879-0.824-2.649-1.584-5.309-2.275
			c-1.64-0.434-2.998-0.914-4.082-1.441C-1157.042,231.352-1157.552,231.006-1158.023,230.574"/>
		<path fill="#7F7D7E" d="M-1138.881,230.574c-1.07-1.127-1.605-2.379-1.605-3.764c0-1.594,0.658-2.977,1.971-4.133
			c1.312-1.16,3.144-1.742,5.487-1.742c1.563,0,3.037,0.285,4.426,0.855c1.385,0.568,2.574,1.4,3.547,2.51l-2.247,1.902
			c-0.841-0.959-1.712-1.67-2.607-2.127c-0.896-0.451-1.916-0.68-3.071-0.68c-1.482,0-2.6,0.318-3.368,0.959
			c-0.765,0.633-1.146,1.371-1.146,2.213c0,0.719,0.293,1.359,0.888,1.932c0.586,0.57,1.953,1.135,4.107,1.695
			c3.321,0.857,5.56,1.895,6.711,3.113c1.15,1.219,1.732,2.561,1.732,4.021c0,1.746-0.688,3.242-2.068,4.49
			c-1.372,1.244-3.249,1.865-5.619,1.865c-1.733,0-3.334-0.324-4.795-0.977c-1.466-0.654-3.012-1.742-4.639-3.264l2.553-1.779
			c1.219,1.225,2.361,2.094,3.428,2.617c1.074,0.521,2.204,0.781,3.397,0.781c1.513,0,2.693-0.361,3.521-1.088
			c0.837-0.727,1.249-1.576,1.249-2.553c0-0.814-0.311-1.508-0.936-2.094c-0.883-0.824-2.646-1.584-5.305-2.275
			c-1.639-0.434-3.002-0.914-4.086-1.441C-1137.899,231.352-1138.409,231.006-1138.881,230.574"/>
		<polygon fill="#7F7D7E" points="-1108.746,212.416 -1105.782,212.416 -1105.782,225.447 -1089.43,225.447 -1089.43,212.416 
			-1086.443,212.416 -1086.443,243.244 -1089.43,243.244 -1089.43,228.48 -1105.782,228.48 -1105.782,243.244 -1108.746,243.244 		
			"/>
		<path fill="#7F7D7E" d="M-1063.623,238.338c-1.338,1.805-2.765,3.15-4.29,4.031c-1.516,0.875-3.088,1.32-4.714,1.32
			c-2.574,0-4.782-1.016-6.626-3.041s-2.77-4.852-2.77-8.469c0-3.484,0.913-6.227,2.74-8.232c1.821-2.004,3.949-3.012,6.392-3.012
			c1.627,0,3.189,0.48,4.697,1.432c1.504,0.957,2.63,2.252,3.381,3.879c0.757,1.627,1.151,3.736,1.189,6.34h-15.426
			c0.063,1.734,0.331,3.16,0.79,4.27c0.611,1.465,1.431,2.531,2.463,3.203c1.028,0.674,2.026,1.006,2.986,1.006
			c2.412,0,4.668-1.479,6.774-4.434L-1063.623,238.338z M-1066.711,229.924c-0.217-2.061-0.917-3.674-2.103-4.85
			c-1.185-1.168-2.527-1.76-4.018-1.76c-1.813,0-3.271,0.697-4.362,2.086c-1.087,1.389-1.669,2.896-1.737,4.523H-1066.711z"/>
		<path fill="#7F7D7E" d="M-1060.985,225.166c1.397-1.447,2.905-2.518,4.531-3.201c1.632-0.684,3.22-1.029,4.783-1.029
			c1.801,0,3.334,0.404,4.6,1.199c1.27,0.803,2.149,1.791,2.638,2.969c0.365,0.908,0.548,2.123,0.548,3.639v9.277
			c0,1.838,0.208,3.58,0.629,5.219h-3.033c-0.365-1.287-0.561-2.506-0.586-3.66c-1.354,1.371-2.735,2.395-4.137,3.084
			c-1.401,0.684-2.833,1.027-4.299,1.027c-1.859,0-3.355-0.561-4.493-1.678c-1.138-1.125-1.712-2.527-1.712-4.227
			c0-1.381,0.441-2.676,1.325-3.881c0.88-1.211,2.247-2.162,4.107-2.855c1.354-0.5,4.426-1.273,9.208-2.318v-1.355
			c0-1.146-0.403-2.111-1.206-2.883c-0.812-0.77-1.831-1.156-3.062-1.156c-1.112,0-2.269,0.271-3.466,0.824
			c-1.202,0.549-2.6,1.5-4.2,2.859L-1060.985,225.166z M-1046.876,237.871v-6.963c-3.296,0.791-5.462,1.365-6.507,1.73
			c-1.665,0.568-2.893,1.307-3.67,2.207c-0.776,0.906-1.163,1.861-1.163,2.881c0,0.963,0.331,1.762,1.002,2.391
			c0.671,0.633,1.567,0.947,2.693,0.947c1.07,0,2.242-0.268,3.516-0.803C-1049.73,239.727-1048.354,238.928-1046.876,237.871"/>
		<rect x="-1038.037" y="212.416" fill="#7F7D7E" width="2.964" height="30.828"/>
		<path fill="#7F7D7E" d="M-1027.56,213.414h2.931v7.969h5.424v2.705h-5.424v13.582c0,1.123,0.298,2.002,0.896,2.631
			c0.595,0.633,1.394,0.945,2.396,0.945c0.544,0,1.253-0.105,2.132-0.322v2.664c-1.015,0.119-1.868,0.182-2.561,0.182
			c-2.081,0-3.572-0.438-4.46-1.303c-0.888-0.863-1.334-2.285-1.334-4.27v-14.109h-3.822v-2.705h3.822V213.414z"/>
		<path fill="#7F7D7E" d="M-1015.794,212.416h2.969v11.387c2.506-1.262,4.289-2.055,5.355-2.377c1.066-0.328,2.094-0.484,3.08-0.484
			c1.762,0,3.202,0.607,4.318,1.826c1.117,1.219,1.678,3.037,1.678,5.449v15.027h-2.969v-15.699c0-1.262-0.326-2.217-0.98-2.879
			c-0.658-0.658-1.584-0.982-2.778-0.982c-1.058,0-2.226,0.217-3.508,0.654c-1.278,0.447-2.681,1.105-4.196,1.984v16.922h-2.969
			V212.416z"/>
		<path fill="#7F7D7E" d="M-976.728,237.934c-0.985,1.779-2.072,3.105-3.254,3.984c-1.571,1.182-3.338,1.771-5.305,1.771
			c-1.703,0-3.309-0.463-4.804-1.385c-1.503-0.922-2.658-2.26-3.482-4.006c-0.815-1.75-1.224-3.754-1.224-6.014
			c0-3.486,0.931-6.248,2.791-8.287c1.86-2.037,4.111-3.062,6.74-3.062c1.775,0,3.39,0.473,4.842,1.406
			c1.448,0.936,2.685,2.336,3.695,4.205l-2.582,1.406c-0.824-1.537-1.717-2.676-2.685-3.428c-0.96-0.752-2.064-1.125-3.313-1.125
			c-1.775,0-3.309,0.756-4.604,2.271c-1.295,1.521-1.937,3.785-1.937,6.797c0,2.654,0.653,4.756,1.958,6.297
			c1.308,1.547,2.807,2.32,4.506,2.32c2.562,0,4.587-1.525,6.074-4.574L-976.728,237.934z"/>
		<path fill="#7F7D7E" d="M-974.218,225.166c1.402-1.447,2.91-2.518,4.536-3.201c1.627-0.684,3.22-1.029,4.782-1.029
			c1.801,0,3.335,0.404,4.601,1.199c1.27,0.803,2.149,1.791,2.638,2.969c0.365,0.908,0.548,2.123,0.548,3.639v9.277
			c0,1.838,0.208,3.58,0.628,5.219h-3.032c-0.361-1.287-0.561-2.506-0.586-3.66c-1.354,1.371-2.735,2.395-4.137,3.084
			c-1.401,0.684-2.833,1.027-4.299,1.027c-1.86,0-3.355-0.561-4.493-1.678c-1.139-1.125-1.712-2.527-1.712-4.227
			c0-1.381,0.441-2.676,1.325-3.881c0.879-1.211,2.247-2.162,4.107-2.855c1.354-0.5,4.426-1.273,9.208-2.318v-1.355
			c0-1.146-0.403-2.111-1.206-2.883c-0.808-0.77-1.831-1.156-3.062-1.156c-1.108,0-2.269,0.271-3.466,0.824
			c-1.202,0.549-2.6,1.5-4.2,2.859L-974.218,225.166z M-960.104,237.871v-6.963c-3.296,0.791-5.462,1.365-6.507,1.73
			c-1.665,0.568-2.893,1.307-3.67,2.207c-0.777,0.906-1.164,1.861-1.164,2.881c0,0.963,0.336,1.762,0.998,2.391
			c0.676,0.633,1.576,0.947,2.697,0.947c1.07,0,2.242-0.268,3.517-0.803C-962.954,239.727-961.582,238.928-960.104,237.871"/>
		<path fill="#7F7D7E" d="M-948.666,226.326c1.22-1.873,2.497-3.24,3.831-4.107c1.338-0.871,2.854-1.303,4.566-1.303
			c0.191,0,0.459,0.008,0.811,0.02l-0.424,3.275l-1.075-0.059c-0.786-0.043-1.669,0.139-2.646,0.557
			c-0.978,0.416-1.848,1.07-2.612,1.965c-0.765,0.889-1.368,2.006-1.797,3.33c-0.433,1.33-0.654,2.502-0.654,3.518v9.717h-2.964
			v-21.855h2.964V226.326z"/>
		<path fill="#7F7D7E" d="M-921.028,238.338c-1.338,1.805-2.766,3.15-4.286,4.031c-1.521,0.875-3.087,1.32-4.714,1.32
			c-2.574,0-4.787-1.016-6.631-3.041c-1.843-2.025-2.765-4.852-2.765-8.469c0-3.484,0.913-6.227,2.735-8.232
			c1.822-2.004,3.954-3.012,6.393-3.012c1.627,0,3.193,0.48,4.697,1.432c1.508,0.957,2.633,2.252,3.385,3.879
			s1.146,3.736,1.186,6.34h-15.427c0.068,1.734,0.331,3.16,0.794,4.27c0.607,1.465,1.432,2.531,2.46,3.203
			c1.027,0.674,2.026,1.006,2.99,1.006c2.408,0,4.667-1.479,6.77-4.434L-921.028,238.338z M-924.116,229.924
			c-0.217-2.061-0.918-3.674-2.103-4.85c-1.189-1.168-2.522-1.76-4.014-1.76c-1.817,0-3.271,0.697-4.362,2.086
			c-1.087,1.389-1.673,2.896-1.736,4.523H-924.116z"/>
	</g>
</g>
</svg>
