<?xml version="1.0" encoding="utf-8"?>
<!-- Generator: Adobe Illustrator 15.1.0, SVG Export Plug-In . SVG Version: 6.00 Build 0)  -->
<!DOCTYPE svg PUBLIC "-//W3C//DTD SVG 1.1//EN" "http://www.w3.org/Graphics/SVG/1.1/DTD/svg11.dtd">
<svg version="1.1" id="Layer_1" xmlns="http://www.w3.org/2000/svg" xmlns:xlink="http://www.w3.org/1999/xlink" x="0px" y="0px"
	 width="595px" height="350px" viewBox="-696 0 595 350" enable-background="new -696 0 595 350" xml:space="preserve">
<g>
	<path fill="#7F7D7E" d="M-613.845,184.696c0-0.7-0.217-0.862-1.086-0.862c-0.796,0-6.699,0.316-10.646,0.316
		c-1.358,0-3.568-0.154-5.237-0.154c-1.086,0-1.52,0.312-1.52,1.168c0,1.512,1.089,0.466,2.831,1.269
		c1.009,0.483,1.078,2.332,1.078,6.035v2.895c0,8.202-0.213,13.033-0.865,13.597c-1.013,0.801-6.327,0.88-17.275,0.88
		c-5.945,0-9.717-0.32-15.301-0.807c0.222-13.752,0.146-21.151,1.236-22.519c1.302-1.661,3.768,0.079,3.768-1.896
		c0-0.702-0.213-0.863-0.796-0.863s-8.567,0.241-15.743,0.241h-1.665c-1.014,0-1.375,0.391-1.375,1.168
		c0,0.866,0.294,1.112,0.869,1.112l0.796-0.084c2.819,0,2.819,2.01,2.819,8.686c0,17.369-0.073,30.965-0.868,40.772
		c-0.363,4.428-0.724,6.182-0.724,6.421c0,0.562,0.434,1.124,1.23,1.124c0.58,0,6.873-1.762,10.965-2.479
		c1.887-0.319,2.534-0.241,2.534-1.524c0-0.484-0.213-0.805-0.43-0.805c-0.439,0-0.874,0.157-1.38,0.157
		c-1.807,0-1.879-1.284-1.879-3.857c0-11.822,0.217-17.164,0.865-18.529c0.797-1.693,2.993-1.771,8.726-1.771
		c8.768,0,15.509,0.322,23.847,0.964c0.148,2.817,0.292,4.618,0.292,7.753c0,10.859-0.8,16.65-0.8,17.689
		c0,0.801,0.076,1.116,0.656,1.116c0.575,0,6.58-1.03,10.165-1.994c2.747-0.724,3.755-0.646,3.755-1.852
		c0-0.481-0.362-0.804-0.864-0.804c-0.506,0-1.013,0.161-1.376,0.161c-1.592,0-1.66-1.448-1.66-6.192
		c0-28.627,0.791-43.589,1.516-44.637C-616.307,185.011-613.845,186.514-613.845,184.696"/>
	<path fill="#7F7D7E" d="M-599.49,198.439c0,0.183-0.221,1.026-0.328,2.953c-0.162,2.772-0.486,10.876-0.486,25.511v3.654
		c0,5.119,0.106,6.982,1.192,6.982c1.354,0,2.551-0.962,3.361-0.962c0.327,0,0.596,0.357,0.596,0.902
		c0,1.146-1.465,1.023-3.85,1.865c-4.283,1.568-10.386,3.263-10.816,3.263c-0.328,0-0.651-0.362-0.651-0.848
		c0-0.668,0.92-0.729,1.192-2.717c0.328-2.407,0.435-9.612,0.435-22.86c0-9.036-0.107-13.405-0.597-14.369
		c-0.379-0.784-1.303-0.902-1.303-1.447c0-0.658,0.596-0.602,1.354-0.901c2.93-1.086,8.542-1.938,8.87-1.938L-599.49,198.439"/>
	<path fill="#7F7D7E" d="M-569.874,242.642c-14.606,0-24.554-8.78-24.554-22.286c0-14.406,9.79-22.889,25.695-22.889
		c6.4,0,12.592,1.49,17.425,3.956c-1.414,4.765-1.085,6.637-2.172,6.637c-1.196,0-0.179-1.623-1.303-3.682
		c-0.971-1.779-6.703-3.113-12.622-3.025c-11.74,0.174-17.37,6.399-17.37,18.341c0,12.72,5.374,18.938,19.273,18.938
		c7.384,0,6.818-1.215,6.818-6.338c0-3.798-2.44-4.701-2.44-5.425c0-0.426,7.588-2.355,9.001-2.355
		c0.925,0,1.465,3.318,1.465,10.013c0,2.11-0.055,3.918-0.11,5.303C-557.771,241.629-564.121,242.642-569.874,242.642"/>
	<path fill="#7F7D7E" d="M-528.597,220.362c-4.271,0-5.127,0.061-5.723,1.323c-0.49,1.023-0.651,5.95-0.651,14.795
		c0,1.921,0.051,2.886,1.409,2.886l1.031-0.114l0.319,0.598c0,0.966-0.481,0.901-1.891,1.145c-3.095,0.545-8.87,1.878-9.3,1.878
		c-0.601,0-0.924-0.426-0.924-0.852c0-0.179,0.268-1.507,0.544-4.816c0.592-7.337,0.647-17.5,0.647-30.491
		c0-4.996,0-6.506-2.112-6.506l-0.6,0.061c-0.43,0-0.647-0.178-0.647-0.847c0-0.604,0.269-0.912,1.026-0.912h1.248
		c5.43,0,12.442-0.178,12.877-0.178c0.43,0,0.591,0.119,0.591,0.665c0,1.511-1.839,0.182-2.811,1.451
		c-0.813,1.024-0.758,5.311-0.919,15.604c4.165,0.362,6.502,0.603,10.939,0.603c8.171,0,11.979-0.479,12.736-1.081
		c0.49-0.423,0.652-2.36,0.652-8.5v-2.17c0-2.77-0.056-4.151-0.814-4.514c-1.298-0.606-2.108,0.18-2.108-0.969
		c0-0.667,0.319-0.912,1.132-0.912c1.248,0,2.44,0.124,3.471,0.124c2.981,0,8.917-0.245,9.514-0.245
		c0.651,0,0.818,0.121,0.818,0.667c0,1.393-1.844,0.244-2.662,1.452c-0.541,0.786-1.137,11.982-1.137,33.389
		c0,3.551,0.056,4.633,1.248,4.633l1.026-0.127l0.656,0.604c0,0.902-0.758,0.844-2.819,1.388c-2.713,0.725-8.27,1.512-8.704,1.512
		c-0.435,0-0.49-0.243-0.49-0.847c0-0.789,0.596-5.119,0.596-13.236c0-2.346-0.106-4.637-0.217-6.736
		C-516.865,220.602-522.048,220.362-528.597,220.362"/>
	<path fill="#7F7D7E" d="M-293.159,236.195c-0.379,0-0.996,0.767-2.078,0.767c-3.791,0-7.078-7.657-13.929-24.459
		c-4.706-11.464-5.323-16.583-6.085-16.583c-0.92,0-8.33,2.006-8.312,2.478c0.012,0.174,0.313,0.545,0.215,1.054
		c-0.609,3.058-3.623,12.402-10.653,27.021c-2.836,5.898-4.417,8.352-6.255,11.26c-0.4,0.627-1.125,1.741-2.117,3.163
		c-0.35,0.503-1.848,1.202-2.04,1.661c-0.191,0.461,0.41,0.938,0.49,1.005c0.608,0.507,1.508-0.305,6.43-1.005
		c0.724-0.103,1.418-2.452,1.888-3.45c0.795-1.66,0.979-2.546,2.427-5.155c1.052-1.886,4.144-8.062,4.144-8.062
		s6.651-0.408,13.132-0.408c0.92,0,2.002-0.064,3.412-0.064c5.143,11.545,7.911,17.435,8.831,17.435
		c0.597,0,3.731-1.253,6.192-2.727c2.389-1.426,4.961-2.695,4.944-3.044L-293.159,236.195 M-324.313,221.355
		c-1.291,0-1.844,0.192-3.139,0.144c3.237-7.353,5.762-13.248,6.553-15.999c2.5,7.103,4.583,12.253,6.119,15.506
		C-317.951,221.254-321.127,221.355-324.313,221.355"/>
	<path fill="#7F7D7E" d="M-280.277,232.938c0,3.977,0.11,5.361,2.385,5.361c0.924,0,1.736-0.303,2.384-0.303
		c0.328,0,0.328,0.06,0.328,0.661c0,1.512-0.596,0.787-4.012,1.749c-3.905,1.146-9.791,2.475-10.058,2.475
		c-0.489,0-0.706-0.179-0.706-0.604c0-0.486,0.488-1.509,0.646-3.135c0.327-3.017,0.489-10.545,0.489-22.652v-2.708
		c0-6.328-0.05-8.625-0.78-9.445c-0.595-0.724-0.179-0.965-3.321-0.965c-3.742,0-5.821,0.363-7.61,1.327
		c-1.57,0.841-1.844,0.911-2.439,0.911c-0.323,0-0.545-0.301-0.545-0.902c0-0.184,0.061,0.715,0.061,0.049
		c0-1.506-0.112-3.844-0.112-4.627v-0.965c0-0.601,0.112-0.903,0.92-0.903c0.869,0,6.127,0.241,15.824,0.241
		c13.064,0,20.436-0.178,22.062-0.178c0.647,0,0.81,0.121,0.81,0.602c0,1.986-0.378,3.122-1.57,3.183
		c-5.26,0.238-9.224,0.371-14.321,1.273C-280.277,218.143-280.308,227.414-280.277,232.938"/>
	<path fill="#7F7D7E" d="M-244.737,242.702c-4.658-0.056-10.076-0.967-12.03-3.134c-2.934-3.254-4.658-7.53-4.658-12.704v-1.626
		c0-5.418,0.157-10.659,0.157-15.657c0-6.807-0.873-8.686-0.596-8.791c1.018-0.388,3.683-0.937,5.646-1.486
		c3.926-1.098,6.579-1.959,6.851-1.959c0.328,0,0.708,0.49,0.708,1.095c0,1.026-1.738,1.086-2.709,3.191
		c-0.867,1.93-1.464,8.191-1.464,18.552v4.212c0,4.519,0.332,7.563,1.797,9.913c1.516,2.407,5.083,3.221,10.122,3.221
		c4.498,0,7.309-1.682,11.86-4.392c0.217-5.059,0.43-11.812,0.43-22.831c0-4.64-0.11-7.349-0.808-8.251
		c-0.274-0.362-1.032-0.424-1.032-1.208c0-0.78,1.759-1.047,3.212-1.464c3.057-0.89,7.601-1.793,7.872-1.793
		c0.274,0,0.763,0.667,0.763,1.211c0,0.24-0.65,1.382-0.924,4.636c-0.49,6.687-0.707,15.66-0.707,27.104
		c0,7.886,1.415,8.908,1.415,9.334c0,0.417-0.546,0.602-1.358,0.843c-2.602,0.784-8.155,1.627-8.542,1.627
		c-0.54,0-0.698-0.365-0.698-1.081c0-0.427,0.217-1.512,0.217-3.377c0-0.064-0.367-0.609,0.051-0.844
		C-234.947,240.352-238.167,242.787-244.737,242.702"/>
	<path fill="#7F7D7E" d="M-119.13,187.935c-1.66-1.635-3.917-2.595-6.226-2.595c-2.363,0-4.629,0.934-6.285,2.595
		c-1.678,1.693-2.585,3.902-2.585,6.24c0,2.41,0.907,4.605,2.615,6.271c1.703,1.669,3.871,2.563,6.158,2.563
		c2.432,0,4.534-0.867,6.195-2.515c1.738-1.714,2.7-4.014,2.7-6.295C-116.558,191.837-117.493,189.552-119.13,187.935
		 M-119.96,199.721c-1.472,1.497-3.318,2.268-5.417,2.268c-2.082,0-3.964-0.771-5.459-2.268c-1.498-1.477-2.299-3.396-2.299-5.546
		c0-2.081,0.801-4.032,2.274-5.521c1.469-1.456,3.454-2.301,5.505-2.301c2.001,0,3.973,0.845,5.421,2.275
		c1.453,1.412,2.287,3.492,2.287,5.547C-117.647,196.25-118.452,198.216-119.96,199.721"/>
	<path fill="#7F7D7E" d="M-120.377,196.896c0,1.117-0.31,1.684-0.855,1.684c-0.779,0-0.604-0.906-0.852-1.915
		c-0.357-1.426-1.091-2.179-2.654-2.669c2.449-0.439,3.561-1.207,3.561-2.493c0-1.486-1.414-2.518-3.944-2.518h-4.939v0.541
		c1.213,0.05,1.597,0.308,1.597,1.256v6.504c0,0.933-0.413,1.24-1.597,1.268v0.497h4.833v-0.497
		c-1.173-0.053-1.557-0.335-1.557-1.268v-3.138h0.408c1.409,0,2.257,0.521,2.584,1.685c0.205,0.729-0.025,1.762,0.383,2.642
		c0.261,0.501,0.793,0.809,1.572,0.809c1.306,0,2.005-0.757,2.005-2.229v-0.157H-120.377 M-126.785,193.661v-3.288
		c0-0.589,0.46-0.897,1.302-0.897c1.593,0,2.462,0.87,2.462,2.027c0,1.36-1.022,2.184-2.947,2.184
		C-126.091,193.687-126.377,193.687-126.785,193.661"/>
	<path fill="#7F7D7E" d="M-398.62,195.054c-0.626-5.257-2.968-8.859-5.787-8.859l-0.796,0.079c-0.575,0-0.865-0.241-0.865-1.107
		c0-0.781,0.357-1.17,1.376-1.17h1.661c7.18,0,15.169-0.244,15.753-0.244c0.58,0,0.797,0.162,0.797,0.869
		c0,1.975-2.557,1.8-2.791,3.213c-0.29,1.723,1.256,3.062,6.281,9.654c5.028,6.594,29.006,32.835,29.59,32.967
		c0.639,0.145,0.698-1.014,0.736-1.482c0.703-8.963,0.834-12.395,0.834-18.795c0-4.701-0.069-7.98-0.302-12.375
		c-0.234-4.397-1.776-10.884-2.785-11.37c-1.741-0.8-2.831,0.24-2.831-1.267c0-0.861,0.434-1.17,1.52-1.17
		c1.674,0,3.88,0.156,5.237,0.156c3.952,0,7.969-0.317,8.76-0.317c0.869,0,1.085,0.161,1.085,0.862c0,1.814-2.457,0.312-3.539,1.898
		c-0.724,1.042-1.481,5.79-1.72,16.309c-0.234,10.519-0.579,24.841-0.554,34.159c0.004,2.755-0.208,3.696-0.661,4.446
		c-0.404,0.66-3.649,0.774-4.539,0.774c-7.584-0.025-35.563-34.504-39.691-40.175l-0.902-1.28c0.132,3.989-0.449,6.065-0.449,13.401
		l-0.729,18.37c0,3.97,0.082,5.166,1.318,5.166c1.882,0,4.19-1.419,4.686-1.419c0.247,0,0.591,0.683,0.591,1.133
		c0,0.57-2.024,1.312-5.978,3.573c-3.605,2.099-8.132,3.982-8.626,3.982c-0.298,0-0.643-0.631-0.643-1.086
		c0-0.737,2.266-1.449,2.959-3.262c0.489-1.36,1.665-10.17,1.665-24.686C-397.956,216.003-397.99,200.313-398.62,195.054"/>
	<path fill="#7F7D7E" d="M-450.632,240.829c-4.342,2.034-8.908,4.224-9.448,4.224c-0.324,0-0.703-0.665-0.703-1.15
		c0-0.783,1.84-1.086,2.598-3.015c0.545-1.448,0.706-9.875,0.706-25.294v-4.573c0-5.721-0.05-8.434-0.813-8.434
		c-1.46,0-3.956,2.052-4.714,2.052c-0.272,0-0.438-0.487-0.438-1.206c0-0.422,0.817-0.907,2.444-1.81
		c5.259-2.822,13.818-4.194,18.482-4.194c6.494,0,15.286,4.53,14.988,11.088c-0.208,4.681-2.206,6.184-5.39,9.075
		c-1.188,1.082-3.854,2.669-3.854,3.271c0,0.419,5.255,6.173,12.673,13.459c5.37,5.241,8.402,5.783,8.402,6.625
		c0,0.423-5.485,1.385-7.218,1.385c-3.202,0-7.426-4.271-14.615-11.859c-4.936-5.242-7.482-8.134-7.482-9.095
		c0-0.72,0.81-0.664,2.602-1.744c2.712-1.688,4.931-5.661,4.931-9.761c0-6.021-3.032-9.936-6.885-9.936
		c-2.326,0-3.433,1.328-3.872,3.675c-0.269,1.446-0.702,10.056-0.702,25.596v2.589c0,4.212,0.106,5.541,1.46,5.541
		c2.065,0,3.471-1.508,4.011-1.508c0.273,0,0.656,0.723,0.656,1.205C-442.813,237.635-446.139,238.725-450.632,240.829"/>
	<path fill="#7F7D7E" d="M-139.974,245.129c-2.614,1.576-7.316,2.861-12.975,2.827c-12.677-0.076-18.183-6.592-21.794-10.36
		c-7.222-7.532-12.724-16.312-12.724-16.733c0-0.604,2.069-1.711,3.261-2.796c3.182-2.892,5.354-6.687,5.354-10.179
		c0-6.562-8.496-10.459-14.99-10.459c-4.666,0-13.222,1.377-18.48,4.198c-1.627,0.902-2.444,1.382-2.444,1.806
		c0,0.724,0.161,1.202,0.438,1.202c0.759,0,3.253-2.046,4.713-2.046c0.758,0,0.814,2.709,0.814,8.431v4.578
		c0,15.41-0.167,23.847-0.708,25.29c-0.758,1.924-2.597,2.228-2.597,3.015c0,0.481,0.375,1.15,0.703,1.15
		c0.54,0,5.34-2.283,9.449-4.224c4.395-2.083,7.814-3.194,7.814-3.795c0-0.482-0.379-1.205-0.651-1.205
		c-0.542,0-2.116,1.269-4.182,1.269c-1.35,0-1.295-1.086-1.295-5.302v-2.593c0-15.533,0.439-24.146,0.707-25.592
		c0.435-2.347,1.542-3.674,3.871-3.674c3.854,0,6.886,3.917,6.886,9.94c0,4.094-2.223,8.064-4.931,9.754
		c-1.792,1.085-2.601,1.023-2.601,1.743c0,0.963,2.478,5.222,6.915,10.886c5.102,6.515,8.999,10.722,15.753,15.278
		c6.974,4.701,16.773,5.399,23.229,4.183c4.185-0.785,8.81-2.761,11.199-4.601c1.363-1.047,2.806-2.665,3.036-3.56
		c0.225-0.897-0.511-0.553-0.903-0.239C-137.5,243.639-138.629,244.32-139.974,245.129"/>
	<path fill="#7F7D7E" d="M-490.502,209.911c0-4.701-0.17-7.117-0.579-8.961l-1.482-0.8c-1.193,0-1.9,0.124-2.112,0.124
		c-0.596,0-0.813-0.124-0.813-0.79c0-0.853,0.379-0.977,1.137-0.977c4.445-0.18,11.374-0.296,16.356-0.25
		c5.966,0,8.947,0.062,8.947,0.965c0,0.536-0.868,4.622-1.354,4.622l-0.702-0.602c-0.818-0.545-2.984-1.173-6.613-1.173
		c-2.444,0-2.513,0-4.033,0.182c-0.213,4.101-0.378,7.459-0.378,13.847c2.005-0.116,3.542-0.241,8.312-0.241h3.253
		c1.188,0,1.516,0.125,1.516,0.542c0,0.664-0.541,4.143-1.844,4.143c-0.324,0-2.547-0.868-7.047-0.868
		c-2.167,0-2.347,0.058-4.19,0.298c-0.163,4.879-0.269,10.262-0.269,15.022v2.267c4.178,0.599,6.247,0.335,9.99,0.335
		c6.346,0,8.891-0.966,9.165-0.966l0.375,0.366c0,0.536-1.082,3.231-2.546,4.012c-0.869,0.48-6.124,0.902-15.505,0.902
		c-2.495,0-7.465-0.059-10.556-0.422C-490.771,229.936-490.502,219.34-490.502,209.911"/>
	<path fill="#7F7D7E" d="M-163.335,209.911c0-4.701-0.171-7.117-0.58-8.961l-1.477-0.8c-1.197,0-1.903,0.124-2.116,0.124
		c-0.597,0-0.813-0.124-0.813-0.79c0-0.853,0.378-0.977,1.137-0.977c4.447-0.18,11.366-0.296,16.357-0.25
		c5.965,0,8.946,0.062,8.946,0.965c0,0.536-0.869,4.622-1.354,4.622l-0.704-0.602c-0.817-0.545-2.985-1.173-6.617-1.173
		c-2.439,0-2.504,0-4.028,0.182c-0.213,4.101-0.378,7.459-0.378,13.847c2.005-0.116,3.543-0.241,8.311-0.241h3.253
		c1.188,0,1.517,0.125,1.517,0.542c0,0.664-0.542,4.143-1.844,4.143c-0.323,0-2.547-0.868-7.047-0.868
		c-2.171,0-2.347,0.058-4.189,0.298c-0.162,4.879-0.269,10.262-0.269,15.022v2.267c4.173,0.599,6.247,0.335,9.989,0.335
		c6.346,0,8.893-0.966,9.16-0.966l0.379,0.366c0,0.536-1.082,3.231-2.546,4.012c-0.869,0.48-6.128,0.902-15.505,0.902
		c-2.495,0-7.465-0.059-10.556-0.422C-163.603,229.936-163.335,219.34-163.335,209.911"/>
</g>
</svg>
