<?xml version="1.0" encoding="utf-8"?>
<!-- Generator: Adobe Illustrator 15.1.0, SVG Export Plug-In . SVG Version: 6.00 Build 0)  -->
<!DOCTYPE svg PUBLIC "-//W3C//DTD SVG 1.1//EN" "http://www.w3.org/Graphics/SVG/1.1/DTD/svg11.dtd">
<svg version="1.1" id="Layer_1" xmlns="http://www.w3.org/2000/svg" xmlns:xlink="http://www.w3.org/1999/xlink" x="0px" y="0px"
	 width="595px" height="350px" viewBox="1350 0 595 350" enable-background="new 1350 0 595 350" xml:space="preserve">
<g>
	<path fill="#7F7D7E" d="M1495.39,231.966c0.124,4.782,0.922,6.377,2.132,6.792c1.075,0.374,2.224,0.443,3.205,0.443
		c0.659,0,1.042,0.13,1.042,0.499c0,0.479-0.552,0.604-1.41,0.604c-4.002,0-6.454-0.192-7.604-0.192
		c-0.552,0-3.434,0.192-6.607,0.192c-0.813,0-1.365-0.062-1.365-0.604c0-0.369,0.384-0.499,0.979-0.499
		c0.798,0,1.918-0.069,2.76-0.305c1.611-0.492,1.842-2.254,1.903-7.592l0.551-36.289c0-1.201,0.184-2.077,0.813-2.077
		c0.659,0,1.194,0.798,2.252,1.894c0.721,0.813,10.045,10.791,18.998,19.67c4.169,4.184,12.418,13,13.475,13.983h0.292
		l-0.597-27.503c-0.061-3.766-0.614-4.916-2.088-5.536c-0.918-0.347-2.391-0.347-3.25-0.347c-0.719,0-0.978-0.198-0.978-0.559
		c0-0.506,0.671-0.552,1.593-0.552c3.205,0,6.131,0.184,7.42,0.184c0.676,0,3.006-0.184,6.012-0.184c0.781,0,1.41,0.046,1.41,0.552
		c0,0.36-0.386,0.559-1.104,0.559c-0.631,0-1.12,0-1.841,0.17c-1.732,0.49-2.223,1.772-2.27,5.206l-0.688,38.656
		c0,1.352-0.246,1.899-0.781,1.899c-0.677,0-1.398-0.664-2.086-1.331c-3.864-3.681-11.714-11.709-18.062-18.032
		c-6.7-6.606-13.507-14.266-14.579-15.438h-0.2L1495.39,231.966L1495.39,231.966z"/>
	<path fill="#7F7D7E" d="M1597.009,218.288c0-13.712-7.896-22.222-17.938-22.222c-7.053,0-15.069,3.928-15.069,19.188
		c0,12.737,7.035,22.846,18.779,22.846C1587.089,238.1,1597.009,236.043,1597.009,218.288L1597.009,218.288z M1555.536,217.142
		c0-10.459,6.916-24.004,25.311-24.004c15.241,0,24.733,8.882,24.733,22.913c0,14.036-9.798,25.12-25.359,25.12
		C1562.635,241.171,1555.536,227.991,1555.536,217.142L1555.536,217.142z"/>
	<path fill="#7F7D7E" d="M1625.602,199.994c-1.395-3.358-2.438-4.036-4.646-4.671c-0.934-0.24-1.887-0.24-2.391-0.24
		c-0.566,0-0.735-0.182-0.735-0.557c0-0.477,0.676-0.537,1.607-0.537c3.236,0,6.731,0.184,8.848,0.184
		c1.547,0,4.477-0.184,7.559-0.184c0.735,0,1.41,0.115,1.41,0.537c0,0.426-0.368,0.557-0.92,0.557c-0.995,0-1.899,0.07-2.392,0.434
		c-0.43,0.305-0.598,0.735-0.598,1.294c0,0.78,0.537,2.498,1.396,4.698l10.545,27.831h0.231c2.638-6.736,10.608-26.481,12.081-30.52
		c0.306-0.783,0.538-1.718,0.538-2.263c0-0.491-0.232-0.973-0.784-1.164c-0.735-0.24-1.654-0.311-2.45-0.311
		c-0.552,0-1.044-0.067-1.044-0.488c0-0.49,0.536-0.605,1.716-0.605c3.052,0,5.644,0.184,6.426,0.184
		c1.041,0,3.939-0.184,5.778-0.184c0.783,0,1.271,0.115,1.271,0.537c0,0.426-0.365,0.557-0.979,0.557c-0.611,0-1.915,0-2.989,0.738
		c-0.826,0.537-1.718,1.595-3.388,5.512c-2.392,5.766-4.047,9.06-7.342,16.605c-3.941,8.929-6.809,15.623-8.156,18.686
		c-1.598,3.544-1.965,4.547-2.822,4.547c-0.783,0-1.165-0.866-2.315-3.748L1625.602,199.994L1625.602,199.994z"/>
	<path fill="#7F7D7E" d="M1702.798,221.231c0.291,0,0.368-0.166,0.291-0.354l-5.506-15.132c-0.045-0.25-0.138-0.55-0.307-0.55
		c-0.185,0-0.274,0.3-0.352,0.55l-5.644,15.074c-0.059,0.245,0,0.411,0.263,0.411H1702.798L1702.798,221.231z M1690.286,224.314
		c-0.292,0-0.414,0.122-0.52,0.486l-3.329,8.783c-0.612,1.508-0.902,2.979-0.902,3.717c0,1.104,0.551,1.9,2.436,1.9h0.92
		c0.75,0,0.921,0.13,0.921,0.499c0,0.468-0.369,0.604-1.044,0.604c-1.962,0-4.599-0.192-6.501-0.192
		c-0.657,0-4.031,0.192-7.235,0.192c-0.782,0-1.148-0.137-1.148-0.604c0-0.369,0.244-0.499,0.732-0.499
		c0.554,0,1.396-0.069,1.903-0.124c2.82-0.366,3.971-2.453,5.214-5.493l15.359-38.501c0.753-1.768,1.121-2.435,1.719-2.435
		c0.552,0,0.922,0.541,1.519,1.946c1.486,3.365,11.3,28.355,15.224,37.67c2.315,5.543,4.094,6.391,5.381,6.683
		c0.921,0.185,1.839,0.254,2.578,0.254c0.488,0,0.781,0.063,0.781,0.499c0,0.468-0.554,0.604-2.806,0.604
		c-2.209,0-6.686,0-11.591-0.137c-1.103-0.056-1.826-0.056-1.826-0.468c0-0.369,0.243-0.499,0.874-0.568
		c0.401-0.131,0.829-0.652,0.536-1.4l-4.905-12.994c-0.123-0.301-0.307-0.423-0.613-0.423H1690.286L1690.286,224.314z"/>
	<path fill="#7F7D7E" d="M1750.218,216.603c0,0.664,0.121,0.919,0.538,1.103c1.301,0.414,3.142,0.583,4.658,0.583
		c2.469,0,3.269-0.231,4.355-1.021c1.838-1.355,3.603-4.161,3.603-9.188c0-8.708-5.749-11.208-9.352-11.208
		c-1.533,0-2.622,0.056-3.265,0.232c-0.417,0.132-0.538,0.383-0.538,0.857V216.603L1750.218,216.603z M1742.98,211.751
		c0-9.314,0-11.023-0.106-12.993c-0.14-2.071-0.612-3.084-2.638-3.488c-0.49-0.116-1.547-0.187-2.375-0.187
		c-0.706,0-1.075-0.131-1.075-0.557c0-0.422,0.429-0.537,1.366-0.537c3.25,0,7.112,0.184,8.399,0.184
		c2.071,0,6.719-0.184,8.633-0.184c3.865,0,7.957,0.361,11.271,2.62c1.716,1.164,4.166,4.304,4.166,8.41
		c0,4.513-1.898,8.687-8.109,13.712c5.476,6.869,9.706,12.321,13.309,16.116c3.436,3.557,5.965,3.985,6.883,4.153
		c0.661,0.131,1.213,0.2,1.705,0.2c0.504,0,0.719,0.206,0.719,0.499c0,0.468-0.43,0.604-1.134,0.604h-5.842
		c-3.436,0-4.952-0.306-6.562-1.173c-2.636-1.4-4.95-4.284-8.372-9.001c-2.467-3.381-5.288-7.527-6.07-8.463
		c-0.322-0.342-0.675-0.437-1.105-0.437l-5.352-0.099c-0.288,0-0.473,0.099-0.473,0.492v0.841c0,5.69,0,10.547,0.291,13.117
		c0.182,1.764,0.551,3.128,2.391,3.364c0.938,0.13,2.285,0.254,3.006,0.254c0.506,0,0.752,0.206,0.752,0.499
		c0,0.422-0.43,0.604-1.243,0.604c-3.542,0-8.081-0.183-8.999-0.183c-1.15,0-5.013,0.183-7.467,0.183
		c-0.796,0-1.226-0.183-1.226-0.604c0-0.293,0.229-0.499,0.967-0.499c0.935,0,1.672-0.124,2.224-0.254
		c1.227-0.236,1.518-1.601,1.762-3.364c0.306-2.57,0.306-7.427,0.306-13.049V211.751L1742.98,211.751z"/>
	<path fill="#7F7D7E" d="M1806.961,197.416l-9.124,0.238c-3.54,0.119-5.014,0.438-5.933,1.773c-0.612,0.94-0.935,1.65-1.057,2.148
		c-0.107,0.497-0.295,0.746-0.659,0.746c-0.445,0-0.554-0.303-0.554-0.989c0-0.965,1.151-6.545,1.288-7.053
		c0.168-0.784,0.369-1.148,0.72-1.148c0.491,0,1.122,0.604,2.654,0.734c1.765,0.184,4.092,0.322,6.117,0.322h24.253
		c3.927,0,5.397-0.627,5.887-0.627c0.417,0,0.494,0.334,0.494,1.271c0,1.288-0.186,5.536-0.186,7.119
		c-0.061,0.614-0.184,0.988-0.551,0.988c-0.492,0-0.6-0.322-0.677-1.232l-0.062-0.675c-0.122-1.604-1.775-3.304-7.234-3.441
		l-7.712-0.175v25.118c0,5.622,0,10.479,0.32,13.108c0.172,1.704,0.535,3.068,2.36,3.305c0.89,0.13,2.225,0.254,3.144,0.254
		c0.675,0,0.966,0.206,0.966,0.499c0,0.412-0.475,0.604-1.148,0.604c-4.033,0-7.911-0.192-9.613-0.192
		c-1.428,0-5.275,0.192-7.728,0.192c-0.796,0-1.227-0.192-1.227-0.604c0-0.293,0.245-0.499,0.982-0.499
		c0.904,0,1.654-0.124,2.207-0.254c1.21-0.236,1.578-1.601,1.779-3.364c0.291-2.57,0.291-7.427,0.291-13.049V197.416
		L1806.961,197.416z"/>
	<path fill="#7F7D7E" d="M1854.564,211.751c0-9.314,0-11.023-0.135-12.993c-0.11-2.087-0.725-3.112-2.071-3.435
		c-0.675-0.17-1.457-0.24-2.193-0.24c-0.611,0-0.995-0.131-0.995-0.602c0-0.398,0.505-0.492,1.471-0.492
		c2.331,0,6.194,0.184,7.975,0.184c1.548,0,5.149-0.184,7.479-0.184c0.795,0,1.287,0.094,1.287,0.492
		c0,0.471-0.382,0.602-0.965,0.602c-0.632,0-1.12,0.07-1.855,0.187c-1.673,0.315-2.161,1.366-2.27,3.488
		c-0.105,1.97-0.105,3.679-0.105,12.993v10.783c0,5.951,0,10.771,0.214,13.417c0.198,1.662,0.612,2.76,2.468,2.996
		c0.857,0.13,2.207,0.254,3.127,0.254c0.673,0,0.998,0.206,0.998,0.499c0,0.412-0.508,0.604-1.197,0.604
		c-4.031,0-7.879-0.192-9.551-0.192c-1.41,0-5.273,0.192-7.729,0.192c-0.795,0-1.212-0.192-1.212-0.604
		c0-0.293,0.249-0.499,0.968-0.499c0.936,0,1.656-0.124,2.226-0.254c1.207-0.236,1.593-1.271,1.76-3.058
		c0.307-2.584,0.307-7.404,0.307-13.355V211.751L1854.564,211.751z"/>
	<path fill="#7F7D7E" d="M1891.132,239.568c-0.953-0.437-1.153-0.728-1.153-2.077c0-3.378,0.232-7.044,0.295-8.033
		c0.077-0.923,0.259-1.595,0.748-1.595c0.539,0,0.599,0.543,0.599,1.035c0,0.807,0.264,2.098,0.552,3.136
		c1.352,4.528,4.969,6.185,8.786,6.185c5.504,0,8.187-3.725,8.187-6.968c0-3.014-0.903-5.91-6.01-9.812l-2.805-2.2
		c-6.731-5.283-9.062-9.574-9.062-14.53c0-6.749,5.642-11.571,14.151-11.571c3.987,0,6.546,0.599,8.156,1.035
		c0.554,0.107,0.858,0.309,0.858,0.729c0,0.804-0.261,2.584-0.261,7.348c0,1.344-0.168,1.844-0.673,1.844
		c-0.417,0-0.615-0.369-0.615-1.104c0-0.553-0.291-2.454-1.593-4.025c-0.905-1.19-2.686-3.006-6.671-3.006
		c-4.539,0-7.299,2.63-7.299,6.291c0,2.824,1.429,4.969,6.502,8.827l1.719,1.295c7.342,5.686,10.041,9.812,10.041,15.62
		c0,3.545-1.334,7.761-5.765,10.664c-3.052,1.953-6.484,2.516-9.737,2.516C1896.526,241.171,1893.782,240.733,1891.132,239.568
		L1891.132,239.568z"/>
	<path fill="#7F7D7E" d="M1416.801,244.353c-33.99-2.585-44.341-22.131-32.933-44.16c6.132-11.832,15.5-24.585,4.321-36.375
		c-0.304-0.398-0.06-0.646,0.432-0.422c25.418,10.143,12.188,30.62,7.851,39.085c-8.558,16.73-3.098,36.997,20.329,41.381
		C1417.307,243.954,1417.261,244.414,1416.801,244.353L1416.801,244.353z"/>
	<path fill="#7F7D7E" d="M1421.355,225.715l5.733-71.068l-13.478-0.005l7.235,71.073
		C1420.91,226.183,1421.323,226.154,1421.355,225.715L1421.355,225.715z"/>
	<path fill="#7F7D7E" d="M1436.731,189.948c8.387,6.609,22.078,43.32-11.331,53.912c-0.552,0.132-0.49,0.554,0,0.483
		c53.171-6.637,34.897-44.797,11.791-54.858C1436.548,189.206,1436.271,189.581,1436.731,189.948L1436.731,189.948z"/>
</g>
</svg>
