<?xml version="1.0" encoding="utf-8"?>
<!-- Generator: Adobe Illustrator 15.1.0, SVG Export Plug-In . SVG Version: 6.00 Build 0)  -->
<!DOCTYPE svg PUBLIC "-//W3C//DTD SVG 1.1//EN" "http://www.w3.org/Graphics/SVG/1.1/DTD/svg11.dtd">
<svg version="1.1" id="Layer_1" xmlns="http://www.w3.org/2000/svg" xmlns:xlink="http://www.w3.org/1999/xlink" x="0px" y="0px"
	 width="595px" height="350px" viewBox="2014 0 595 350" enable-background="new 2014 0 595 350" xml:space="preserve">
<g>
	<path fill="#FFFFFF" d="M2214.285,71.564c33.763,24.413,57.386,49.984,67.05,84.323l0.004,0.007
		c1.437,5.112,2.566,10.417,3.371,15.941v0.004c2.543,17.409,1.893,37.004-2.364,59.575l107.97-120.853L2214.285,71.564z"/>
	<path fill="#7F7D7E" d="M2345.026,131.649c-5.946,0-12.354,6.589-14.15,14.102c-1.841,7.712,2.184,14.109,8.134,14.109
		c3.147,0,6.317-1.82,8.812-4.714l0.029-0.023c2.206-2.572,3.88-5.717,4.563-9.373
		C2353.879,137.963,2350.685,131.649,2345.026,131.649"/>
	<path fill="#7F7D7E" d="M2334.746,172.758c-9.635-0.411-20.359-8.198-17.003-27.182l8.688-49.165l-112.146-24.844
		c33.763,24.411,57.388,49.98,67.054,84.319l5.967-33.743h13.561l-1.415,8.027c4.147-5.945,9.706-9.417,17.386-8.971l-2.053,11.596
		c-7.678-0.449-16.224,2.393-17.825,11.465l-4.88,27.577h-7.37c2.546,17.414,1.892,37.01-2.365,59.575L2334.746,172.758z"/>
	<path fill="#7F7D7E" d="M2339.491,99.305l-5.238,29.64c5.342-5.512,11.165-7.742,17.098-7.742c8.549,0,15.086,5.625,14.881,16.358
		l24.084-27L2339.491,99.305z"/>
	<path fill="#7F7D7E" d="M2334.502,259.474c4.194-0.304,8.419,0.074,12.613-0.332c0.015,1.24,0.021,2.473,0.048,3.721
		c-2.844,0.02-5.685,0.02-8.521-0.008c-0.007,1.715-0.007,3.438,0.014,5.167c2.369-0.034,4.739-0.041,7.113-0.016
		c-0.163,1.159-0.313,2.317-0.467,3.48c-2.204,0.034-4.403,0.062-6.593,0.068c-0.09,1.969-0.09,3.946,0,5.926
		c2.758-0.008,5.518-0.008,8.281,0.006c-0.172,1.179-0.34,2.363-0.51,3.546c-4.043,0.006-8.098,0.014-12.139-0.005
		C2334.427,273.85,2334.083,266.645,2334.502,259.474L2334.502,259.474z"/>
	<path fill="#7F7D7E" d="M2116.993,259.369c1.454,0.029,2.909,0.062,4.36,0.11c-0.087,2.816-0.117,5.642-0.109,8.459
		c2.866-0.02,5.74-0.02,8.604,0.008c0.027-2.865,0.061-5.739,0.125-8.598c1.342,0,2.687-0.02,4.027,0.117
		c0.531,7.15,0.133,14.355,0.222,21.533c-1.445,0.021-2.894,0.039-4.333,0.061c-0.006-3.1,0-6.192-0.006-9.285
		c-2.859-0.034-5.718-0.034-8.578-0.019c-0.062,3.065-0.054,6.128,0.029,9.201c-1.428,0.042-2.859,0.081-4.285,0.125
		C2116.947,273.842,2117.017,266.608,2116.993,259.369L2116.993,259.369z"/>
	<path fill="#7F7D7E" d="M2139.506,259.398c4.155,0.018,8.329-0.236,12.476,0.081c0.661,0.929,0.178,2.294,0.373,3.389
		c-2.838,0-5.676,0.014-8.51,0.028c0,1.694,0,3.396,0,5.104c2.385-0.013,4.761-0.006,7.145,0.014
		c-0.136,1.144-0.277,2.302-0.413,3.459c-2.23,0.056-4.473,0.069-6.702,0.069c-0.022,1.981-0.022,3.959-0.008,5.944
		c2.854-0.006,5.703-0.006,8.563,0.056c-0.118,1.13-0.229,2.258-0.339,3.396c-4.201,0.184-8.402,0.1-12.604,0.089
		C2139.573,273.821,2139.547,266.608,2139.506,259.398L2139.506,259.398z"/>
	<path fill="#7F7D7E" d="M2178.476,259.383c1.433-0.008,2.88,0,4.327,0.008c0.087,5.984-0.091,11.967,0.109,17.949
		c2.74,0.014,5.482,0.021,8.23,0.065c-0.156,1.185-0.324,2.363-0.481,3.558c-4.052,0.119-8.109,0.075-12.166,0.075
		C2178.419,273.821,2178.495,266.603,2178.476,259.383L2178.476,259.383z"/>
	<path fill="#7F7D7E" d="M2191.562,259.398c5.334-0.008,10.664-0.153,15.995,0.087c-0.19,1.138-0.385,2.268-0.57,3.411
		c-1.709,0.027-3.416,0.048-5.118,0.056c-0.028,6.006-0.042,12.014,0.026,18.026c-1.495,0.006-2.981,0.021-4.463,0.021
		c-0.076-6.009,0.021-12.021-0.055-18.026c-2.004-0.028-4.003-0.055-6.001-0.104
		C2191.434,261.704,2191.502,260.547,2191.562,259.398L2191.562,259.398z"/>
	<path fill="#7F7D7E" d="M2211.127,259.356c1.372,0.013,2.748,0.034,4.127,0.06c0.02,2.839,0.075,5.685,0.212,8.53
		c2.83-0.021,5.657-0.016,8.495-0.056c0-2.838,0.008-5.678,0.026-8.516c1.398-0.006,2.804-0.006,4.217,0.008
		c0.027,7.212,0.027,14.431,0.02,21.649c-1.425,0-2.838,0.006-4.255,0.014c0.008-3.092,0.012-6.185,0.008-9.271
		c-2.861-0.042-5.72-0.042-8.579,0c-0.033,3.123,0,6.248-0.254,9.369c-1.356-0.054-2.7-0.098-4.042-0.145
		C2211.06,273.788,2211.044,266.568,2211.127,259.356L2211.127,259.356z"/>
	<path fill="#7F7D7E" d="M2262.454,259.404c1.4-0.029,2.804-0.048,4.215-0.063c0.008,2.866,0,5.74,0.029,8.605
		c2.851-0.027,5.703-0.027,8.561,0.021c0.05-2.839-0.213-5.697,0.208-8.516c1.384-0.122,2.781-0.047,4.181,0
		c-0.088,7.186-0.035,14.37-0.046,21.562c-1.44-0.015-2.88-0.022-4.319-0.035c-0.008-3.064-0.023-6.125-0.035-9.188
		c-2.853-0.026-5.698-0.021-8.543,0.026c-0.012,3.066-0.02,6.13-0.027,9.203c-1.379,0.019-2.754,0.04-4.119,0.078
		C2262.268,273.869,2262.454,266.631,2262.454,259.404L2262.454,259.404z"/>
	<path fill="#7F7D7E" d="M2282.712,259.356c1.559,0.008,3.143-0.126,4.685,0.191c1.772,2.874,2.86,6.097,4.277,9.143
		c1.379-3.087,2.868-6.132,4.184-9.245c1.651-0.2,3.319-0.192,4.979-0.008c-2.15,4.333-5.15,8.227-7.02,12.694
		c-0.441,2.942-0.088,5.947-0.221,8.914c-1.398,0-2.795,0-4.187,0c-0.213-3.725,0.923-7.858-1.212-11.205
		C2286.317,266.368,2284.217,263.014,2282.712,259.356L2282.712,259.356z"/>
	<path fill="#7F7D7E" d="M2302.628,264.536c3.163-5.655,11.063-6.641,16.61-4.299c-0.359,1.095-0.697,2.211-1.049,3.312
		c-2.705-0.695-5.688-1.267-8.369-0.199c-5.737,2.177-5.527,11.987,0.298,13.908c1.768,0.593,3.664,0.344,5.503,0.323
		c0.046-1.734,0.09-3.473,0.121-5.199c-1.417,0-2.845,0-4.249,0.008c0.167-1.109,0.338-2.221,0.517-3.323
		c2.578-0.149,5.169-0.173,7.758-0.081c0.027,3.67-0.005,7.35,0.095,11.026c-4.736,1.647-10.436,2.06-14.781-0.824
		C2300.769,275.825,2300.161,269.179,2302.628,264.536L2302.628,264.536z"/>
	<path fill="#7F7D7E" d="M2324.809,259.356c1.335-0.152,2.696-0.063,4.044,0.026c-0.103,7.22,0.144,14.445-0.117,21.663
		c-1.37-0.019-2.735-0.032-4.09-0.047C2324.745,273.788,2324.404,266.556,2324.809,259.356L2324.809,259.356z"/>
	<path fill="#7F7D7E" d="M2351.945,259.398c1.638,0.006,3.995-0.958,4.979,0.894c2.659,4.761,5.511,9.445,7.481,14.541
		c0.139-0.02,0.405-0.067,0.544-0.087c-1.405-4.962-0.405-10.238-0.708-15.335c1.21-0.013,2.438-0.021,3.662-0.028
		c-0.054,7.212,0.042,14.417-0.02,21.624c-1.316,0.031-2.625,0.067-3.926,0.107c-2.984-5.316-6.174-10.544-8.434-16.219
		c0.069,5.358-0.014,10.717,0.049,16.075c-1.226,0.008-2.445,0.014-3.656,0.014C2351.925,273.788,2351.882,266.595,2351.945,259.398
		L2351.945,259.398z"/>
	<path fill="#7F7D7E" d="M2373.617,259.341c4.283,0.034,8.568-0.11,12.841,0.167c-0.051,1.109-0.092,2.217-0.133,3.334
		c-2.803,0.047-5.599,0.062-8.396,0.062c-0.014,1.694-0.014,3.396-0.008,5.096c2.382-0.013,4.768-0.013,7.158,0
		c-0.179,1.165-0.354,2.343-0.523,3.521c-2.15,0.027-4.293,0.016-6.428-0.048c-0.213,1.976-0.297,3.961-0.27,5.957
		c2.9,0.062,5.801,0.062,8.701,0.015c-0.209,1.191-0.394,2.405-0.586,3.609c-4.105-0.016-8.203-0.04-12.297,0
		C2373.442,273.821,2373.525,266.573,2373.617,259.341L2373.617,259.341z"/>
	<path fill="#7F7D7E" d="M2419.342,259.364c1.405-0.008,2.811,0,4.229,0.011c0.008,2.854,0.016,5.706,0.048,8.556
		c2.872,0.016,5.744,0.008,8.624,0.028c0.043-2.691-0.152-5.393,0.127-8.073c0.777-1.545,2.871-0.255,4.233-0.428
		c0.023,7.173-0.013,14.338,0.016,21.505c-1.489,0.016-2.971,0.021-4.444,0.016c0.062-3.057,0.084-6.111,0.104-9.168
		c-2.9-0.042-5.794-0.062-8.681-0.047c0.007,3.083,0,6.17,0,9.264c-1.446-0.028-2.879-0.057-4.311-0.089
		C2419.189,273.744,2419.258,266.556,2419.342,259.364L2419.342,259.364z"/>
	<path fill="#7F7D7E" d="M2467.231,259.364c1.736-0.058,3.472-0.077,5.221-0.042c1.58,5.158,3.396,10.262,4.396,15.581
		c1.232-5.25,3.112-10.32,4.629-15.492c1.755-0.036,3.525-0.047,5.295-0.042c0.441,7.212,0.911,14.427,1.201,21.65
		c-1.358-0.021-2.693-0.041-4.029-0.057c-0.028-5.579-0.605-11.137-0.682-16.71c-1.191,5.623-3.486,10.926-4.939,16.483
		c-1.131,0.021-2.256,0.042-3.362,0.071c-1.461-5.553-3.544-10.955-4.448-16.644c-0.09,5.607-0.727,11.186-0.698,16.793
		c-1.337,0.027-2.667,0.05-3.988,0.075C2466.295,273.808,2466.687,266.581,2467.231,259.364L2467.231,259.364z"/>
	<path fill="#7F7D7E" d="M2493.174,259.322c4.278-0.173,8.557,0.082,12.834,0.094c-0.063,1.159-0.11,2.321-0.165,3.494
		c-2.809-0.014-5.63-0.021-8.434-0.034c0,1.701,0,3.409,0.017,5.118c2.409-0.007,4.829,0.027,7.246,0.104
		c-0.194,1.238-0.385,2.48-0.567,3.727c-2.223-0.145-4.441-0.235-6.66-0.187c-0.026,1.947-0.041,3.891-0.035,5.849
		c2.834-0.006,5.662,0,8.504,0.026c-0.152,1.159-0.297,2.323-0.436,3.486c-4.056,0.061-8.122-0.015-12.172,0.131
		C2492.928,273.869,2493.154,266.589,2493.174,259.322L2493.174,259.322z"/>
	<path fill="#7F7D7E" d="M2449.094,259.259c3.952-0.881,8.812,0.276,10.988,3.947c2.376,4.07,2.408,9.442,0.115,13.562
		c-3.063,5.408-11.366,6.182-15.739,1.978C2439.079,273.057,2440.729,261.134,2449.094,259.259L2449.094,259.259z M2449.239,263.143
		c-3.92,2.565-4.133,8.551-1.902,12.297c1.689,2.947,6.573,3.266,8.412,0.316c2.156-3.327,2.251-8.175-0.227-11.364
		C2454.115,262.456,2451.277,261.918,2449.239,263.143L2449.239,263.143z"/>
	<path fill="#7F7D7E" d="M2162.404,259.398c1.757-0.023,3.512-0.029,5.276-0.023c2.391,7.193,4.765,14.383,6.983,21.624
		c-1.521,0-3.036,0-4.55-0.008c-0.635-2.03-1.318-4.042-2.026-6.049c-2.039-0.012-4.079-0.039-6.119-0.081
		c-0.756,2.027-1.439,4.086-2.052,6.158c-1.446,0.019-2.887,0.04-4.318,0.062C2157.533,273.752,2160.157,266.631,2162.404,259.398
		L2162.404,259.398z M2164.925,263.55c-0.736,2.723-1.55,5.422-2.432,8.104c1.611-0.022,3.226-0.036,4.844-0.058
		C2166.503,268.924,2165.677,266.243,2164.925,263.55L2164.925,263.55z"/>
	<path fill="#7F7D7E" d="M2241.686,266.162c2.769,0.682,5.475,1.584,8.169,2.521c-1.785,2.066-3.514,4.181-5.083,6.413
		C2243.967,272.045,2243.188,268.958,2241.686,266.162L2241.686,266.162z"/>
	<path fill="#7F7D7E" d="M2398.882,266.148c2.688,0.669,5.339,1.493,7.992,2.335c-1.642,2.21-3.382,4.34-5.132,6.459
		C2401.171,271.9,2400.287,268.91,2398.882,266.148L2398.882,266.148z"/>
</g>
</svg>
