<?xml version="1.0" encoding="utf-8"?>
<!-- Generator: Adobe Illustrator 15.1.0, SVG Export Plug-In . SVG Version: 6.00 Build 0)  -->
<!DOCTYPE svg PUBLIC "-//W3C//DTD SVG 1.1//EN" "http://www.w3.org/Graphics/SVG/1.1/DTD/svg11.dtd">
<svg version="1.1" id="Layer_1" xmlns="http://www.w3.org/2000/svg" xmlns:xlink="http://www.w3.org/1999/xlink" x="0px" y="0px"
	 width="595px" height="350px" viewBox="3390 0 595 350" enable-background="new 3390 0 595 350" xml:space="preserve">
<g>
	<path fill="#7F7D7E" d="M3609.381,190.598c-3.959,0.005-7.443,1.924-10.125,4.76v-3.553h-10.029v12.335
		c-3.389-7.342-10.74-13.444-23.344-13.493c-9.186-0.035-19.184,5.465-23.434,15.048c-1.453-6.663-5.9-15.141-18.801-15.06
		c-5.059,0.03-12.389,2.582-15.16,6.722l-0.041-5.449h-13.18l-14.572,33.883l-10.783-24.973
		c-2.465-6.081-7.889-10.455-21.752-10.243c-9.871,0.153-20.805,5.569-21.164,15.248c-0.09,6.894,3.385,12.114,11.631,14.271
		c3.006,0.784,6.312,1.352,9.146,1.927c4.613,1.135,8.814,1.991,8.93,6.951c-0.111,3.581-3.791,6.254-10.131,6.163
		c0,0-8.689,0.507-14.363-6.062l-6.393,7.605c4.701,4.312,10.598,7.626,20.262,7.523c9.074,0.217,20.457-3.979,20.344-15.853
		c0-6.545-2.559-12.407-12.408-14.731c0,0-6.496-1.363-9.416-2.031c-4.064-0.9-7.6-1.766-7.441-5.609
		c0.146-3.546,3.609-6.175,11.291-6.165c7.955,0.012,11.521,1.484,13.984,7.808l13.084,30.028l-10.119,23.463h10.562l22.762-52.007
		l0.027,34.128h9.699v-18.703c0-8.036-0.248-24.575,14.121-24.575c11.039,0,11.031,13.311,11.031,19.059v24.22h9.727v-11.863
		c3.092,5.956,10.506,12.94,21.686,12.912c10.525-0.023,17.514-4.171,21.998-8.978l-5.514-6.787
		c-3.664,3.916-8.471,6.58-15.582,6.619c-6.822,0.039-14.789-5.139-15.434-15.146l38.746-0.052v12.703v10.488h9.762
		c0,0-0.09-23.894,0-27.281c0.199-7.481,1.449-16.108,9.699-15.703c1.754,0.086,3.521,1.126,4.803,2.293
		c0.977-1.598,1.885-2.971,2.998-4.285c0.982-1.156,2.266-2.4,3.354-3.334C3616.531,191.67,3613.26,190.591,3609.381,190.598
		 M3551.264,210.952c1.609-6.195,7.502-10.983,14.789-11c8.01-0.019,13.562,4.207,15.148,11H3551.264z"/>
	<path fill="#7F7D7E" d="M3698.105,191.805l-14.477,33.847l-14.756-33.847h-12.977v5.73c-1.117-1.042-5.846-6.865-17.645-6.892
		c-11.467-0.025-25.783,9.802-25.891,26.864c-0.102,16.197,13.25,25.869,25.984,25.809c10.094-0.047,14.668-4.379,17.725-7.159
		c-0.967,13.119-10.715,16.702-17.402,16.67c-10.686-0.052-16.363-5.621-17.949-7.23l-6.41,7.589
		c0.904,0.972,8.766,9.48,24.191,9.073c23.234-0.614,27.262-17.596,27.299-28.695c0.014-3.76-0.033-24.663-0.033-24.663
		l12.574,28.79l-10.223,23.314h10.682l29.672-69.2H3698.105z M3639.35,233.957c-8.621-0.033-16.832-6.033-16.832-17.003
		c0-9.387,7.535-17.002,16.832-17.002s16.75,7.615,16.834,17.002C3656.264,226.268,3649.209,233.996,3639.35,233.957"/>
	<polygon fill="#7F7D7E" points="3472.162,125.728 3472.162,145.089 3453.488,145.089 3453.488,159.655 3472.115,159.655 
		3472.115,179.763 3489.16,179.763 3489.16,159.629 3507.521,159.629 3507.521,145.081 3489.164,145.081 3489.164,125.728 	"/>
	<path fill="#7F7D7E" d="M3782.775,190.813c-6.891,0.008-13.145,2.655-17.615,7.454c-4.486,4.816-6.988,11.619-7.041,19.154
		c-0.062,8.792,2.389,15.127,7.09,19.864c4.219,4.248,10.197,6.495,17.289,6.495h0.168c10.635,0,18.258-5.293,22.07-10.46
		l-4.797-5.423c-3.271,4.006-8.543,8.531-16.322,8.599h-0.24c-10.408,0.002-15.76-5.332-16.338-17.135l40.938-0.133
		C3807.961,200.883,3799.055,190.813,3782.775,190.813 M3767.35,212.062c0.717-4.729,3.648-13.924,15.533-13.936h0.027
		c9.48,0,14.883,4.42,16.061,13.936H3767.35z M3749.648,196.724c-5.086-5.852-14.529-5.919-14.926-5.919h-0.074
		c-6.148,0-11.682,2.447-15.41,6.768v-30.291l-8.611,0.012l0.123,75.728h8.488v-28.492c0-10.271,5.814-16.354,14.471-16.354
		c4.021,0,6.949,0.984,8.947,3.006c2.336,2.363,3.439,6.177,3.371,11.653c-0.068,5.635,0.002,30.187,0.002,30.187h8.465
		c0,0,0.045-31.589,0-32.482C3754.225,204.833,3752.551,200.057,3749.648,196.724"/>
	<path fill="#7F7D7E" d="M3944.297,196.851c-5.107-5.876-14.592-5.943-14.996-5.943h-0.07c-6.176,0-11.734,2.459-15.48,6.798
		v-30.427l-8.646,0.012l0.121,76.063h8.525v-28.616c0-10.315,5.842-16.425,14.537-16.425c4.039,0,6.98,0.986,8.988,3.017
		c2.344,2.376,3.453,6.205,3.385,11.705c-0.068,5.66,0.004,30.319,0.004,30.319h8.504c0,0,0.037-31.729-0.004-32.625
		C3948.893,205.001,3947.211,200.204,3944.297,196.851"/>
	<path fill="#7F7D7E" d="M3893.32,236.558c-2.064,0-3.631-0.493-4.652-1.454c-1.012-0.956-1.527-2.394-1.527-4.269l-0.004-0.089
		c-0.002-0.049-0.002-0.101,0.004-0.165v-31.248h11.883v-7.426h-11.883v-16.418l-8.535,2.687v13.731h-7.418v7.426h7.418v30.987
		c0.004,2.566,0.242,6.318,2.223,9.243c2.045,3.004,5.812,4.467,11.506,4.467h0.049c2.176,0,7.367-1.096,7.367-1.096v-7.247
		C3899.75,235.688,3895.117,236.558,3893.32,236.558"/>
	<polygon fill="#7F7D7E" points="3858.479,242.771 3858.479,243.283 3866.998,243.283 3866.998,167.039 3858.479,167.039 	"/>
	<path fill="#7F7D7E" d="M3848.111,196.337c-3.486-3.501-9.047-5.544-14.877-5.586c-13.584-0.1-21.199,7.456-21.199,7.456
		l4.777,5.729c0,0,6.709-5.828,15.473-5.828c5.428,0.005,11.898,1.863,11.898,10.714c0,0.833,0.025,1.261,0.029,1.542
		c-2.49-1.352-6.201-3.071-12.889-3.071c-0.244,0-0.494,0.005-0.748,0.008c-9.971,0.184-20.549,6.153-20.512,18.379
		c0.029,11.565,7.564,18.468,20.166,18.468h0.018c6.023-0.002,11.33-1.973,13.998-3.563v2.363h8.416c0,0-0.01-32.178,0-34.558
		C3852.693,203.458,3851.16,199.403,3848.111,196.337 M3832.176,236.684h-0.104c-8.93-0.121-13.295-3.728-13.342-11.01
		c-0.021-3.531,0.971-6.332,2.955-8.326c3.062-3.083,7.799-3.543,10.352-3.543h0.141c5.998,0,10.688,2.882,12.053,4.046v14.577
		C3842.793,233.907,3837.799,236.684,3832.176,236.684"/>
</g>
</svg>
