<?xml version="1.0" encoding="utf-8"?>
<!-- Generator: Adobe Illustrator 15.1.0, SVG Export Plug-In . SVG Version: 6.00 Build 0)  -->
<!DOCTYPE svg PUBLIC "-//W3C//DTD SVG 1.1//EN" "http://www.w3.org/Graphics/SVG/1.1/DTD/svg11.dtd">
<svg version="1.1" id="Layer_1" xmlns="http://www.w3.org/2000/svg" xmlns:xlink="http://www.w3.org/1999/xlink" x="0px" y="0px"
	 width="595px" height="350px" viewBox="4070 0 595 350" enable-background="new 4070 0 595 350" xml:space="preserve">
<g>
	<g>
		<path fill="#7F7D7E" d="M4099.817,217.259c1.08-0.326,2.339-0.467,3.744-0.467c2.555,0,4.356,0.647,5.689,1.834
			c1.87,1.62,3.273,4.753,3.273,9.827c0,5.548-1.367,8.568-2.914,10.225c-1.584,1.802-3.889,2.627-6.697,2.627
			c-1.115,0-2.268-0.069-3.096-0.251V217.259z M4102.589,238.896c0.397,0.069,0.793,0.069,1.045,0.069
			c3.061,0,6.012-2.194,6.012-10.438c0-6.119-1.873-9.467-5.76-9.467c-0.432,0-0.936,0.036-1.297,0.142V238.896z"/>
		<path fill="#7F7D7E" d="M4115.8,228.238c0-1.474-0.107-3.202-0.143-4.498h2.481l0.146,2.733h0.072
			c0.576-1.656,2.051-3.021,3.67-3.021c0.218,0,0.396,0.033,0.578,0.033v2.846c-0.182-0.035-0.36-0.035-0.578-0.035
			c-1.762,0-3.058,1.618-3.346,3.635c-0.072,0.467-0.109,1.009-0.109,1.585v9.647h-2.771V228.238z"/>
		<path fill="#7F7D7E" d="M4127.751,219.238c0.035,1.08-0.646,1.801-1.691,1.801c-0.9,0-1.584-0.721-1.584-1.801
			c0-1.079,0.72-1.799,1.62-1.799C4127.104,217.439,4127.751,218.159,4127.751,219.238z M4124.763,241.163V223.74h2.773v17.423
			H4124.763z"/>
		<path fill="#7F7D7E" d="M4132.789,223.74l2.198,9.79c0.252,1.188,0.539,2.737,0.753,4.248h0.109
			c0.181-1.441,0.468-2.915,0.721-4.248l2.159-9.79h2.736l-4.535,17.423h-2.484l-4.537-17.423H4132.789z"/>
		<path fill="#7F7D7E" d="M4146.864,219.238c0.037,1.08-0.648,1.801-1.691,1.801c-0.9,0-1.585-0.721-1.585-1.801
			c0-1.079,0.721-1.799,1.62-1.799C4146.216,217.439,4146.864,218.159,4146.864,219.238z M4143.876,241.163V223.74h2.773v17.423
			H4143.876z"/>
		<path fill="#7F7D7E" d="M4150.499,228.238c0-2.053-0.106-3.097-0.143-4.498h2.41l0.146,2.087h0.07
			c0.756-1.403,2.16-2.375,3.996-2.375c2.412,0,4.212,1.799,4.212,6.01v11.701h-2.771v-11.232c0-2.053-0.398-4.141-2.414-4.141
			c-1.15,0-2.268,0.975-2.627,2.846c-0.072,0.432-0.107,0.972-0.107,1.547v10.98h-2.773V228.238z"/>
		<path fill="#7F7D7E" d="M4175.733,223.74c-0.035,1.223-0.143,2.771-0.143,5.435v9.757c0,4.572-0.576,6.297-1.729,7.561
			c-1.045,1.187-2.699,1.87-4.645,1.87c-1.476,0-2.915-0.359-3.814-0.863l0.648-2.161c0.682,0.36,1.836,0.757,3.238,0.757
			c2.195,0,3.564-1.368,3.564-5.328v-1.765h-0.072c-0.611,1.368-1.871,2.126-3.349,2.126c-3.095,0-5.11-3.495-5.11-8.605
			c0-6.409,2.916-9.07,5.471-9.07c1.873,0,2.738,1.223,3.241,2.268h0.071l0.145-1.979H4175.733z M4172.854,229.749
			c0-0.43-0.037-0.898-0.144-1.26c-0.324-1.187-0.937-2.662-2.521-2.662c-2.016,0-3.096,2.699-3.096,6.551
			c0,4.465,1.404,6.481,3.096,6.481c0.828,0,1.906-0.396,2.484-2.485c0.143-0.539,0.18-1.078,0.18-1.583V229.749z"/>
		<path fill="#7F7D7E" d="M4188.079,216.898v24.265h-2.77v-24.265H4188.079z"/>
		<path fill="#7F7D7E" d="M4192.255,228.238c0-2.053-0.105-3.097-0.143-4.498h2.411l0.144,2.087h0.074
			c0.755-1.403,2.158-2.375,3.996-2.375c2.41,0,4.211,1.799,4.211,6.01v11.701h-2.773v-11.232c0-2.053-0.395-4.141-2.412-4.141
			c-1.151,0-2.267,0.975-2.627,2.846c-0.072,0.432-0.107,0.972-0.107,1.547v10.98h-2.773V228.238z"/>
		<path fill="#7F7D7E" d="M4206.835,228.238c0-2.053-0.109-3.097-0.146-4.498h2.414l0.143,2.087h0.071
			c0.758-1.403,2.162-2.375,3.996-2.375c2.413,0,4.213,1.799,4.213,6.01v11.701h-2.771v-11.232c0-2.053-0.396-4.141-2.412-4.141
			c-1.152,0-2.268,0.975-2.629,2.846c-0.072,0.432-0.107,0.972-0.107,1.547v10.98h-2.771V228.238z"/>
		<path fill="#7F7D7E" d="M4232.106,232.45c0,6.733-3.135,9-5.797,9c-3.132,0-5.65-2.843-5.65-8.965c0-6.372,2.842-9.033,5.83-9.033
			C4229.586,223.452,4232.106,226.368,4232.106,232.45z M4223.429,232.45c0,2.88,0.506,6.806,3.024,6.806
			c2.378,0,2.845-4.105,2.845-6.806c0-2.665-0.467-6.767-2.917-6.767C4223.898,225.684,4223.429,229.785,4223.429,232.45z"/>
		<path fill="#7F7D7E" d="M4236.353,223.74l2.196,9.79c0.251,1.188,0.54,2.737,0.757,4.248h0.107
			c0.18-1.441,0.469-2.915,0.719-4.248l2.161-9.79h2.736l-4.538,17.423h-2.482l-4.535-17.423H4236.353z"/>
		<path fill="#7F7D7E" d="M4253.992,241.163l-0.18-1.837h-0.108c-0.757,1.331-1.98,2.124-3.455,2.124
			c-2.34,0-4.141-1.979-4.141-4.968c0-4.355,3.492-6.3,7.417-6.336v-0.539c0-2.341-0.578-3.96-2.772-3.96
			c-1.081,0-2.054,0.359-2.879,0.899l-0.612-1.944c0.719-0.539,2.339-1.15,4.065-1.15c3.494,0,5.004,2.304,5.004,6.227v7.525
			c0,1.331,0,2.842,0.182,3.959H4253.992z M4253.597,232.162c-1.439,0-4.787,0.251-4.787,4.032c0,2.269,1.15,3.095,2.123,3.095
			c1.225,0,2.268-0.898,2.593-2.628c0.071-0.324,0.071-0.682,0.071-0.973V232.162z"/>
		<path fill="#7F7D7E" d="M4263.28,219.132v4.608h3.349v2.121h-3.349v10.333c0,2.269,0.826,2.88,1.835,2.88
			c0.433,0,0.792-0.037,1.117-0.109l0.106,2.126c-0.504,0.178-1.151,0.287-2.051,0.287c-1.082,0-2.053-0.287-2.736-1.045
			c-0.685-0.79-1.045-1.979-1.045-4.39v-10.082h-2.122v-2.121h2.122v-3.818L4263.28,219.132z"/>
		<path fill="#7F7D7E" d="M4272.062,219.238c0.036,1.08-0.647,1.801-1.692,1.801c-0.898,0-1.583-0.721-1.583-1.801
			c0-1.079,0.72-1.799,1.62-1.799C4271.415,217.439,4272.062,218.159,4272.062,219.238z M4269.075,241.163V223.74h2.773v17.423
			H4269.075z"/>
		<path fill="#7F7D7E" d="M4286.389,232.45c0,6.733-3.131,9-5.794,9c-3.135,0-5.653-2.843-5.653-8.965
			c0-6.372,2.843-9.033,5.831-9.033C4283.87,223.452,4286.389,226.368,4286.389,232.45z M4277.714,232.45
			c0,2.88,0.504,6.806,3.021,6.806c2.378,0,2.847-4.105,2.847-6.806c0-2.665-0.469-6.767-2.917-6.767
			C4278.181,225.684,4277.714,229.785,4277.714,232.45z"/>
		<path fill="#7F7D7E" d="M4289.484,228.238c0-2.053-0.106-3.097-0.144-4.498h2.413l0.143,2.087h0.072
			c0.757-1.403,2.159-2.375,3.996-2.375c2.411,0,4.212,1.799,4.212,6.01v11.701h-2.772v-11.232c0-2.053-0.394-4.141-2.411-4.141
			c-1.154,0-2.268,0.975-2.627,2.846c-0.074,0.432-0.111,0.972-0.111,1.547v10.98h-2.771V228.238z"/>
		<path fill="#7F7D7E" d="M4302.731,245.698c0.757-2.089,1.729-5.903,2.09-8.389l3.129-0.357c-0.789,2.914-2.338,6.875-3.312,8.494
			L4302.731,245.698z"/>
		<path fill="#7F7D7E" d="M4325.771,229.644h-6.084v9.106h6.91v2.413h-9.682v-24.265h9.25v2.412h-6.479v7.992h6.084V229.644z"/>
		<path fill="#7F7D7E" d="M4339.412,216.25v20.735c0,1.189,0.11,3.17,0.146,4.178h-2.376l-0.182-2.198h-0.106
			c-0.579,1.263-1.801,2.485-3.636,2.485c-2.952,0-5.077-3.203-5.077-8.928c0-6.191,2.554-9.07,5.256-9.07
			c1.26,0,2.484,0.611,3.169,2.086h0.07v-9.288H4339.412z M4336.676,230.363c0-0.358,0-0.756-0.036-1.153
			c-0.18-1.798-1.261-3.383-2.592-3.383c-2.305,0-3.094,3.205-3.094,6.695c0,3.672,0.936,6.624,2.951,6.624
			c0.862,0,2.053-0.469,2.664-2.988c0.07-0.323,0.106-0.721,0.106-1.153V230.363z"/>
		<path fill="#7F7D7E" d="M4353.739,236.41c0,1.943,0.109,3.456,0.145,4.753h-2.413l-0.179-1.837h-0.072
			c-0.542,0.865-1.875,2.124-3.745,2.124c-3.062,0-4.248-2.376-4.248-6.696V223.74h2.774v10.617c0,2.737,0.429,4.754,2.34,4.754
			c1.621,0,2.337-1.512,2.481-2.306c0.109-0.469,0.146-1.007,0.146-1.582V223.74h2.771V236.41z"/>
		<path fill="#7F7D7E" d="M4366.123,240.729c-0.614,0.361-1.655,0.648-2.881,0.648c-3.814,0-6.37-3.062-6.37-8.819
			c0-5.004,2.519-9.073,6.876-9.073c0.936,0,1.942,0.255,2.445,0.542l-0.539,2.269c-0.36-0.183-1.081-0.469-1.979-0.469
			c-2.773,0-4.032,3.311-4.032,6.731c0,4.07,1.55,6.516,4.105,6.516c0.753,0,1.367-0.179,2.017-0.467L4366.123,240.729z"/>
		<path fill="#7F7D7E" d="M4375.479,241.163l-0.18-1.837h-0.109c-0.753,1.331-1.979,2.124-3.453,2.124
			c-2.34,0-4.143-1.979-4.143-4.968c0-4.355,3.495-6.3,7.418-6.336v-0.539c0-2.341-0.575-3.96-2.773-3.96
			c-1.077,0-2.05,0.359-2.879,0.899l-0.611-1.944c0.72-0.539,2.341-1.15,4.068-1.15c3.492,0,5.002,2.304,5.002,6.227v7.525
			c0,1.331,0,2.842,0.182,3.959H4375.479z M4375.085,232.162c-1.44,0-4.789,0.251-4.789,4.032c0,2.269,1.151,3.095,2.125,3.095
			c1.224,0,2.268-0.898,2.592-2.628c0.072-0.324,0.072-0.682,0.072-0.973V232.162z"/>
		<path fill="#7F7D7E" d="M4384.768,219.132v4.608h3.348v2.121h-3.348v10.333c0,2.269,0.829,2.88,1.834,2.88
			c0.433,0,0.794-0.037,1.117-0.109l0.11,2.126c-0.506,0.178-1.154,0.287-2.053,0.287c-1.082,0-2.054-0.287-2.738-1.045
			c-0.684-0.79-1.043-1.979-1.043-4.39v-10.082h-2.123v-2.121h2.123v-3.818L4384.768,219.132z"/>
		<path fill="#7F7D7E" d="M4393.549,219.238c0.038,1.08-0.646,1.801-1.691,1.801c-0.899,0-1.583-0.721-1.583-1.801
			c0-1.079,0.721-1.799,1.619-1.799C4392.902,217.439,4393.549,218.159,4393.549,219.238z M4390.563,241.163V223.74h2.771v17.423
			H4390.563z"/>
		<path fill="#7F7D7E" d="M4407.88,232.45c0,6.733-3.135,9-5.797,9c-3.132,0-5.651-2.843-5.651-8.965
			c0-6.372,2.843-9.033,5.831-9.033C4405.36,223.452,4407.88,226.368,4407.88,232.45z M4399.201,232.45
			c0,2.88,0.507,6.806,3.026,6.806c2.374,0,2.842-4.105,2.842-6.806c0-2.665-0.468-6.767-2.916-6.767
			C4399.671,225.684,4399.201,229.785,4399.201,232.45z"/>
		<path fill="#7F7D7E" d="M4410.974,228.238c0-2.053-0.109-3.097-0.146-4.498h2.413l0.144,2.087h0.071
			c0.756-1.403,2.162-2.375,3.995-2.375c2.414,0,4.212,1.799,4.212,6.01v11.701h-2.77v-11.232c0-2.053-0.397-4.141-2.414-4.141
			c-1.149,0-2.268,0.975-2.628,2.846c-0.071,0.432-0.108,0.972-0.108,1.547v10.98h-2.77V228.238z"/>
		<path fill="#7F7D7E" d="M4438.079,241.163l-0.181-1.837h-0.107c-0.755,1.331-1.979,2.124-3.454,2.124
			c-2.34,0-4.142-1.979-4.142-4.968c0-4.355,3.493-6.3,7.417-6.336v-0.539c0-2.341-0.576-3.96-2.772-3.96
			c-1.079,0-2.05,0.359-2.88,0.899l-0.611-1.944c0.721-0.539,2.34-1.15,4.069-1.15c3.49,0,5,2.304,5,6.227v7.525
			c0,1.331,0,2.842,0.183,3.959H4438.079z M4437.685,232.162c-1.439,0-4.789,0.251-4.789,4.032c0,2.269,1.153,3.095,2.125,3.095
			c1.225,0,2.268-0.898,2.592-2.628c0.072-0.324,0.072-0.682,0.072-0.973V232.162z"/>
		<path fill="#7F7D7E" d="M4444.306,228.238c0-2.053-0.106-3.097-0.143-4.498h2.411l0.146,2.087h0.072
			c0.757-1.403,2.158-2.375,3.997-2.375c2.409,0,4.21,1.799,4.21,6.01v11.701h-2.773v-11.232c0-2.053-0.395-4.141-2.409-4.141
			c-1.154,0-2.268,0.975-2.628,2.846c-0.074,0.432-0.109,0.972-0.109,1.547v10.98h-2.773V228.238z"/>
		<path fill="#7F7D7E" d="M4469.362,216.25v20.735c0,1.189,0.108,3.17,0.146,4.178h-2.378l-0.183-2.198h-0.104
			c-0.578,1.263-1.801,2.485-3.635,2.485c-2.953,0-5.077-3.203-5.077-8.928c0-6.191,2.555-9.07,5.254-9.07
			c1.261,0,2.485,0.611,3.171,2.086h0.068v-9.288H4469.362z M4466.624,230.363c0-0.358,0-0.756-0.036-1.153
			c-0.179-1.798-1.259-3.383-2.591-3.383c-2.305,0-3.095,3.205-3.095,6.695c0,3.672,0.937,6.624,2.952,6.624
			c0.862,0,2.053-0.469,2.663-2.988c0.07-0.323,0.106-0.721,0.106-1.153V230.363z"/>
		<path fill="#7F7D7E" d="M4479.115,217.259c1.114-0.289,2.446-0.467,4.031-0.467c2.233,0,4.105,0.539,5.364,1.798
			c1.188,1.154,1.801,2.915,1.801,5.004c0,2.233-0.542,3.746-1.477,4.969c-1.332,1.801-3.564,2.701-5.723,2.701
			c-0.469,0-0.83,0-1.228-0.037v9.937h-2.77V217.259z M4481.885,228.887c0.325,0.073,0.613,0.109,1.082,0.109
			c2.737,0,4.572-1.803,4.572-5.22c0-2.485-1.044-4.717-4.103-4.717c-0.648,0-1.19,0.072-1.552,0.179V228.887z"/>
		<path fill="#7F7D7E" d="M4493.011,228.238c0-1.474-0.107-3.202-0.144-4.498h2.482l0.146,2.733h0.073
			c0.575-1.656,2.049-3.021,3.672-3.021c0.216,0,0.393,0.033,0.574,0.033v2.846c-0.182-0.035-0.358-0.035-0.574-0.035
			c-1.766,0-3.062,1.618-3.348,3.635c-0.073,0.467-0.11,1.009-0.11,1.585v9.647h-2.771V228.238z"/>
		<path fill="#7F7D7E" d="M4512.163,232.45c0,6.733-3.135,9-5.799,9c-3.13,0-5.65-2.843-5.65-8.965c0-6.372,2.844-9.033,5.832-9.033
			C4509.643,223.452,4512.163,226.368,4512.163,232.45z M4503.485,232.45c0,2.88,0.506,6.806,3.023,6.806
			c2.376,0,2.843-4.105,2.843-6.806c0-2.665-0.467-6.767-2.915-6.767C4503.954,225.684,4503.485,229.785,4503.485,232.45z"/>
		<path fill="#7F7D7E" d="M4515.835,241.163v-15.302h-2.2v-2.121h2.2v-1.045c0-1.871,0.286-3.817,1.546-5.256
			c1.009-1.117,2.413-1.477,3.491-1.477c0.936,0,1.656,0.182,2.159,0.432l-0.468,2.159c-0.322-0.143-0.789-0.288-1.51-0.288
			c-1.98,0-2.449,2.126-2.449,4.394v1.081h3.17v2.121h-3.17v15.302H4515.835z"/>
		<path fill="#7F7D7E" d="M4525.301,232.702c0.037,5.328,2.122,6.481,4.14,6.481c1.188,0,2.197-0.288,2.881-0.685l0.431,2.053
			c-0.973,0.539-2.446,0.826-3.815,0.826c-4.174,0-6.336-3.421-6.336-8.746c0-5.652,2.376-9.18,5.867-9.18
			c3.563,0,4.969,3.741,4.969,7.702c0,0.647,0,1.117-0.038,1.548H4525.301z M4530.771,230.651c0.072-3.493-1.26-5.041-2.591-5.041
			c-1.799,0-2.733,2.665-2.842,5.041H4530.771z"/>
		<path fill="#7F7D7E" d="M4535.954,238.284c0.612,0.394,1.693,0.899,2.81,0.899c1.584,0,2.555-0.973,2.555-2.522
			c0-1.331-0.469-2.231-2.229-3.418c-2.269-1.478-3.495-2.951-3.495-4.968c0-2.81,2.088-4.823,4.79-4.823
			c1.369,0,2.41,0.466,3.13,0.899l-0.753,2.086c-0.648-0.431-1.404-0.754-2.305-0.754c-1.514,0-2.271,1.081-2.271,2.194
			c0,1.189,0.433,1.838,2.162,3.025c2.016,1.296,3.6,2.879,3.6,5.291c0,3.491-2.376,5.184-5.22,5.184
			c-1.295,0-2.7-0.396-3.457-1.008L4535.954,238.284z"/>
		<path fill="#7F7D7E" d="M4546.356,238.284c0.612,0.394,1.692,0.899,2.811,0.899c1.583,0,2.556-0.973,2.556-2.522
			c0-1.331-0.47-2.231-2.231-3.418c-2.269-1.478-3.494-2.951-3.494-4.968c0-2.81,2.089-4.823,4.789-4.823
			c1.369,0,2.41,0.466,3.131,0.899l-0.754,2.086c-0.649-0.431-1.404-0.754-2.305-0.754c-1.514,0-2.27,1.081-2.27,2.194
			c0,1.189,0.432,1.838,2.161,3.025c2.016,1.296,3.6,2.879,3.6,5.291c0,3.491-2.376,5.184-5.22,5.184
			c-1.294,0-2.7-0.396-3.457-1.008L4546.356,238.284z"/>
		<path fill="#7F7D7E" d="M4560.217,219.238c0.036,1.08-0.648,1.801-1.692,1.801c-0.898,0-1.582-0.721-1.582-1.801
			c0-1.079,0.719-1.799,1.619-1.799C4559.568,217.439,4560.217,218.159,4560.217,219.238z M4557.229,241.163V223.74h2.77v17.423
			H4557.229z"/>
		<path fill="#7F7D7E" d="M4574.542,232.45c0,6.733-3.133,9-5.797,9c-3.13,0-5.648-2.843-5.648-8.965
			c0-6.372,2.843-9.033,5.83-9.033C4572.023,223.452,4574.542,226.368,4574.542,232.45z M4565.866,232.45
			c0,2.88,0.506,6.806,3.025,6.806c2.377,0,2.842-4.105,2.842-6.806c0-2.665-0.465-6.767-2.915-6.767
			C4566.336,225.684,4565.866,229.785,4565.866,232.45z"/>
		<path fill="#7F7D7E" d="M4577.638,228.238c0-2.053-0.106-3.097-0.143-4.498h2.409l0.145,2.087h0.073
			c0.758-1.403,2.16-2.375,3.998-2.375c2.408,0,4.21,1.799,4.21,6.01v11.701h-2.772v-11.232c0-2.053-0.396-4.141-2.41-4.141
			c-1.154,0-2.268,0.975-2.63,2.846c-0.071,0.432-0.106,0.972-0.106,1.547v10.98h-2.773V228.238z"/>
		<path fill="#7F7D7E" d="M4599.093,241.163l-0.179-1.837h-0.108c-0.758,1.331-1.979,2.124-3.458,2.124
			c-2.341,0-4.138-1.979-4.138-4.968c0-4.355,3.489-6.3,7.413-6.336v-0.539c0-2.341-0.575-3.96-2.77-3.96
			c-1.081,0-2.053,0.359-2.879,0.899l-0.614-1.944c0.721-0.539,2.339-1.15,4.068-1.15c3.489,0,5.005,2.304,5.005,6.227v7.525
			c0,1.331,0,2.842,0.178,3.959H4599.093z M4598.696,232.162c-1.438,0-4.787,0.251-4.787,4.032c0,2.269,1.15,3.095,2.122,3.095
			c1.228,0,2.269-0.898,2.592-2.628c0.073-0.324,0.073-0.682,0.073-0.973V232.162z"/>
		<path fill="#7F7D7E" d="M4605.321,216.25h2.77v24.913h-2.77V216.25z"/>
		<path fill="#7F7D7E" d="M4615.185,219.238c0.036,1.08-0.648,1.801-1.693,1.801c-0.898,0-1.582-0.721-1.582-1.801
			c0-1.079,0.721-1.799,1.619-1.799C4614.536,217.439,4615.185,218.159,4615.185,219.238z M4612.196,241.163V223.74h2.771v17.423
			H4612.196z"/>
		<path fill="#7F7D7E" d="M4618.35,238.284c0.613,0.394,1.694,0.899,2.808,0.899c1.584,0,2.555-0.973,2.555-2.522
			c0-1.331-0.465-2.231-2.23-3.418c-2.268-1.478-3.491-2.951-3.491-4.968c0-2.81,2.09-4.823,4.787-4.823
			c1.368,0,2.413,0.466,3.133,0.899l-0.757,2.086c-0.648-0.431-1.404-0.754-2.304-0.754c-1.511,0-2.267,1.081-2.267,2.194
			c0,1.189,0.431,1.838,2.158,3.025c2.016,1.296,3.6,2.879,3.6,5.291c0,3.491-2.373,5.184-5.22,5.184
			c-1.296,0-2.697-0.396-3.454-1.008L4618.35,238.284z"/>
		<path fill="#7F7D7E" d="M4629.224,228.238c0-2.053-0.11-3.097-0.146-4.498h2.414l0.144,2.158h0.071
			c0.755-1.404,2.088-2.446,3.924-2.446c1.619,0,2.985,0.79,3.635,2.661h0.074c0.469-0.862,1.079-1.548,1.728-1.979
			c0.685-0.466,1.511-0.682,2.413-0.682c2.338,0,4.176,1.727,4.176,6.155v11.556h-2.738v-10.908c0-2.268-0.324-4.465-2.445-4.465
			c-1.154,0-2.163,0.975-2.559,2.594c-0.07,0.467-0.105,1.009-0.105,1.584v11.195h-2.739v-11.414c0-1.942-0.358-3.959-2.411-3.959
			c-1.114,0-2.268,0.975-2.592,2.809c-0.072,0.469-0.105,0.973-0.105,1.512v11.053h-2.736V228.238z"/>
	</g>
	<path fill="#7F7D7E" d="M4347.91,94.319c5.952-5.149,8.835-6.536,12.373-7.595c3.53-1.063,22.444-3.004,28.277,3.887
		c5.829,6.893,9.54,10.075,10.07,13.081c0.532,2.998,2.651,11.834,0.886,14.483c-1.768,2.655-8.66,15.38-12.901,18.032
		c-4.245,2.652-12.682,7.323-24.566,7.066c-8.131-0.175-15.728-6.715-19.969-13.43
		C4337.839,123.129,4333.421,106.869,4347.91,94.319 M4358.162,99.27c-5.126,3.183-8.834,9.543-9.188,12.55
		s0.354,13.254,5.831,17.85c5.479,4.593,18.907,4.589,25.442-1.593c5.465-5.167,9.673-11.053,7.603-19.969
		c-1.769-7.599-8.133-11.486-12.899-11.661C4370.181,96.267,4364.701,95.21,4358.162,99.27"/>
	<path fill="#7F7D7E" d="M4366.82,105.985c-2.625,0.654-6.037,1.546-7.25,6.89c-1.231,5.484,2.128,10.076,8.311,9.548
		c4.411-0.384,8.485-5.661,7.955-9.72C4375.304,108.64,4370.356,105.101,4366.82,105.985"/>
	<g>
		<path fill="#7F7D7E" d="M4151.13,195.92c-2.012-0.375-5.031-0.641-5.031-0.641s0-15.998,0-23.997c0-0.944,0-3.925-7.133-4.46
			c-3.928-0.297-6.912,0.314-8.872,1.793c0,8.42-0.014,24.722-0.014,24.722l-4.96-0.681v-45.237l4.974,0.624c0,0,0,8.567,0,14.277
			c3.364-0.847,6.382-1.277,8.989-1.083c2.404,0.185,4.98,0.605,7.518,2.438c2.998,2.165,4.529,4.795,4.529,7.559
			c0,8.269,0,24.799,0,24.799V195.92z"/>
	</g>
	<g>
		<polygon fill="#7F7D7E" points="4122.06,153.259 4087.148,148.351 4087.148,142.427 4122.06,147.335 		"/>
		<polygon fill="#7F7D7E" points="4107.007,190.459 4101.56,189.695 4101.56,150.056 4107.007,150.823 		"/>
	</g>
	<g>
		<g>
			<g>
				<path fill="#7F7D7E" d="M4635.816,208.757c-0.372-0.04-0.751-0.091-1.132-0.147c-2.044-0.321-4.33-0.902-6.616-1.672
					c-2.206-0.743-4.371-1.566-6.434-2.447l-0.931-0.401v-6.28l0.977,0.546c0.368,0.208,0.554,0.312,0.928,0.515l0.178,0.082
					c4.081,1.955,7.938,3.802,12.195,4.522c1.889,0.321,3.687,0.229,5.22-0.242c1.781-0.544,2.539-1.44,2.539-2.994
					c0-2.637-1.531-4.396-4.681-5.38c-0.986-0.227-2.043-0.463-3.112-0.699c-2.416-0.539-4.91-1.093-7.43-1.744l-0.12-0.036
					c-4.326-1.652-6.693-5.028-6.693-9.507c0-3.445,1.662-5.737,4.942-6.806c2.278-0.741,5.035-0.865,8.19-0.375
					c1.404,0.222,3.393,0.672,5.597,1.269l0.602,0.166c2.062,0.563,3.689,1.006,4.771,1.254l1.22,0.291l-0.363,7.054l-0.936-0.545
					c-0.361-0.212-0.542-0.314-0.902-0.523c-3.669-2.095-7.127-3.407-10.275-3.903c-1.23-0.193-2.348-0.294-3.3-0.296
					c-4.535-0.019-4.535,2.113-4.535,3.14c0,2.021,1.578,3.469,4.689,4.302c1.52,0.412,3.091,0.795,4.614,1.172
					c1.378,0.336,2.755,0.675,4.126,1.038c0.808,0.215,1.211,0.326,2.02,0.551l0.097,0.037c4.062,1.768,6.646,5.84,6.59,10.375
					c-0.04,3.436-1.682,5.77-4.873,6.936c-1.574,0.571-3.309,0.86-5.155,0.86C4637.177,208.866,4636.504,208.829,4635.816,208.757
					L4635.816,208.757z"/>
			</g>
		</g>
	</g>
	<g>
		<path fill="#7F7D7E" d="M4499.037,191.533c-2.845-0.463-4.968-1.139-6.425-2.125c-2.025-1.378-3.298-3.735-3.639-6.934
			c-0.109-1.023-0.029-24.231-0.029-24.695c1.716,0.091,3.15,0.205,5.188,0.312c0,0.429,0.009,21.961,0.009,24.429
			c0,0.772,0,3.036,5.931,4.024c0.938,0.153,1.993,0.275,3.134,0.348c1.795,0.114,4.189-0.252,7.131-1.242
			c0-8.909,0-17.816,0-26.727c2.212,0.118,3.26,0.188,5.312,0.299c0,10.434,0,20.512,0,30.952c-0.272,0.068-0.408,0.103-0.681,0.172
			c-1.912,0.472-3.845,0.901-5.695,1.244c-2.363,0.436-4.359,0.521-6.009,0.409C4501.72,191.899,4500.296,191.739,4499.037,191.533
			L4499.037,191.533z"/>
	</g>
	<path fill="#7F7D7E" d="M4473.782,190.798c-0.344-0.015-0.67-0.03-0.987-0.054c-9.458-0.706-14.251-6.453-14.251-17.082
		c0-5.304,1.372-9.468,4.076-12.367c2.747-2.935,6.578-4.239,11.392-3.881c9.851,0.731,11.919,6.015,11.919,10.317
		c0,4.124-2.18,8.962-12.572,8.599c-0.478-0.019-0.967-0.046-1.471-0.082c-2.047-0.157-4.737-0.572-8.008-1.241
		c-0.019,0.164-0.025,0.314-0.025,0.451c0,2.854,0.86,5.162,2.627,7.055c1.778,1.889,3.87,2.897,6.389,3.085
		c0.154,0.012,0.312,0.019,0.473,0.023c2.396,0.085,5.705-0.505,9.837-1.746l1.277-0.385v6.457l-0.8,0.115
		C4479.577,190.644,4476.346,190.886,4473.782,190.798L4473.782,190.798z M4464.427,169.398c0.154,0.188,1.208,1.066,7.538,1.536
		c0.412,0.03,0.81,0.051,1.193,0.065l0,0c2.572,0.088,4.497-0.211,5.716-0.896c1.088-0.608,1.596-1.502,1.596-2.81
		c0-1.795-0.678-4.229-6.536-4.671c-2.12-0.151-4.235,0.378-6.247,1.596C4465.514,165.557,4464.444,167.251,4464.427,169.398
		L4464.427,169.398z"/>
	<g>
		<path fill="#7F7D7E" d="M4292.617,202.094c-2.011-0.007-5.029,0.281-5.029,0.281s0-15.995,0-23.994c0-0.947,0-3.926-7.134-3.15
			c-3.926,0.427-6.911,1.589-8.87,3.426c0,8.418-0.017,24.724-0.017,24.724l-4.958,0.233v-45.235l4.975-0.296c0,0,0,8.571,0,14.283
			c3.364-1.471,6.384-2.454,8.989-2.736c2.404-0.264,4.98-0.314,7.518,1.051c2.995,1.613,4.526,3.964,4.526,6.727
			c0,8.27,0,24.799,0,24.799V202.094z"/>
	</g>
	<g>
		<path fill="#7F7D7E" d="M4419.259,191.164c-2.124,0.294-4.542,0.476-7.172,0.496c-4.181,0.03-7.09-0.464-8.894-1.432
			c-2.925-1.568-4.433-4.599-4.433-8.783c0-3.79,1.717-6.447,5.02-8.222c2.443-1.312,5.467-2.059,8.935-2.09
			c2.216-0.022,5.056,0.185,8.648,0.845c0.015-1.571,0.026-2.355,0.04-3.927c0.01-1.108,0.037-4.621-7.938-4.557
			c-2.69,0.024-6.572,0.975-11.474,2.319c-0.457,0.128-0.685,0.188-1.142,0.306c0-2.513,0-3.772,0-6.282
			c0.372-0.049,0.558-0.076,0.926-0.125c4.312-0.602,8.468-1.124,11.944-1.399c6.448-0.514,13.084,2.741,12.941,9.892
			c0,7.027,0,14.054,0,21.081c-0.266,0.1-0.398,0.154-0.665,0.257C4424.128,190.268,4421.86,190.805,4419.259,191.164
			L4419.259,191.164z M4410.034,176.556c-1.146,0.179-2.207,0.485-3.127,0.911c-1.929,0.891-2.841,2.152-2.841,3.982
			c0,2.301,0.974,3.817,2.944,4.492c1.014,0.348,3.145,0.512,6.279,0.484c3.182-0.023,7.004-0.314,7.004-0.314h0.004
			c0.529-0.067,0.857-0.142,1.054-0.197c0-3.285,0-4.925,0-8.208c-2.736-0.957-5.688-1.377-8.785-1.354
			C4411.673,176.362,4410.823,176.432,4410.034,176.556L4410.034,176.556z"/>
	</g>
	<g>
		<path fill="#7F7D7E" d="M4599.836,202.326c-2.127,0-4.542-0.154-7.171-0.503c-4.184-0.551-7.093-1.456-8.897-2.675
			c-2.925-1.978-4.432-5.22-4.432-9.404c0-3.793,1.716-6.206,5.02-7.52c2.443-0.967,5.468-1.294,8.934-0.839
			c2.214,0.287,5.056,0.89,8.65,2.056c0.015-1.568,0.024-2.353,0.039-3.921c0.009-1.108,0.035-4.618-7.938-5.668
			c-2.691-0.354-6.572,0.055-11.478,0.714c-0.454,0.061-0.682,0.088-1.138,0.146c0-2.512,0-3.769,0-6.284
			c0.371,0.005,0.553,0.005,0.925,0.005c4.312,0.004,8.469,0.063,11.944,0.273c6.448,0.387,13.082,4.568,12.943,11.705
			c0,7.026,0,14.053,0,21.076c-0.266,0.064-0.4,0.098-0.666,0.163C4604.701,202.114,4602.438,202.333,4599.836,202.326
			L4599.836,202.326z M4590.606,186.433c-1.145,0.021-2.203,0.176-3.124,0.472c-1.929,0.62-2.839,1.756-2.839,3.581
			c0,2.308,0.971,3.958,2.942,4.908c1.015,0.49,3.145,0.95,6.279,1.365c3.181,0.418,7.005,0.663,7.005,0.667l0,0
			c0.532,0.005,0.859-0.024,1.057-0.054c0-3.283,0-4.924,0-8.207c-2.736-1.338-5.688-2.17-8.787-2.582
			C4592.249,186.468,4591.397,186.417,4590.606,186.433L4590.606,186.433z"/>
	</g>
	<g>
		<path fill="#7F7D7E" d="M4326.372,199.459c0,0,0-20.526,0-31.116c0.24-0.116,0.361-0.169,0.604-0.285
			c5.615-2.619,9.86-2.667,12.143-2.822c0.252-0.018,0.479-0.033,0.686-0.052c0.378-0.029,0.986,0.006,1.955,0.045
			c0.967,0.043,3.5,0.106,5.73,0.321c0,2.474-0.102,3.319-0.102,5.794c-0.449-0.042-1.382-0.178-1.829-0.226
			c-3.021-0.343-4.584-0.487-5.94-0.376c-1.658,0.133-4.668,0.312-7.98,1.608c0,9.021,0,26.738,0,26.738L4326.372,199.459z"/>
	</g>
	<g>
		<g>
			<path fill="#7F7D7E" d="M4443.517,190.392c-3.77-0.291-6.977-1.867-9.507-4.632c-2.73-2.979-4.118-6.782-4.118-11.438
				c0-4.917,1.342-9.167,3.964-12.489c2.662-3.376,6.27-5.026,10.699-4.956c2.425,0.036,5.987,0.563,10.593,1.187
				c0.339,0.045,0.509,0.067,0.848,0.108c0,2.604,0,3.907,0,6.513c-0.484-0.131-0.73-0.2-1.213-0.333
				c-4.581-1.284-8.023-2.138-10.252-2.174c-2.857-0.042-5.102,1.084-6.778,3.457c-1.595,2.257-2.404,5.196-2.404,8.617
				c0,3.149,0.854,5.714,2.533,7.663c1.659,1.925,3.81,2.897,6.531,2.939c2.468,0.037,6.019-0.659,10.542-2.422
				c0.532-0.206,0.799-0.312,1.332-0.527c0,2.577,0,3.87,0,6.442c-0.27,0.086-0.405,0.128-0.676,0.213
				c-4.568,1.42-8.298,1.919-11.082,1.876C4444.188,190.432,4443.849,190.416,4443.517,190.392L4443.517,190.392z"/>
		</g>
	</g>
	<g>
		<g>
			<path fill="#7F7D7E" d="M4563.917,197.973c-3.77-0.621-6.973-2.477-9.507-5.462c-2.731-3.222-4.117-7.146-4.117-11.801
				c0-4.917,1.34-9.053,3.962-12.14c2.668-3.147,6.271-4.479,10.703-4.021c2.425,0.249,5.988,1.084,10.59,2.114
				c0.34,0.074,0.508,0.111,0.851,0.184c0,2.601,0,3.907,0,6.512c-0.487-0.175-0.73-0.263-1.218-0.438
				c-4.58-1.688-8.022-2.847-10.253-3.073c-2.854-0.291-5.099,0.639-6.775,2.863c-1.597,2.119-2.401,4.987-2.401,8.407
				c0,3.149,0.854,5.786,2.531,7.882c1.66,2.072,3.809,3.233,6.532,3.514c2.468,0.254,6.021-0.133,10.544-1.497
				c0.529-0.165,0.795-0.243,1.328-0.413c0,2.577,0,3.866,0,6.442c-0.27,0.061-0.406,0.091-0.676,0.151
				c-4.568,1.019-8.299,1.193-11.083,0.909C4564.589,198.069,4564.249,198.024,4563.917,197.973L4563.917,197.973z"/>
		</g>
	</g>
	<g>
		<path fill="#7F7D7E" d="M4527.429,193.912c-1.58-0.378-2.988-1.054-4.172-1.949c-1.807-1.368-2.806-3.208-2.806-5.537
			c0-12.982,0-38.208,0-38.208l5.319,0.466v11.89l11.556,0.953v5.238l-11.556-1.011c0,0,0,13.336,0,19.673
			c0,2.474,1.028,3.046,2.137,3.319c0.159,0.039,0.326,0.068,0.504,0.093c1.79,0.252,4.455-0.046,7.906-1.505
			c0.576-0.245,0.866-0.371,1.441-0.645c0,2.504,0,3.754,0,6.258c-0.229,0.082-0.346,0.121-0.578,0.2
			c-3.66,1.217-6.467,1.289-8.57,0.993C4528.208,194.082,4527.808,194.004,4527.429,193.912L4527.429,193.912z"/>
	</g>
	<polygon fill="#7F7D7E" points="4616.622,205.101 4611.28,204.539 4611.28,159.324 4616.622,159.884 	"/>
	<g>
		<polygon fill="#7F7D7E" points="4546.487,195.772 4541.144,195.307 4541.144,161.882 4546.487,162.348 		"/>
		<path fill="#7F7D7E" d="M4546.597,153.414c0,1.568-1.271,2.724-2.834,2.588c-1.568-0.136-2.838-1.516-2.838-3.082
			c0-1.568,1.27-2.728,2.838-2.588C4545.325,150.468,4546.597,151.848,4546.597,153.414z"/>
	</g>
	<g>
		<polygon fill="#7F7D7E" points="4233.438,204.028 4227.798,203.928 4227.798,159.321 4233.438,158.969 		"/>
		<path fill="#7F7D7E" d="M4242.675,186.662c-6.197-0.109-11.49-1.323-11.892-1.42l1.028-4.711l-0.514,2.355l0.514-2.355
			c4.531,1.062,17.59,2.867,23.514-1.46c1.902-1.39,2.917-3.302,3.105-5.848c0.166-2.266-0.486-4.062-1.988-5.49
			c-5.506-5.219-20.619-4.048-25.98-3.36l-2.576-5.062c0.881-0.115,23.521-2.961,31.852,4.938c2.576,2.437,3.795,5.698,3.522,9.41
			c-0.294,3.976-1.989,7.118-5.042,9.343C4254.084,186.021,4248.04,186.756,4242.675,186.662L4242.675,186.662z"/>
	</g>
	<path fill="#7F7D7E" d="M4169.882,198.643c-0.342-0.037-0.67-0.08-0.988-0.125c-9.454-1.368-14.248-7.45-14.248-18.08
		c0-5.307,1.369-9.371,4.074-12.079c2.748-2.741,6.578-3.783,11.393-3.085c9.851,1.425,11.92,6.853,11.92,11.154
		c0,4.122-2.18,8.806-12.574,7.713c-0.475-0.048-0.965-0.108-1.469-0.181c-2.049-0.3-4.738-0.906-8.008-1.802
		c-0.018,0.161-0.026,0.309-0.026,0.447c0,2.856,0.861,5.22,2.63,7.236c1.778,2.016,3.865,3.17,6.386,3.533
		c0.155,0.021,0.314,0.042,0.475,0.061c2.395,0.252,5.704-0.105,9.836-1.057l1.274-0.294v6.454l-0.797,0.059
		C4175.68,198.899,4172.45,198.911,4169.882,198.643L4169.882,198.643z M4160.526,176.586c0.156,0.2,1.209,1.154,7.538,2.065
		c0.413,0.061,0.81,0.109,1.192,0.148l0,0c2.574,0.271,4.497,0.105,5.717-0.493c1.09-0.534,1.598-1.393,1.598-2.701
		c0-1.792-0.677-4.274-6.538-5.129c-2.118-0.296-4.233,0.082-6.243,1.157C4161.614,172.82,4160.546,174.442,4160.526,176.586
		L4160.526,176.586z"/>
	<g>
		<path fill="#7F7D7E" d="M4203.896,202.215c-2.129,0.032-4.541-0.079-7.172-0.378c-4.181-0.482-7.094-1.333-8.896-2.522
			c-2.924-1.924-4.434-5.142-4.434-9.326c0-3.788,1.718-6.238,5.023-7.607c2.439-1.011,5.466-1.39,8.934-0.995
			c2.213,0.247,5.055,0.802,8.648,1.902c0.016-1.57,0.021-2.351,0.039-3.923c0.011-1.108,0.037-4.616-7.938-5.525
			c-2.691-0.309-6.574,0.17-11.477,0.915c-0.456,0.068-0.684,0.104-1.138,0.166c0-2.516,0-3.772,0-6.288
			c0.368,0,0.554,0,0.925-0.009c4.312-0.072,8.468-0.085,11.941,0.063c6.449,0.276,13.085,4.339,12.945,11.479
			c0,7.022,0,14.05-0.002,21.077c-0.266,0.069-0.397,0.103-0.668,0.175C4208.765,201.914,4206.498,202.172,4203.896,202.215
			L4203.896,202.215z M4194.667,186.478c-1.145,0.042-2.203,0.215-3.125,0.529c-1.928,0.654-2.839,1.805-2.839,3.633
			c0,2.305,0.973,3.939,2.94,4.856c1.016,0.47,3.146,0.893,6.279,1.251c3.186,0.366,7.006,0.541,7.008,0.544v0.004
			c0.53-0.007,0.861-0.042,1.058-0.076c0-3.281,0-4.92,0-8.205c-2.737-1.292-5.69-2.072-8.79-2.424
			C4196.309,186.484,4195.458,186.45,4194.667,186.478L4194.667,186.478z"/>
	</g>
	<g>
		<path fill="#7F7D7E" d="M4315.599,200.522c-2.126,0.333-4.541,0.56-7.172,0.624c-4.179,0.105-7.094-0.34-8.896-1.275
			c-2.923-1.517-4.432-4.522-4.432-8.707c0-3.791,1.718-6.479,5.021-8.311c2.44-1.354,5.466-2.153,8.934-2.246
			c2.211-0.059,5.054,0.097,8.646,0.692c0.016-1.567,0.026-2.352,0.041-3.927c0.009-1.111,0.036-4.62-7.938-4.413
			c-2.692,0.07-6.573,1.087-11.478,2.519c-0.456,0.133-0.682,0.2-1.138,0.323c0-2.513,0-3.769,0-6.282
			c0.37-0.054,0.556-0.085,0.925-0.139c4.312-0.681,8.469-1.271,11.943-1.607c6.447-0.63,13.084,2.51,12.943,9.664
			c0,7.026,0,14.053,0,21.077c-0.268,0.106-0.4,0.164-0.668,0.271C4320.468,199.541,4318.201,200.116,4315.599,200.522
			L4315.599,200.522z M4306.372,186.078c-1.146,0.199-2.205,0.523-3.127,0.965c-1.928,0.927-2.838,2.201-2.838,4.029
			c0,2.308,0.971,3.803,2.941,4.446c1.014,0.329,3.146,0.452,6.279,0.375c3.182-0.085,7.005-0.442,7.005-0.439l0,0
			c0.532-0.079,0.862-0.157,1.058-0.218c0-3.282,0-4.924,0-8.204c-2.737-0.909-5.689-1.282-8.787-1.2
			C4308.013,185.853,4307.161,185.938,4306.372,186.078L4306.372,186.078z"/>
	</g>
	<g>
		<path fill="#7F7D7E" d="M4350.729,196.916c0,0,0-20.326,0-30.735c2.564-0.96,3.845-1.41,6.405-2.279
			c2.379-0.815,4.348-1.269,6.011-1.43c3.58-0.348,6.881,0.5,9.785,2.462c2.715-2.425,6.172-3.818,10.283-4.221
			c3.058-0.294,5.795,0.257,8.117,1.635c2.737,1.623,4.147,4.108,4.147,7.486c0,7.6,0,23.167,0,23.167l-5.315,0.467
			c0,0,0.029-15.271,0.047-22.857c0-1.729-0.709-2.964-2.161-3.788c-1.305-0.745-2.86-1.029-4.609-0.857
			c-7.894,0.771-7.897,3.875-7.897,4.917c0,7.983,0,23.862,0,23.862l-5.312,0.463c0,0,0-15.991,0-24.014
			c0-0.824-0.27-2.067-2.464-2.946c-1.427-0.565-3.021-0.769-4.64-0.61c-1.81,0.175-4.211,0.928-7.135,2.31
			c0,8.91,0,26.509,0,26.509L4350.729,196.916z"/>
	</g>
</g>
</svg>
